<?xml version="1.0" encoding="UTF-8" standalone="no"?>
<svg
   xmlns:dc="http://purl.org/dc/elements/1.1/"
   xmlns:cc="http://creativecommons.org/ns#"
   xmlns:rdf="http://www.w3.org/1999/02/22-rdf-syntax-ns#"
   xmlns:svg="http://www.w3.org/2000/svg"
   xmlns="http://www.w3.org/2000/svg"
   width="125.18093mm"
   height="74.888649mm"
   viewBox="0 0 125.18093 74.888649"
   version="1.1"
   id="svg8">
  <defs
     id="defs2" />
  <metadata
     id="metadata5">
    <rdf:RDF>
      <cc:Work
         rdf:about="">
        <dc:format>image/svg+xml</dc:format>
        <dc:type
           rdf:resource="http://purl.org/dc/dcmitype/StillImage" />
        <dc:title></dc:title>
      </cc:Work>
    </rdf:RDF>
  </metadata>
  <path
     id="highlightYellow"
     transform="scale(0.26458334)"
     d="m 128.09375,66.964844 c -0.0915,0.0035 0.0912,0.218819 0.56836,0.753906 0.45186,0.506835 2.10755,3.657941 3.67969,7.001953 8.16894,17.375735 14.28592,28.912227 19.89648,37.519527 l 1.72266,2.64063 H 157.48047 161 l -3.17383,-3.76172 c -4.1862,-4.95976 -7.14409,-8.98169 -11.97656,-16.289062 -5.19303,-7.852535 -9.64322,-15.106483 -12.92969,-21.070312 -3.08063,-5.590337 -3.42253,-6.104894 -4.37109,-6.595704 -0.24711,-0.127842 -0.40021,-0.201337 -0.45508,-0.199218 z m -2.55859,3.873047 c -0.15878,0.15874 3.93181,11.163452 5.97265,16.066406 3.68804,8.860157 6.65817,15.041863 11.13086,23.175783 3.7028,6.73391 3.53139,6.48654 4.34766,6.2832 0.38177,-0.0952 1.30476,-0.2698 2.05273,-0.38867 0.74801,-0.11906 1.36133,-0.34973 1.36133,-0.51172 0,-0.16214 -0.92797,-1.58484 -2.06055,-3.16211 -6.6466,-9.25644 -15.10922,-24.420042 -20.83398,-37.330077 -1.0314,-2.325921 -1.91768,-4.185839 -1.9707,-4.132812 z"
     style="fill:#f3e299;stroke-width:0.31999999" />
  <path
     id="archGray"
     d="M 25.395866,0 C 25.249308,0 24.30918,0.29278627 23.306588,0.65060628 21.560253,1.2738563 21.47898,1.3128717 21.367688,1.5792318 c -0.135493,0.3242899 -0.148235,1.0166573 -0.02791,1.5384073 0.04645,0.2014 0.491183,1.3958816 0.988054,2.6541015 l 0.903304,2.2877158 -0.249597,0.2247924 c -0.432798,0.3899 -1.759918,1.8814532 -2.542997,2.8582232 -2.127997,2.65437 -3.795684,5.308346 -5.607927,8.923486 -4.02375,8.026759 -7.4435366,17.707456 -10.5011676,29.727384 -1.0946321,4.30313 -1.849637,7.691871 -3.098002,13.90406 l -0.94981285,4.726845 0.28990477,-0.05426 c 0.15964101,-0.02995 0.52426248,-0.13783 0.81029048,-0.23978 L 1.9022094,67.94469 2.5130249,64.812063 C 4.8770698,52.688193 6.9648104,44.424973 9.8180053,35.898584 11.930885,29.584523 13.896428,24.759809 16.302881,19.981209 c 2.087934,-4.14611 3.940885,-6.974707 6.586161,-10.0541665 0.370011,-0.4307399 0.697277,-0.7828979 0.727087,-0.7828979 0.02981,0 0.11659,0.1693143 0.19327,0.3762044 l 0.139526,0.3762045 -0.552937,0.6609415 C 21.02991,13.385725 19.166247,16.333188 17.071826,20.559468 12.431603,29.922869 8.5836058,41.597093 5.3743489,56.04929 4.7700408,58.770662 3.0346501,67.494281 3.0871501,67.54678 c 0.021587,0.02159 0.8314362,-0.192667 1.7993733,-0.476456 2.577035,-0.755579 5.5690646,-1.585685 6.6533406,-1.845366 0.521515,-0.124899 0.958687,-0.234429 0.971517,-0.24443 0.01283,-0.0096 0.348191,-2.33731 0.744657,-5.17281 1.810294,-12.94714 3.098394,-20.776168 4.189409,-25.460979 1.232158,-5.290878 3.400031,-11.131705 6.042525,-16.279625 0.823606,-1.60449 2.058063,-3.758427 2.153873,-3.758427 0.06626,0 1.749107,4.222005 1.698088,4.260205 -0.01926,0.01443 -0.335188,0.210709 -0.702284,0.436149 -1.368522,0.84045 -2.170025,1.699806 -2.167825,2.324406 5.82e-4,0.16664 0.09188,0.588677 0.203088,0.937927 0.550286,1.72814 0.92963,4.087781 1.072286,6.670912 0.114494,2.073158 0.01473,4.576791 -0.312642,7.849131 -0.337981,3.378412 -0.334491,3.253349 -0.101286,3.598747 0.110044,0.16298 0.379303,0.41652 0.598413,0.56379 1.29437,0.86996 4.604532,0.864063 8.181929,-0.01447 4.976146,-1.222031 9.795111,-3.653642 11.931571,-6.020821 1.385562,-1.53516 1.372454,-2.856931 -0.03566,-3.572394 -0.89304,-0.453758 -3.53242,-3.061962 -5.156792,-5.095812 -1.84109,-2.30521 -3.434977,-4.991449 -4.571296,-7.704439 -0.531048,-1.2679 -0.686591,-1.45487 -1.350307,-1.62419 -0.704625,-0.17976 -2.521971,-0.09747 -3.371368,0.152962 -0.22211,0.06549 -0.310626,-0.199071 -1.345139,-4.029211 L 29.286067,9.6097438 29.861742,9.0692085 c 2.613441,-2.4526099 5.904222,-4.2265419 8.984983,-4.843632 1.994408,-0.3994899 4.571788,-0.2952329 6.589779,0.2671672 0.768209,0.2141001 1.051689,0.3445471 1.732708,0.795817 4.289282,2.84222 8.125309,8.4024743 11.392069,16.5132043 0.657982,1.633629 1.816521,4.954222 2.35593,6.752042 l 0.222207,0.741039 h 0.710036 0.710033 l -0.128156,-0.444415 c -0.32245,-1.120016 -1.026022,-3.274965 -1.472263,-4.508765 -2.5566,-7.06883 -5.549942,-12.44395 -9.029422,-16.2134801 -0.649121,-0.7032299 -0.653648,-0.7110217 -0.198438,-0.3446817 0.7336,0.5903799 2.605501,2.5093778 3.309358,3.3925578 3.443851,4.3212 6.087557,9.819076 8.335926,17.335377 l 0.234611,0.783413 h 2.526461 c 1.38979,0 2.526977,-0.01939 2.526977,-0.04289 0,-0.09331 -1.307732,-3.090444 -1.858801,-4.260204 -2.426589,-5.1509 -5.167103,-9.800009 -7.670331,-13.011609 C 54.377388,5.8757073 49.573494,2.4475902 44.177664,1.3063802 c -1.42018,-0.30037 -4.16523,-0.38086488 -5.69681,-0.1669149 -3.453813,0.48246 -6.849187,1.9452099 -9.743075,4.1971598 l -0.514178,0.4004924 -0.08888,-0.3322796 c -0.102828,-0.38524 -0.125587,-0.362018 1.20251,-1.2252481 2.197582,-1.42837 5.126776,-2.5780325 7.493598,-2.9414225 1.830702,-0.2811 1.896144,-0.30093128 0.845944,-0.25373128 C 34.329486,1.134976 31.25349,2.1221725 28.059784,4.0705526 L 27.798821,4.2297159 27.522868,3.2364949 C 27.231059,2.1869849 26.724671,1.0032811 26.367382,0.53485107 26.108033,0.19483107 25.754303,0 25.395866,0 Z m 7.770067,17.119368 c 0.770578,-0.01682 1.593974,0.09399 1.880505,0.306441 0.133583,0.09905 0.49947,0.792475 1.037148,1.966806 0.897115,1.95937 1.460707,2.943535 3.149677,5.499405 1.530511,2.316071 1.672801,2.492987 3.299542,4.105175 l 1.451589,1.438672 -1.862934,0.04961 c -1.82472,0.04881 -1.898611,0.05802 -3.630269,0.446485 -0.972222,0.218101 -2.076934,0.474059 -2.455148,0.568957 -0.378211,0.09489 -0.763508,0.195543 -0.856279,0.223242 -0.14288,0.0427 -0.152659,0.03058 -0.06253,-0.07803 0.144047,-0.173558 0.954519,-0.531793 2.17868,-0.963765 0.62851,-0.22179 1.005819,-0.398204 0.990118,-0.462503 -0.014,-0.05719 -0.30404,-0.603403 -0.644922,-1.213363 -1.202219,-2.151229 -2.287389,-4.47019 -3.308323,-7.07037 -0.682077,-1.737149 -1.534186,-4.161901 -1.415934,-4.029211 0.0415,0.04657 0.318368,0.656456 0.615466,1.354956 1.28446,3.01986 3.195923,6.587537 4.961454,9.260416 l 0.972034,1.471229 0.390157,-0.05323 c 0.214439,-0.0294 0.407098,-0.0712 0.428397,-0.0925 0.02127,-0.02127 -0.196027,-0.400383 -0.482658,-0.842843 -1.076161,-1.66124 -3.051744,-5.435566 -4.833813,-9.235096 -0.393136,-0.8382 -0.788527,-1.627618 -0.879017,-1.753898 -0.261027,-0.36428 -0.660651,-0.501871 -1.605587,-0.553971 l -0.856276,-0.04754 0.336928,-0.12144 c 0.29646,-0.107287 0.739648,-0.163541 1.201994,-0.173633 z"
     style="fill:#a7a8ac;stroke-width:0.08466666" />
  <path
     id="bellYellow"
     transform="scale(0.26458334)"
     d="m 96.455078,0.16015625 c -1.326959,-0.0266436 -3.410198,0.67334147 -7.814453,2.24023435 -4.049983,1.4408693 -7.104496,2.7050223 -7.423828,3.0761719 -0.786131,0.913285 -1.032692,3.2156869 -0.587891,5.4765625 0.212315,1.079168 1.930063,5.869287 3.816406,10.644531 L 87.875,30.279297 84.861328,33.458984 C 73.99951,44.927697 64.856358,58.426501 56.152344,75.839844 36.941386,114.27352 21.451157,161.99846 8.3242188,223.19922 c -1.8735611,8.73494 -7.0449219,34.54237 -7.0449219,35.1582 0,0.31733 0.2662286,0.26069 3.09375,-0.66015 l 2.6523437,-0.86329 0.4882813,-2.25781 C 7.7823207,253.33509 8.8052108,248.14504 9.7871094,243.04102 23.082542,173.93023 39.603442,120.01732 60.484375,77.599609 68.04724,62.236321 75.624588,50.323723 84.716797,39.501953 c 1.765769,-2.101682 3.550693,-4.136237 3.966797,-4.521484 l 0.755859,-0.701172 2.507813,6.494141 2.505859,6.49414 -2.771484,4.605469 c -3.08349,5.12296 -9.335632,17.373092 -12.458985,24.410156 -7.648471,17.232302 -13.35736,34.374097 -17.113281,51.396487 -2.173776,9.85187 -6.118652,32.17618 -8.964844,50.7207 -3.029541,19.73915 -9.759105,67.65289 -9.533203,67.87891 0.175091,0.17506 3.163003,-0.51209 3.490234,-0.80274 0.121729,-0.10809 1.314637,-8.04469 2.652344,-17.63672 8.710432,-62.45786 13.815264,-91.53991 19.486328,-111.03906 4.517639,-15.53325 10.567863,-30.715952 18.619141,-46.720702 3.649671,-7.25503 8.70571,-16.303114 9.117187,-16.314453 0.09684,-0.0029 1.62248,3.657462 3.390628,8.134766 l 3.21484,8.140625 -2.66601,1.628906 c -5.33734,3.261543 -8.440338,6.553968 -8.431645,8.945312 0.0022,0.629821 0.347257,2.224922 0.767578,3.544922 2.079821,6.531553 3.513561,15.449877 4.052735,25.212894 0.432733,7.83556 0.05567,17.30007 -1.181641,29.66797 -1.277409,12.76879 -1.264217,12.29419 -0.382813,13.5996 0.415915,0.61604 1.433587,1.57425 2.261719,2.13086 4.892107,3.28804 17.402957,3.26575 30.923827,-0.0547 18.80749,-4.6187 37.02089,-13.80904 45.0957,-22.75586 5.23677,-5.80218 5.18723,-10.79785 -0.13476,-13.50196 -3.37527,-1.71499 -13.35088,-11.57082 -19.49024,-19.257808 -6.95845,-8.712605 -12.98259,-18.867273 -17.27734,-29.121094 -2.00713,-4.792063 -2.59498,-5.498722 -5.10352,-6.138672 -2.69029,-0.686324 -8.69212,-0.41516 -12.84765,0.582032 -0.91055,0.218532 -1.24443,-0.784773 -5.26172,-15.828126 l -3.27539,-12.263671 1.72461,-1.763672 c 7.43255,-7.598967 20.17808,-15.08274 30.36523,-17.830078 9.58197,-2.58429 20.30506,-2.50963 29.65039,0.208984 4.34937,1.265272 9.31883,4.72299 15.74414,10.953125 16.31982,15.824126 30.77274,42.808578 41.34571,77.19922 l 1.69726,5.52148 h 2.5 c 1.654,0 2.50196,-0.12485 2.50196,-0.36523 0,-0.6319 -3.08332,-10.457283 -5.05664,-16.115236 -9.29708,-26.656781 -20.98776,-48.100092 -34.19532,-62.720703 -3.60782,-3.993826 -3.07308,-3.79624 1.88672,0.695313 6.7731,6.133757 13.3649,14.518502 19.66016,25.005859 1.63684,2.726778 3.07235,5.043367 3.1914,5.148438 0.36084,0.319105 -3.39654,-6.637199 -5.42773,-10.048829 -9.14551,-15.36102 -19.63094,-26.976695 -30.34375,-33.613281 -3.92984,-2.434545 -9.92774,-5.31106 -13.6875,-6.5625 -5.68142,-1.891086 -9.35411,-2.570979 -14.9082,-2.7656248 -4.6091,-0.1614992 -5.62735,-0.092694 -10.21875,0.6914058 -14.47082,2.471321 -24.76061,7.386252 -35.55078,16.986329 l -2.66407,2.371093 -0.32226,-1.033203 c -0.17725,-0.568819 -0.63212,-2.185762 -1.01172,-3.59375 -0.3796,-1.408025 -0.91141,-3.250915 -1.18164,-4.09375 -0.27028,-0.842834 -0.43758,-1.575173 -0.3711,-1.626953 0.0665,-0.05189 1.05718,-0.748248 2.20118,-1.548828 9.83727,-6.884069 21.3858,-11.5839609 32.41992,-13.1933594 2.79783,-0.4079244 2.85293,-0.4288749 1.11719,-0.4628906 -4.77241,-0.089991 -14.59976,1.9236063 -20.89649,4.2832031 -3.947,1.4790804 -9.43061,4.1203989 -12.96094,6.2421879 C 106.37601,15.280189 105.13923,16 105.0918,16 c -0.0474,0 -0.31896,-0.827837 -0.60352,-1.839844 C 102.45022,6.9120052 100.92176,3.4331351 98.914062,1.4726562 98.060938,0.63960118 97.487157,0.18087902 96.455078,0.16015625 Z M 125.35156,64.703125 c 2.91242,-0.06357 6.02447,0.355243 7.10742,1.158203 0.50488,0.374362 1.88776,2.995181 3.91993,7.433594 3.39067,7.405493 5.52078,11.125175 11.90429,20.785156 5.78461,8.753652 6.3224,9.422312 12.47071,15.515622 l 5.48632,5.4375 -7.04101,0.1875 c -6.89658,0.18448 -7.17585,0.21927 -13.7207,1.6875 -3.67454,0.82432 -7.84983,1.79172 -9.2793,2.15039 -1.42946,0.35864 -2.8857,0.73906 -3.23633,0.84375 -0.54002,0.16139 -0.57698,0.11558 -0.23633,-0.29492 0.54443,-0.65597 3.60763,-2.00993 8.23438,-3.64258 2.37547,-0.83826 3.80152,-1.50502 3.74218,-1.74804 -0.0529,-0.21615 -1.14913,-2.28058 -2.4375,-4.58594 -4.54382,-8.13063 -8.64525,-16.895205 -12.5039,-26.722657 -2.57793,-6.565606 -5.7985,-15.730021 -5.35156,-15.228515 0.15684,0.176012 1.20328,2.481093 2.32617,5.121093 4.85465,11.413644 12.07908,24.897777 18.75195,34.999999 l 3.67383,5.56055 1.47461,-0.20117 c 0.81048,-0.11112 1.53864,-0.26911 1.61914,-0.34961 0.0804,-0.0804 -0.74089,-1.51326 -1.82422,-3.18555 -4.06738,-6.2787 -11.53415,-20.543869 -18.26953,-34.904297 -1.48587,-3.168 -2.98026,-6.151627 -3.32227,-6.628906 -0.98656,-1.376806 -2.49695,-1.896837 -6.06836,-2.09375 l -3.23632,-0.179688 1.27343,-0.458984 c 1.12048,-0.405496 2.79552,-0.618108 4.54297,-0.65625 z m 4.20508,71.785155 c 2.06841,0.0266 4.15221,0.21114 4.84375,0.53516 1.24679,0.58431 1.11623,0.5972 -2.08008,0.22265 -1.23199,-0.14551 -3.60924,-0.19447 -5.28125,-0.11132 -2.5314,0.12585 -2.90444,0.0876 -2.23828,-0.23438 0.63482,-0.30699 2.68745,-0.43875 4.75586,-0.41211 z"
     style="fill:#efbc16;stroke-width:0.31999999" />
  <path
     id="blue"
     transform="scale(0.26458334)"
     d="m 96.455078,0.16015625 c -1.326959,-0.0266436 -3.410198,0.67334147 -7.814453,2.24023435 -4.049983,1.4408693 -7.104496,2.7050223 -7.423828,3.0761719 -0.786131,0.913285 -1.032692,3.2156869 -0.587891,5.4765625 0.212315,1.079168 1.930063,5.869287 3.816406,10.644531 L 87.875,30.279297 84.861328,33.458984 C 73.99951,44.927696 64.856358,58.426502 56.152344,75.839844 36.941387,114.27352 21.451157,161.99846 8.3242188,223.19922 c -1.873561,8.73494 -7.0449219,34.54237 -7.0449219,35.1582 0,0.31733 0.2662287,0.26069 3.09375,-0.66015 l 2.6523437,-0.86329 0.4882813,-2.25781 C 7.7823207,253.33509 8.8052108,248.14504 9.7871094,243.04102 23.082542,173.93024 39.603442,120.01732 60.484375,77.599609 68.04724,62.236321 75.624588,50.323723 84.716797,39.501953 c 1.765769,-2.101644 3.550693,-4.136237 3.966797,-4.521484 l 0.755859,-0.701172 2.507813,6.494141 2.505859,6.49414 -2.771484,4.605469 c -3.08349,5.12296 -9.335632,17.373129 -12.458985,24.410156 -7.648471,17.232302 -13.35736,34.374097 -17.113281,51.396487 -2.173776,9.85187 -6.118652,32.17615 -8.964844,50.7207 -3.029541,19.73911 -9.759105,67.65289 -9.533203,67.87891 0.175091,0.17506 3.163003,-0.51209 3.490234,-0.80274 0.121728,-0.10809 1.314637,-8.04473 2.652344,-17.63672 8.710432,-62.4579 13.815264,-91.53991 19.486328,-111.03906 4.517639,-15.53325 10.567863,-30.715952 18.619141,-46.720702 3.673436,-7.302236 8.706396,-16.303114 9.123047,-16.314453 0.10012,-0.0029 1.381007,3.05489 2.847656,6.794922 1.466642,3.739994 2.924502,7.400845 3.238282,8.136719 l 0.57031,1.33789 3.14063,-1.378906 c 3.13453,-1.376277 9.91221,-3.695312 10.79687,-3.695312 0.79885,0 0.84655,-0.520874 0.21289,-2.291016 -0.33662,-0.940347 -2.08456,-7.229022 -3.88476,-13.97461 l -3.27344,-12.263671 1.72461,-1.763672 c 7.43255,-7.598967 20.17808,-15.08274 30.36523,-17.830078 9.58197,-2.58429 20.30506,-2.50963 29.65039,0.208984 4.34937,1.265272 9.31883,4.72299 15.74414,10.953125 16.31982,15.824126 30.77274,42.80858 41.34571,77.19922 l 1.69726,5.52148 h 2.5 c 1.654,0 2.50196,-0.12485 2.50196,-0.36523 0,-0.6319 -3.08332,-10.457283 -5.05664,-16.115236 -9.29708,-26.656781 -20.98776,-48.100092 -34.19532,-62.720703 -3.60782,-3.993826 -3.07308,-3.79624 1.88672,0.695313 6.7731,6.133757 13.3649,14.518502 19.66016,25.005859 1.63684,2.726778 3.07235,5.043367 3.1914,5.148438 0.36084,0.319105 -3.39654,-6.6372 -5.42773,-10.048829 -9.14551,-15.36102 -19.63094,-26.976695 -30.34375,-33.613281 -3.92984,-2.434545 -9.92774,-5.31106 -13.6875,-6.5625 -5.68142,-1.891086 -9.35411,-2.5709791 -14.9082,-2.7656248 -4.6091,-0.1614992 -5.62735,-0.092694 -10.21875,0.6914058 -14.47082,2.47132 -24.76061,7.386253 -35.55078,16.986329 l -2.66407,2.371093 -0.32226,-1.033203 c -0.17725,-0.568819 -0.63212,-2.185762 -1.01172,-3.59375 -0.3796,-1.408025 -0.91141,-3.250915 -1.18164,-4.09375 -0.27028,-0.842834 -0.43758,-1.575173 -0.3711,-1.626953 0.0665,-0.05189 1.05718,-0.748248 2.20118,-1.548828 9.83727,-6.884069 21.3858,-11.583961 32.41992,-13.1933594 2.79783,-0.4079244 2.85293,-0.4288749 1.11719,-0.4628906 -4.77241,-0.089991 -14.59976,1.9236063 -20.89649,4.2832031 -3.947,1.4790803 -9.43061,4.1203989 -12.96094,6.2421879 C 106.37601,15.280189 105.13923,16 105.0918,16 c -0.0474,0 -0.31896,-0.827837 -0.60352,-1.839844 C 102.45022,6.9120051 100.92176,3.433135 98.914062,1.4726562 98.060938,0.63960114 97.487157,0.18087902 96.455078,0.16015625 Z M 356.17578,257.33398 c -26.06475,-0.14197 -49.02114,1.94146 -102.57617,9.06641 -27.71384,3.68704 -41.28716,5.20087 -58.56055,6.53516 -34.6665,2.67775 -56.43649,2.38204 -93.43945,-1.26758 -3.520003,-0.34719 -6.975691,-0.71883 -7.679688,-0.82617 -2.722768,-0.41564 -0.661028,0.23594 6.089848,1.92187 24.36854,6.0858 47.38269,9.3669 70.87109,10.10742 12.56164,0.39598 30.15939,-0.0435 45.11914,-1.1289 15.93449,-1.1562 29.96744,-2.66513 62.42383,-6.70703 48.60113,-6.05243 63.0578,-7.33145 87.33594,-7.72657 31.57929,-0.51394 56.00225,2.22453 89.27929,10.00586 4.13602,0.96711 9.15543,2.19298 11.15235,2.72461 1.99683,0.53167 3.69444,0.90126 3.77343,0.82227 0.35789,-0.35792 -14.91301,-6.38266 -24.04492,-9.48633 -28.34385,-9.63326 -51.43388,-13.45547 -84.48047,-13.98438 -1.77527,-0.0284 -3.52602,-0.0472 -5.26367,-0.0566 z"
     style="fill:#23a8e0;stroke-width:0.31999999" />
  <path
     id="letterGold"
     transform="scale(0.26458334)"
     d="m 109.21484,68.789062 -2.20703,1.015626 c -3.24863,1.493933 -6.36835,3.642705 -9.167966,6.314453 -3.000688,2.863596 -2.965512,2.589284 -1.210938,9.560547 3.614304,14.360352 5.357554,27.499052 5.035154,37.937502 -0.21292,6.89457 -0.6243,9.0813 -2.958982,15.74219 -0.19158,0.54651 -0.143248,0.53316 0.324219,-0.0938 1.118173,-1.49956 7.159273,-6.59495 10.380863,-8.75585 4.13566,-2.77406 7.48663,-4.46366 13.57031,-6.84571 5.36646,-2.10123 5.42901,-2.29233 0.91406,-2.75 -4.05353,-0.41083 -5.87186,-1.66425 -7.70312,-5.31054 -0.81419,-1.62116 -1.45811,-4.18209 -6.14649,-24.404301 -2.62617,-11.327358 -3.60408,-16.112173 -3.62109,-17.714844 l -0.0234,-2.195313 1.40625,-1.25 z m 52.44336,47.749998 c -7.14933,0.1536 -16.11403,1.7586 -25.81054,4.78906 -15.33278,4.79196 -31.27928,13.66512 -37.218754,20.70899 -2.523809,2.99308 -3.355901,4.69954 -3.509765,7.20117 -0.123481,2.00761 -0.04875,2.41725 0.61914,3.40234 1.664168,2.45452 5.249379,3.96031 10.662109,4.47852 14.82409,1.41921 41.38618,-6.40933 57.57227,-16.9668 11.82376,-7.71212 16.58652,-15.15837 12.59961,-19.69922 -2.432,-2.76988 -7.76473,-4.06765 -14.91407,-3.91406 z m -32.10156,19.94922 c 2.06841,0.0266 4.15221,0.21114 4.84375,0.53516 1.24679,0.58431 1.11623,0.5972 -2.08008,0.22265 -1.23199,-0.14551 -3.60924,-0.19447 -5.28125,-0.11132 -2.5314,0.12585 -2.90444,0.0876 -2.23828,-0.23438 0.63482,-0.30699 2.68745,-0.43875 4.75586,-0.41211 z m -54.037109,28.9082 v 3.51563 3.51758 l 0.960938,0.21093 c 0.886715,0.19477 0.958984,0.31557 0.958984,1.59766 v 1.38867 l 1.617188,0.34571 c 0.888661,0.19048 1.823712,0.34765 2.080078,0.34765 0.405037,0 0.455896,3.40302 0.384765,25.95508 l -0.08203,25.95508 -3.039062,1.20898 -3.041016,1.20899 -0.08984,3.18164 -0.08984,3.18164 0.96875,-0.14258 0.970703,-0.14258 v 1.99219 c 9.2e-5,1.58271 0.09278,1.95467 0.453125,1.81641 0.629223,-0.24144 14.772074,-3.45202 22.054687,-5.00586 3.314847,-0.70727 6.159157,-1.36702 6.320317,-1.4668 0.16112,-0.0996 0.29296,-1.68388 0.29296,-3.52148 v -3.3418 h -1.75976 c -1.74224,0 -1.75977,-0.009 -1.75977,-0.95899 v -0.96093 h -2.08008 -2.080073 v -5.51953 c 7.94e-4,-3.03602 0.09586,-7.12646 0.208984,-9.08985 l 0.205078,-3.57031 3.119141,-0.38086 c 1.71601,-0.21014 3.44019,-0.28179 3.83008,-0.1582 0.89951,0.2855 2.02659,2.71448 5.34961,11.51953 1.39486,3.696 2.95642,7.34873 3.4707,8.11719 0.51428,0.76841 1.22802,1.87343 1.58594,2.45703 0.78865,1.28594 1.73442,2.3549 2.38672,2.69922 0.28055,0.14808 4.0431,-0.37685 8.96289,-1.25196 l 8.48047,-1.50781 0.0918,-3.24023 0.0899,-3.24024 -1.21094,-0.20117 c -1.83054,-0.30455 -1.95325,-0.37388 -2.06641,-1.16992 -0.0761,-0.53526 -0.36767,-0.78291 -1.06445,-0.90235 -0.87192,-0.14959 -1.19409,-0.62053 -3.51953,-5.12304 -1.4082,-2.72652 -3.09446,-5.74883 -3.74609,-6.7168 -1.40645,-2.08929 -3.79739,-4.62988 -5.10938,-5.42773 l -0.93945,-0.57032 1.40039,-0.82226 c 6.59089,-3.86253 10.62883,-12.36291 9.55078,-20.10742 -0.46141,-3.31473 -1.40006,-5.67547 -2.96484,-7.45313 -1.67686,-1.90499 -6.9266,-5.4119 -9.3418,-6.24219 -4.89125,-1.68143 -5.28401,-1.7109 -24.130861,-1.84961 z m 283.519529,0 v 2.58985 2.58984 l 0.94532,0.18945 c 0.8635,0.1727 0.95137,0.31522 1.03906,1.67188 l 0.0957,1.48242 1.95313,0.27735 1.95312,0.27929 0.20703,3.85156 c 0.11377,2.11867 0.20703,10.95821 0.20703,19.64258 v 15.78907 l -2,0.004 c -1.09999,0.002 -2.5392,0.0919 -3.19922,0.20117 l -1.20117,0.19922 v 2.16406 c 0,2.2587 0.18801,2.55274 1.62696,2.55274 0.52123,0 0.61328,0.23553 0.61328,1.55859 v 1.55664 l 3.60156,0.38477 c 4.99393,0.53257 23.56547,2.85721 24.63867,3.08398 l 0.88086,0.18555 v -3.21094 -3.20898 l -1.20117,-0.33399 c -0.65998,-0.1833 -1.3683,-0.333 -1.57617,-0.33398 -0.20788,-9.8e-4 -0.42416,-0.32369 -0.48047,-0.7168 -0.0843,-0.58941 -0.44587,-0.79448 -2.0586,-1.16601 l -1.95507,-0.45117 -0.23047,-7.66016 c -0.12752,-4.21368 -0.18359,-7.7061 -0.125,-7.75977 0.23939,-0.2186 6.75303,0.49508 7.32812,0.80274 0.88124,0.47161 2.21653,3.27084 5.31446,11.14258 1.48622,3.77642 2.98462,7.41894 3.33007,8.0957 0.76029,1.49034 3.69625,5.85421 4.2461,6.31055 0.21732,0.18036 4.06072,0.9635 8.54101,1.74023 4.48029,0.77669 8.399,1.43435 8.70703,1.45703 0.50068,0.0387 0.56055,-0.31443 0.56055,-3.3125 v -3.35351 l -1.60156,-0.8125 c -0.87999,-0.44595 -1.59961,-0.94251 -1.59961,-1.10352 0,-0.16108 -0.28592,-0.3834 -0.63477,-0.49414 -0.43929,-0.13943 -1.66702,-2.3139 -3.99218,-7.06836 -3.75111,-7.67029 -5.19612,-9.99083 -7.92774,-12.73242 -1.02996,-1.03374 -1.83107,-1.90336 -1.7793,-1.93359 0.0516,-0.0293 0.88197,-0.40679 1.84571,-0.83985 2.46735,-1.10872 5.51632,-4.17662 6.73242,-6.77539 2.23865,-4.78394 2.45581,-10.1971 0.60547,-15.14258 -0.71214,-1.90341 -3.28914,-4.98517 -4.83984,-5.78711 -0.51603,-0.26679 -1.54878,-0.94955 -2.29297,-1.51757 -1.83088,-1.39757 -4.24888,-2.39436 -7.70703,-3.17774 -2.67898,-0.60699 -4.1834,-0.6649 -20.72852,-0.7832 z m -222.07812,0.043 v 2.68164 2.67969 l 0.95898,0.19141 c 0.89424,0.17884 0.96094,0.29022 0.96094,1.61914 0,1.6072 0.0227,1.6221 2.95898,1.96679 l 1.83985,0.2168 v 13.96289 c -3.8e-4,7.67974 -0.0953,17.31137 -0.21094,21.4043 l -0.21094,7.44141 -2.26953,0.6582 c -1.24785,0.36189 -2.7366,0.80365 -3.30859,0.98242 l -1.03907,0.32617 v 2.57031 2.57227 l 0.95899,-0.14062 0.96094,-0.14063 v 1.86328 c 0,1.02554 0.0778,1.86524 0.17383,1.86524 0.0961,0 2.94043,-0.42544 6.32031,-0.94532 3.37992,-0.51987 9.80595,-1.45794 14.28125,-2.08398 4.47526,-0.62608 8.17005,-1.17289 8.20898,-1.21484 0.0393,-0.0421 0.12199,-1.40709 0.1836,-3.03516 l 0.11132,-2.96094 h -1.67968 c -1.65355,1.5e-4 -1.67969,-0.0142 -1.67969,-0.95898 0,-0.86876 -0.0998,-0.96107 -1.04102,-0.96485 -0.57199,-0.002 -1.36378,-0.0911 -1.75976,-0.19726 l -0.71875,-0.19336 v -11.75 c 0,-6.46288 0.0933,-15.64579 0.20898,-20.40625 l 0.21094,-8.65625 1.4707,-0.20117 c 0.80822,-0.11071 2.36876,-0.35721 3.46875,-0.54883 l 2,-0.34766 v -3.16797 -3.16796 h -1.75976 c -1.74112,0 -1.75977,-0.009 -1.75977,-0.95899 v -0.96094 h -13.91992 z m 34.55859,0 V 168 v 2.56055 h 0.96094 c 0.93732,0 0.95898,0.0392 0.95898,1.57031 v 1.56836 l 1.68164,0.21484 c 0.92398,0.11717 1.93025,0.28379 2.23829,0.3711 0.52467,0.14838 0.55745,1.19377 0.52343,16.53711 -0.0208,9.00816 -0.12911,17.81594 -0.24023,19.57421 l -0.20313,3.19727 -3.27929,0.76563 -3.2793,0.76562 v 2.35742 2.35742 h 0.95898 c 0.94867,0 0.96094,0.0175 0.96094,1.75977 0,0.96797 0.0602,1.75977 0.13281,1.75977 0.0728,-10e-6 2.55627,-0.28315 5.51953,-0.63086 5.43447,-0.63791 18.0587,-1.92774 18.86915,-1.92774 0.33932,0 0.4375,-0.68297 0.4375,-3.04101 v -3.03907 h -1.79493 -1.79687 l 0.14062,-0.96093 0.14063,-0.95899 h -2.66406 -2.66407 v -6 c 3.8e-4,-3.30002 0.0953,-10.20611 0.21094,-15.3457 l 0.21094,-9.34375 1.38476,2.14453 c 0.76162,1.17959 1.63892,2.5627 1.94922,3.07422 1.20295,1.98334 21.88962,26.97264 25.14844,30.3789 l 1.33594,1.39454 6.08008,-0.39258 c 3.34401,-0.21589 6.0923,-0.40897 6.10742,-0.43164 0.0155,-0.0219 0.12994,-9.93441 0.2539,-22.02735 0.12397,-12.0929 0.25518,-22.01689 0.29297,-22.05468 0.0376,-0.0376 1.43657,-0.26221 3.10742,-0.49805 l 3.03711,-0.42774 0.0918,-2.95507 0.0918,-2.95703 h -1.61133 c -1.57799,0 -1.61328,-0.0194 -1.61328,-0.95899 v -0.96094 h -10.89258 -10.89453 l 0.0937,2.32032 c 0.0918,2.26631 0.11496,2.32285 0.97461,2.42187 0.82405,0.0948 0.87891,0.19787 0.87891,1.64063 v 1.54101 l 2.48046,0.2793 2.48047,0.27734 0.0801,12.48047 0.082,12.48047 -0.88086,-1.28906 c -0.4845,-0.70885 -3.46025,-4.38101 -6.61328,-8.16016 -3.15307,-3.77919 -8.47115,-10.2907 -11.8164,-14.4707 -4.76217,-5.95053 -6.24068,-7.60156 -6.81641,-7.60156 -0.44595,0 -1.01486,-0.37679 -1.44531,-0.95899 l -0.71094,-0.96094 h -10.33984 z m 131.52149,0 v 2.21485 c 0,2.20051 0.005,2.21639 0.95898,2.42578 0.88554,0.19453 0.96094,0.31825 0.96094,1.5918 0,1.55614 0.0752,1.6122 2.61718,1.92968 l 1.75977,0.21875 0.21094,12.02344 c 0.11603,6.61206 0.21094,14.6471 0.21094,17.85547 0,6.47433 0.091,6.2207 -2.22071,6.2207 -0.66504,0 -1.87874,0.0913 -2.69531,0.20313 l -1.48437,0.20312 v 2.19727 2.19726 h 0.96093 c 0.93733,0 0.95899,0.0371 0.95899,1.56836 v 1.57032 l 2.96093,0.1875 c 1.628,0.10261 5.91156,0.33376 9.51954,0.51367 8.46088,0.42209 23.17812,1.48328 30.7207,2.21484 v 0.002 c 3.25602,0.31563 6.24211,0.59269 6.63476,0.61914 0.49856,0.0317 0.76282,-0.17299 0.87696,-0.67578 0.45728,-2.01414 2.07249,-13.12636 1.93945,-13.34179 -0.0848,-0.13728 -0.81774,-0.43496 -1.62891,-0.66211 -0.98358,-0.27538 -1.56328,-0.64344 -1.73828,-1.10352 -0.18648,-0.49039 -0.80268,-0.84488 -2.13281,-1.22461 -1.02916,-0.29382 -2.54661,-0.74337 -3.37305,-1 l -1.5039,-0.46679 -2.48633,4.30078 -2.48828,4.29882 -1.28906,-0.004 c -0.70923,-0.002 -4.17139,-0.21653 -7.69141,-0.47656 -3.51999,-0.26007 -6.43467,-0.47528 -6.47852,-0.47657 -0.0423,-0.001 -0.0801,-3.24312 -0.0801,-7.20312 v -7.19922 l 3.27929,0.0293 c 4.33969,0.0422 4.79474,0.18833 5.13867,1.64257 0.1965,0.83078 0.47085,1.19728 0.94922,1.26758 0.50903,0.0746 0.76896,0.4765 1.06641,1.64649 0.21642,0.85088 0.44142,1.58765 0.5,1.63867 0.0584,0.051 1.72506,0.19559 3.70508,0.32031 l 3.60156,0.22656 v -4.61523 c 0,-2.53886 -0.0957,-6.79879 -0.21094,-9.4668 L 344.85938,184 h -1.54883 c -1.50887,0 -1.55078,-0.0244 -1.55078,-0.95898 v -0.96094 h -3.02735 -3.02734 l -0.48242,1.625 c -0.26544,0.89382 -0.5745,2.11851 -0.6875,2.7207 l -0.20704,1.09375 h -3.64257 -3.64453 v -7.03906 -7.04102 h 3.46875 c 1.90832,0 5.21184,0.0945 7.34179,0.20899 l 3.87305,0.20898 0.69531,1.71094 c 0.38211,0.94148 0.88065,1.71289 1.10742,1.71289 0.22678,0 0.73939,0.79175 1.14063,1.75977 l 0.73047,1.75976 h 3.9414 c 3.54203,0 3.93933,-0.0573 3.93555,-0.56055 -0.003,-0.30799 -0.28982,-3.22448 -0.63867,-6.48046 -0.34874,-3.25599 -0.63477,-6.02826 -0.63477,-6.16016 -4.9e-4,-0.13191 -0.72153,-0.24023 -1.60156,-0.24023 -1.56597,-10e-6 -1.59961,-0.0203 -1.59961,-0.95899 v -0.96094 h -22.88086 z m -30.85547,0.004 c -3.2137,-0.006 -6.08428,0.14377 -8.18555,0.46289 -6.38377,0.96952 -12.01555,3.15441 -16.08984,6.24414 -7.60498,5.7673 -10.62609,16.33357 -7.42188,25.95508 0.96643,2.90184 4.13759,7.8491 6.82813,10.65234 3.92704,4.09145 10.0024,6.94928 17.13086,8.05664 v -0.002 c 3.71701,0.57865 12.14436,0.56166 16.68554,-0.0332 2.10471,-0.27568 6.03504,-0.92313 8.73438,-1.43946 2.69934,-0.51628 5.47149,-0.93945 6.16015,-0.93945 h 1.25196 v -8.61719 -8.61718 l 1.83984,-0.20508 c 2.82905,-0.31707 2.67545,-0.1127 2.57227,-3.43555 l -0.0918,-2.96484 -1.67969,-0.0977 c -1.60176,-0.0922 -1.67969,-0.13811 -1.67969,-0.98828 v -0.89063 l -9.17187,-0.21289 c -5.04465,-0.11641 -10.87759,-0.21093 -12.96094,-0.21093 h -3.78711 v 2.375 2.37304 l 0.95899,0.21094 c 0.90482,0.19877 0.96093,0.29968 0.96093,1.75586 v 1.54492 l 3.03907,0.22852 3.04101,0.22851 v 5.23438 5.23633 l -1.20898,0.61523 c -1.97889,1.00959 -4.83945,1.41025 -8.94141,1.25 -5.53633,-0.21607 -6.61446,-0.83153 -8.85156,-5.05273 -1.71572,-3.23743 -2.14954,-5.29289 -2.33398,-11.04102 -0.19412,-6.04683 0.22933,-8.66683 1.98046,-12.22461 2.0024,-4.06821 5.41661,-6.6417 9.92774,-7.48828 1.88334,-0.35331 7.90411,-0.21793 9.33984,0.21094 0.55419,0.16554 0.90498,0.80752 1.58594,2.89843 0.61882,1.90024 1.02401,2.6836 1.39062,2.6836 0.33839,0 0.68259,0.5283 0.99024,1.52148 l 0.4707,1.51953 1.74414,0.20899 c 2.60633,0.31128 8.8838,0.31105 9.07617,0 0.15153,-0.24518 1.15039,-11.10842 1.15039,-12.51172 0,-0.46775 -0.34988,-0.62661 -1.75976,-0.80273 -1.57141,-0.19631 -1.76172,-0.30168 -1.76172,-0.97266 0,-0.82288 -0.0816,-0.85316 -3.98242,-1.45313 -5.28565,-0.8129 -11.59501,-1.25529 -16.95117,-1.26562 z m 172.59765,0.043 c -0.64472,0.004 -1.32676,0.0185 -2.0625,0.041 -5.89001,0.1804 -8.34152,0.74164 -12.36328,2.83399 -3.10768,1.6168 -5.67807,4.24164 -7.07812,7.22656 -0.87156,1.85836 -1.03757,2.61321 -1.14453,5.23242 -0.21022,5.15207 0.62457,7.69368 4.33203,13.18946 2.67961,3.97209 6.6923,7.81727 10.96093,10.50195 12.32999,7.75476 13.78862,8.96198 14.4043,11.92773 0.80447,3.87511 -0.47655,7.22913 -3.35156,8.77344 -2.04166,1.09667 -8.53893,0.35698 -11.51172,-1.31055 l -1.25586,-0.70312 -1.13672,-5.59961 -1.13672,-5.59961 -1.42578,-0.16016 c -1.19856,-0.13436 -1.45756,-0.28912 -1.61328,-0.96093 -0.17563,-0.75738 -0.38896,-0.82844 -4,-1.34571 -2.09786,-0.30047 -3.84098,-0.51826 -3.875,-0.48047 -0.0329,0.0365 -0.16409,3.42079 -0.29297,7.51954 l -0.23437,7.45117 0.98633,0.37304 c 0.83353,0.31465 0.99957,0.56125 1.08007,1.59571 l 0.0957,1.22265 4.85156,2.20899 c 8.26242,3.76051 13.09604,5.38393 18.54101,6.23047 v 0.002 c 3.70723,0.5757 5.80045,0.58205 8.90235,0.0293 6.23531,-1.11107 10.52519,-5.10388 12.21094,-11.36524 0.87688,-3.25719 0.7544,-8.4535 -0.27344,-11.60937 -2.33889,-7.18122 -7.42617,-12.11088 -21.19336,-20.53711 -3.52214,-2.15573 -6.38337,-4.60055 -7.51953,-6.42383 -1.00437,-1.61182 -1.35785,-3.83145 -0.9336,-5.875 0.74295,-3.5788 4.01953,-5.43357 8.92188,-5.05078 1.32703,0.1036 2.856,0.34467 3.39844,0.53516 0.96774,0.33989 0.99858,0.41957 1.69726,4.2539 0.91272,5.00897 0.90083,4.96764 1.73047,5.08594 0.56054,0.0799 0.75804,0.40248 0.97461,1.59375 l 0.27148,1.49414 2.76954,0.19727 c 1.52356,0.10847 3.4911,0.22782 4.37109,0.26562 l 1.59961,0.0703 0.20117,-4.48047 c 0.11036,-2.46398 0.21756,-6.46086 0.24024,-8.88086 l 0.0391,-4.39843 h -0.7793 c -1.25174,0 -2.42187,-0.57628 -2.42187,-1.19336 0,-0.45373 -0.82799,-0.8122 -4.08008,-1.75977 -5.74478,-1.67375 -8.38344,-2.14887 -12.89649,-2.12109 z m -59.30664,8.02734 c 2.47124,-0.0684 6.16424,0.4899 7.67383,1.22071 1.86501,0.90274 2.21238,1.99126 2.19727,6.86523 -0.014,4.58098 -0.54147,6.46628 -2.40039,8.57812 -0.69162,0.78573 -1.8,1.64314 -2.46289,1.9043 -1.47762,0.58224 -3.49326,0.801 -5.92383,0.64453 l -1.83985,-0.11914 v -9.40039 -9.40039 l 1.78125,-0.22266 c 0.29331,-0.0366 0.62158,-0.0605 0.97461,-0.0703 z m -281.59961,0.90625 c 1.53203,0.0545 3.04145,0.21551 3.86133,0.45899 2.53746,0.75356 3.17793,1.431 3.58789,3.78515 0.66377,3.81166 0.28548,8.58157 -0.93945,11.85547 -0.76427,2.04268 -3.06496,4.76133 -4.76172,5.62695 -0.64139,0.32724 -2.01595,0.75332 -3.05469,0.94532 v -0.002 c -1.03874,0.192 -2.29338,0.34961 -2.78906,0.34961 h -0.900391 v -11.32031 -11.31836 l 1,-0.20117 c 0.909941,-0.18198 2.464071,-0.23414 3.996091,-0.17969 z"
     style="fill:#cd9423;stroke-width:0.31999999" />
  <path
     id="green"
     d="m 0.043917,73.8319 c -0.0599,-0.0969 0.128786,-0.17953 2.040033,-0.89308 4.847176,-1.80965 9.795464,-3.18036 18.459242,-5.11336 15.309904,-3.41582 29.651712,-5.33423 45.920142,-6.14243 5.83005,-0.28963 7.54767,-0.33662 12.319,-0.33704 5.90277,-5.1e-4 9.67563,0.17344 15.53633,0.71631 10.899766,1.00964 18.683326,2.4384 29.248386,5.36885 0.78946,0.21897 1.46574,0.41689 1.50283,0.43982 0.0371,0.0229 0.0674,0.10154 0.0674,0.1747 0,0.15749 0.23908,0.18225 -3.34433,-0.34637 -5.37021,-0.7922 -12.56972,-1.64681 -18.20333,-2.16079 C 84.286004,63.77735 67.266964,63.52882 51.392614,64.77628 38.680634,65.77523 24.869488,67.79204 13.673616,70.28431 9.2669,71.26527 3.111718,72.91414 1.241068,73.61479 0.419145,73.92263 0.132114,73.97468 0.043867,73.8319 Z"
     style="fill:#2ab471;stroke-width:0.08466666" />
  <path
     id="bellShadow"
     transform="scale(0.26458334)"
     d="m 163.48633,116.63672 c -12.44263,-0.14935 -30.62423,4.49181 -46.36719,12.50586 -13.58018,6.91309 -21.584767,14.31012 -22.021484,20.34765 -0.07442,1.02883 -0.02107,1.86915 0.117188,1.86915 0.138266,0 1.847945,-1.55805 3.798828,-3.4629 3.850818,-3.75995 8.050758,-7.02083 12.652348,-9.82421 3.09163,-1.88349 9.27668,-5.07488 9.46679,-4.88477 0.25356,0.25361 0.70412,2.82663 0.51367,2.93359 -0.11352,0.0638 -0.78232,0.29812 -1.48632,0.52149 -2.18321,0.69286 -5.55513,2.51977 -6.90821,3.74219 -2.2557,2.03792 -2.76127,3.79049 -1.54101,5.34179 2.27604,2.89353 9.09849,3.43565 16.44531,1.30664 8.20283,-2.37709 12.61464,-7.11176 9.41406,-10.10156 -1.46899,-1.37223 -3.70425,-1.914 -7.88672,-1.91211 l -3.5957,0.002 -0.21289,-0.8457 c -0.11664,-0.46473 -0.22675,-1.35739 -0.24414,-1.98437 -0.0315,-1.13246 -0.0139,-1.14716 2.5293,-2.17383 7.11185,-2.87101 19.52873,-6.4891 26.56054,-7.74024 8.03981,-1.43051 15.55621,-1.62406 20.63672,-0.53125 1.14233,0.24567 2.13478,0.38866 2.20508,0.31836 0.25289,-0.25289 -1.57156,-2.33765 -2.5957,-2.96679 -2.6221,-1.61083 -6.61162,-2.4025 -11.48047,-2.46094 z m -33.92969,19.85156 c 2.06841,0.0266 4.15221,0.21114 4.84375,0.53516 1.24679,0.58431 1.11623,0.5972 -2.08008,0.22265 -1.23199,-0.14551 -3.60924,-0.19447 -5.28125,-0.11132 -2.5314,0.12585 -2.90444,0.0876 -2.23828,-0.23438 0.63482,-0.30699 2.68745,-0.43875 4.75586,-0.41211 z"
     style="fill:#ac811e;stroke-width:0.31999999" />
  <path
     id="darkHighlight"
     d="m 26.424922,36.06809 c 0.417662,-1.29878 0.533629,-2.1531 0.534421,-3.93709 0.0012,-2.74981 -0.468197,-5.99233 -1.405836,-9.71086 -0.314848,-1.24864 -0.343012,-1.43629 -0.241449,-1.60867 0.157424,-0.26718 1.235173,-1.25313 1.138818,-1.0418 -0.04247,0.0931 -0.07336,0.43603 -0.06865,0.762 0.0098,0.67769 0.197062,1.44517 1.343213,5.50462 0.434074,1.5374 0.911483,3.40431 1.060909,4.14866 0.314205,1.5652 0.606748,2.55274 0.846503,2.85753 0.108312,0.1377 0.322692,0.2513 0.599576,0.31773 l 0.430984,0.10339 -0.64117,0.3497 c -0.989359,0.5396 -2.104152,1.36417 -3.014237,2.22952 l -0.828187,0.78746 z"
     style="fill:#ad7422;stroke-width:0.08466666" />
  <path
     id="handleGray"
     transform="scale(0.26458334)"
     d="M 96.455078,0.16015625 C 95.128119,0.13351268 93.04488,0.83349772 88.640625,2.4003906 84.590642,3.8412599 81.536129,5.1054129 81.216797,5.4765625 80.434019,6.3859546 80.184757,8.6920177 80.625,10.929688 c 0.209768,1.06628 2.510389,7.359014 5.113281,13.984374 2.602897,6.625324 5.631096,14.362305 6.728516,17.19336 l 1.994141,5.146484 -2.775391,4.613282 C 88.598924,56.995326 82.34735,69.243153 79.222656,76.283203 71.574185,93.515505 65.865296,110.6573 62.109375,127.67969 c -2.859216,12.95837 -7.091626,37.73709 -11.070313,64.80078 -1.655217,11.2591 -7.519531,53.02393 -7.519531,53.55469 0,0.20031 0.08161,0.36523 0.179688,0.36523 0.448588,0 3.204863,-0.74846 3.402343,-0.92383 0.121729,-0.10809 1.314637,-8.04469 2.652344,-17.63672 8.710432,-62.45786 13.815264,-91.53991 19.486328,-111.03906 4.517639,-15.53325 10.567863,-30.715952 18.619141,-46.720702 3.666554,-7.288592 8.70595,-16.303114 9.121094,-16.314453 0.09917,-0.0029 1.595512,3.594128 3.326171,7.994141 1.73067,4.399974 3.25113,8 3.37695,8 0.12583,0 1.2193,-0.451831 2.43164,-1.003907 2.75691,-1.25537 8.38417,-3.263392 10.60547,-3.785156 0.924,-0.217172 1.67969,-0.439336 1.67969,-0.494141 0,-0.05477 -0.27499,-0.868927 -0.61133,-1.808593 -0.33635,-0.939666 -2.08456,-7.227068 -3.88476,-13.972657 l -3.27344,-12.265624 1.72461,-1.761719 c 5.747,-5.875692 15.26157,-12.102169 23.80469,-15.578125 15.16429,-6.169966 30.76369,-5.539352 46.08007,1.865234 13.95761,6.747704 25.33691,18.143962 36.21485,36.265625 1.63684,2.726778 3.07235,5.043367 3.1914,5.148438 0.36084,0.319105 -3.39654,-6.637199 -5.42773,-10.048829 C 207.07324,36.959292 196.58781,25.343617 185.875,18.707031 174.274,11.520222 162.18977,8.3660171 150.88086,9.5742188 c -7.4346,0.7943052 -16.83192,3.2897152 -22.40039,5.9492192 -5.24752,2.506204 -11.92692,7.046981 -16.98242,11.544921 l -2.67774,2.382813 -0.47851,-1.685547 c -0.26319,-0.926891 -0.75808,-2.693806 -1.10157,-3.925781 C 102.4513,6.6627599 101.4349,3.934187 98.914062,1.4726562 98.060938,0.63960118 97.487157,0.18087902 96.455078,0.16015625 Z M 250.35156,90.341797 c -0.064,0.06403 0.47704,1.398935 1.20313,2.966797 1.1232,2.425285 6.48535,15.150056 7.10156,16.851566 0.11157,0.30791 0.35053,0.56054 0.5293,0.56054 0.181,0 0.0559,-0.67547 -0.28125,-1.52148 -2.16027,-5.41765 -8.34827,-19.061896 -8.55274,-18.857423 z M 123.88672,126.17578 c -0.61714,0.0846 -2.70276,0.88711 -3.51172,1.38281 -0.0578,0.0355 0.27654,1.96217 0.74414,4.28125 0.4676,2.31905 0.80388,4.25102 0.74609,4.29297 -0.0578,0.0419 -1.19341,0.46538 -2.52343,0.94141 -2.957,1.05842 -6.39214,3.30862 -7.30469,4.78516 -0.71864,1.16277 -0.87722,2.76741 -0.36914,3.71679 0.44918,0.83932 1.70171,1.57252 3.60937,2.11133 2.34178,0.66146 8.51238,0.41831 11.92188,-0.46875 4.92994,-1.28258 9.68046,-4.0961 10.90234,-6.45898 0.73996,-1.4309 0.56923,-2.47379 -0.5957,-3.63868 -1.46383,-1.46385 -2.96012,-1.84515 -7.58594,-1.93359 l -4,-0.0762 -0.82422,-4.35352 c -0.45389,-2.39474 -0.92237,-4.45163 -1.04101,-4.57031 -0.0202,-0.0202 -0.0798,-0.0238 -0.16797,-0.0117 z m 5.66992,10.3125 c 2.06841,0.0266 4.15221,0.21114 4.84375,0.53516 1.24679,0.58431 1.11623,0.5972 -2.08008,0.22265 -1.23199,-0.14551 -3.60924,-0.19447 -5.28125,-0.11132 -2.5314,0.12585 -2.90444,0.0857 -2.23828,-0.23633 0.63482,-0.30699 2.68745,-0.4368 4.75586,-0.41016 z"
     style="fill:#5c5c5d;stroke-width:0.31999999" />
  <path
     style="fill:#020101;stroke-width:0.08466666"
     d="m 11.55258,65.00959 c 0.02449,-0.10849 0.294376,-2.00701 0.599741,-4.21892 1.82231,-13.19991 2.930727,-20.2037 4.11186,-25.98174 0.970678,-4.7485 2.390386,-9.22009 4.403546,-13.86963 1.146047,-2.64689 3.766829,-7.70256 4.263575,-8.22475 0.08728,-0.0917 0.163514,0.0288 0.414151,0.65505 l 0.307183,0.7675 -0.721839,1.20761 c -2.249842,3.76393 -4.687205,9.34303 -6.263171,14.33636 -1.769974,5.60802 -3.310665,14.29662 -5.939318,33.49431 l -0.239581,1.74971 -0.338863,0.0972 c -0.186376,0.0534 -0.407029,0.11685 -0.49034,0.14088 -0.122231,0.0352 -0.142877,0.006 -0.106944,-0.15357 z m 8.868675,-1.8942 c 0.02442,-0.46751 0.03884,-0.49647 0.279744,-0.56186 0.244022,-0.0662 4.464671,-1.00906 5.820833,-1.30029 l 0.656167,-0.14091 v -0.44811 c 0,-0.4942 0.05734,-0.55089 0.557258,-0.55089 h 0.289409 v 0.91285 0.91285 l -1.3335,0.2787 c -0.733425,0.15329 -2.3241,0.50631 -3.534834,0.78451 -1.210733,0.27818 -2.327218,0.52836 -2.481077,0.55593 l -0.279745,0.0501 z m 98.112075,-0.77246 c -1.38486,-0.21811 -2.67855,-0.6251 -4.318,-1.35843 -0.67521,-0.30203 -1.40864,-0.62916 -1.62983,-0.72696 -0.3639,-0.1609 -0.40217,-0.2047 -0.40217,-0.46032 0,-0.24258 0.0209,-0.27139 0.14817,-0.20387 1.10067,0.58424 3.17377,1.39536 4.26743,1.66968 1.06826,0.26795 2.75209,0.3667 3.56328,0.20896 1.21723,-0.23669 2.15997,-0.96241 2.67799,-2.06154 0.32587,-0.69139 0.43447,-1.24914 0.43447,-2.23123 0,-1.53518 -0.50088,-2.71269 -1.68389,-3.9586 l -0.47511,-0.50039 0.54291,0.41572 c 0.74676,0.5718 1.46031,1.45648 1.90597,2.36305 0.44155,0.89821 0.55731,1.39765 0.55531,2.396 -0.005,2.32396 -1.11734,3.91736 -3.05441,4.37396 -0.49872,0.11756 -1.98053,0.16085 -2.53212,0.074 z M 31.182671,61.0235 c -0.184334,-0.20238 -0.396529,-0.57128 -0.349699,-0.60795 0.0252,-0.0197 0.998765,-0.19498 3.49936,-0.62989 l 0.846667,-0.14726 0.0257,-0.49254 0.0257,-0.49255 0.312966,0.0517 c 0.172131,0.0285 0.360591,0.0522 0.418799,0.0527 0.07755,6.8e-4 0.105834,0.22721 0.105834,0.8476 0,0.46567 -0.01281,0.84667 -0.02846,0.84667 -0.01565,0 -0.996728,0.17137 -2.180167,0.38082 -1.183437,0.20945 -2.230788,0.3809 -2.327446,0.381 -0.09666,8e-5 -0.253822,-0.0855 -0.349253,-0.19032 z m 79.977609,-0.0967 c -0.0194,-0.0182 -1.00683,-0.19388 -2.19428,-0.39034 -1.96345,-0.32483 -2.18075,-0.37743 -2.39912,-0.58068 -0.25156,-0.23416 -0.4329,-0.51003 -0.37398,-0.56896 0.019,-0.019 0.93491,0.11758 2.03527,0.30359 1.10035,0.18601 2.0594,0.3382 2.13123,0.3382 0.10525,0 0.1306,-0.11504 0.1306,-0.59267 0,-0.32596 0.018,-0.59266 0.0401,-0.59266 0.022,0 0.21253,0.0838 0.42333,0.1862 l 0.38327,0.18621 v 0.87213 c 0,0.7642 -0.0422,0.96504 -0.17639,0.83898 z M 36.660664,59.8719 v -0.4986 l 0.35983,-0.0444 c 0.19791,-0.0244 1.57904,-0.21942 3.06917,-0.43337 1.49013,-0.21395 2.87126,-0.41082 3.06917,-0.43749 l 0.35983,-0.0485 v -0.37582 -0.37581 h 0.42333 0.42334 v 0.78852 0.78852 l -1.4605,0.19349 c -1.63982,0.21726 -5.76103,0.82795 -6.05367,0.89705 -0.18108,0.0428 -0.1905,0.0203 -0.1905,-0.45362 z M 25.230666,56.769 c 0,-2.64329 0.01008,-2.83661 0.148166,-2.84038 0.08149,-0.002 0.548217,-0.0547 1.037167,-0.11659 l 0.889,-0.11254 0.359833,0.37207 c 0.368184,0.38071 0.441259,0.52733 0.254,0.50961 -0.151202,-0.0143 -1.424083,0.11795 -1.651,0.17153 l -0.1905,0.045 v 2.40382 2.40382 h -0.423333 -0.423333 z m 76.030674,2.61819 c -0.76835,-0.10772 -2.273304,-0.29539 -3.344346,-0.41703 -2.5565,-0.29036 -2.32833,-0.22463 -2.32833,-0.67072 v -0.37133 l 0.3175,0.0369 c 0.17462,0.0203 1.68442,0.20716 3.355102,0.41528 1.670684,0.20811 3.070854,0.37839 3.111504,0.37839 0.0406,0 0.0739,-0.21363 0.0739,-0.47473 0,-0.3767 0.025,-0.46513 0.12099,-0.42829 0.0665,0.0255 0.25704,0.072 0.42333,0.10315 l 0.30234,0.0567 v 0.79491 0.79491 l -0.3175,-0.0111 c -0.17462,-0.006 -0.94614,-0.0993 -1.71449,-0.20701 z m -55.439936,-0.81903 0.0256,-0.4445 1.73567,-0.18445 c 0.95462,-0.10145 2.21192,-0.2348 2.794,-0.29633 l 1.05833,-0.11188 0.0263,-0.3175 0.0263,-0.3175 h 0.41822 0.41822 l -9.3e-4,0.4445 c -5.1e-4,0.24447 -0.0234,0.58023 -0.0508,0.74611 l -0.0499,0.30162 -1.198,0.10627 c -0.6589,0.0584 -2.01715,0.19872 -3.01834,0.31173 -2.43441,0.27479 -2.21549,0.29865 -2.18459,-0.23807 z m 68.979966,0.1711 -0.367,-0.27993 -0.23597,-1.17733 c -0.12978,-0.64753 -0.21686,-1.19643 -0.19352,-1.21977 0.0233,-0.0233 0.1834,-0.007 0.35568,0.0358 l 0.31325,0.0783 0.27812,1.39059 c 0.15295,0.76483 0.26423,1.40447 0.24727,1.42143 -0.017,0.017 -0.19597,-0.0951 -0.39783,-0.24909 z m -20.821376,-0.2056 c -0.67659,-0.13055 -7.87807,-0.65637 -11.02783,-0.80522 l -2.18017,-0.10302 V 57.2145 56.80358 l 0.8255,0.0488 c 0.45403,0.0268 1.83515,0.10651 3.06917,0.17707 2.33489,0.13351 4.15551,0.2684 6.9241,0.51301 0.9883,0.0873 1.66004,0.11352 1.70241,0.0664 0.0385,-0.0428 0.16863,-0.72032 0.2892,-1.50558 0.12058,-0.78526 0.23629,-1.44481 0.25715,-1.46567 0.0208,-0.0209 0.22292,0.0168 0.44903,0.0837 0.37966,0.11231 0.40909,0.14023 0.38478,0.365 -0.0384,0.35459 -0.53048,3.45463 -0.5499,3.46398 -0.009,0.004 -0.0736,-0.003 -0.14344,-0.0166 z M 109.7151,58.20657 c -0.24474,-0.13294 -0.58489,-0.64374 -0.95732,-1.43757 -1.24604,-2.65592 -1.68289,-3.37755 -2.50601,-4.13961 -0.28201,-0.2611 -0.54868,-0.47473 -0.59259,-0.47473 -0.0439,0 -0.0798,-0.0381 -0.0798,-0.0847 0,-0.0466 0.0701,-0.0847 0.15582,-0.0847 0.28141,0 1.15655,-0.4965 1.56506,-0.88792 0.89194,-0.85463 1.2582,-1.78161 1.2549,-3.17609 -0.002,-0.99521 -0.19203,-1.77395 -0.56651,-2.32577 -0.11896,-0.17531 -0.20289,-0.33215 -0.18651,-0.34854 0.0164,-0.0164 0.21934,0.13601 0.45099,0.33866 0.77501,0.67796 1.13625,1.63586 1.13625,3.01299 0,1.37106 -0.39994,2.43411 -1.21905,3.24023 -0.41698,0.41037 -1.24072,0.90843 -1.50245,0.90843 -0.0591,0 0.13353,0.23438 0.4281,0.52085 0.67915,0.66045 1.24455,1.52452 1.87522,2.86582 0.2737,0.58208 0.6303,1.31551 0.79245,1.62983 0.16215,0.31433 0.2681,0.56998 0.23544,0.56811 -0.0326,-0.002 -0.16043,-0.0583 -0.28394,-0.12537 z M 34.082349,57.79507 C 33.93386,57.63763 33.513753,56.92325 33.148778,56.20757 32.544226,55.0221 32.186991,54.43097 31.64659,53.72183 l -0.192925,-0.25316 0.267767,0.19016 c 0.361768,0.25692 1.010859,0.98447 1.339568,1.5015 0.148029,0.23283 0.558368,0.98531 0.911865,1.67217 0.468567,0.91044 0.607056,1.24883 0.511092,1.24883 -0.0724,0 -0.253121,-0.12882 -0.401608,-0.28626 z m 22.736125,-1.20785 c -0.62472,-0.73822 -1.04382,-1.25818 -0.93133,-1.15547 0.11248,0.10272 0.47122,0.51347 0.79719,0.91279 l 0.59266,0.72603 1.143,-0.0482 c 0.62865,-0.0265 1.34303,-0.0702 1.5875,-0.097 l 0.4445,-0.0489 v -5.8235 -5.8235 l 0.74084,-0.1 c 1.0624,-0.1434 1.03716,-0.13085 1.03716,-0.51587 v -0.33296 h 0.42334 0.42333 v 0.762 c 0,0.4191 -0.0286,0.76229 -0.0635,0.76264 -0.0656,6.8e-4 -0.95446,0.13331 -1.43933,0.21479 l -0.27517,0.0462 v 5.82724 5.82725 l -0.74083,0.0513 c -0.40746,0.0282 -1.15994,0.0752 -1.67217,0.10431 l -0.93133,0.053 z m 13.62419,0.814 c -2.05041,-0.25177 -3.68876,-0.93133 -4.83879,-2.00705 -0.23398,-0.21886 -0.50644,-0.51341 -0.60547,-0.65455 l -0.18005,-0.25662 0.29332,0.23574 c 0.92918,0.74678 1.89935,1.23221 3.08732,1.54477 2.1022,0.5531 4.44886,0.49168 8.0855,-0.21162 0.48886,-0.0945 1.03178,-0.17189 1.2065,-0.17189 h 0.31767 v -2.28081 -2.28082 l 0.40217,-0.0529 c 0.22119,-0.0291 0.45931,-0.0603 0.52916,-0.0694 0.0884,-0.0115 0.13484,-0.13855 0.15281,-0.41795 0.0279,-0.43458 0.0638,-0.45545 0.59861,-0.34849 l 0.26458,0.0529 v 0.74623 0.74623 l -0.40216,0.0529 c -0.2212,0.0291 -0.45932,0.0605 -0.52917,0.0698 -0.10864,0.0145 -0.13026,0.34319 -0.14954,2.2747 l -0.0225,2.25779 -0.48546,0.0576 c -0.267,0.0317 -0.84741,0.13113 -1.28979,0.22096 -2.30545,0.46815 -4.97121,0.67217 -6.43467,0.49247 z m 30.353006,-0.36624 -0.33867,-0.10201 -0.0225,-2.35694 -0.0225,-2.35695 0.7422,0.0553 c 1.39273,0.10373 1.44573,0.12467 1.9293,0.76226 0.19871,0.26198 0.21604,0.31311 0.0825,0.24346 -0.0929,-0.0485 -0.55951,-0.11505 -1.03682,-0.14791 l -0.86783,-0.0598 v 2.03879 c 0,1.12133 -0.0286,2.03586 -0.0635,2.03228 -0.0349,-0.004 -0.2159,-0.0524 -0.40217,-0.10851 z M 41.714264,51.41383 c 0.0195,-3.10832 0.0516,-5.73048 0.0712,-5.82702 0.0303,-0.14951 0.13946,-0.19113 0.73627,-0.28086 1.1416,-0.17163 1.08165,-0.13776 1.08165,-0.61113 v -0.41416 h 0.42333 0.42333 v 0.8379 0.8379 l -0.74083,0.10709 c -0.40746,0.0589 -0.82656,0.1381 -0.93133,0.176 l -0.1905,0.0689 v 2.95166 c 0,1.62341 -0.0252,4.0437 -0.056,5.37843 l -0.056,2.42677 h -0.39832 -0.39833 z m 76.891046,4.55924 c -0.26309,-0.21417 -1.06268,-0.75136 -1.77686,-1.19374 -1.65195,-1.02327 -2.4706,-1.63884 -3.11557,-2.34271 -0.56378,-0.61527 -0.68715,-0.84669 -0.21297,-0.39947 0.55503,0.52346 1.28526,1.0425 2.66567,1.89473 0.75445,0.46578 1.61192,1.04175 1.90549,1.27994 0.4912,0.39853 1.11239,1.07005 1.04226,1.1267 -0.0163,0.0132 -0.24492,-0.15128 -0.50802,-0.36545 z m -69.404786,-3.9196 c 0.005,-2.34253 0.0336,-4.47927 0.0635,-4.74832 l 0.0543,-0.48919 0.36063,0.6011 0.36064,0.6011 -0.022,4.12142 -0.022,4.12142 -0.40217,0.0258 -0.40216,0.0258 z m 36.67264,3.59744 -0.1905,-0.0367 v -2.30708 -2.30709 l 1.2065,0.031 c 1.59662,0.0411 1.53981,0.0239 1.64857,0.49911 l 0.0905,0.3957 -1.04947,-0.0532 -1.04947,-0.0532 v 1.94558 1.94557 l -0.23284,-0.0115 c -0.12806,-0.006 -0.31856,-0.028 -0.42333,-0.0482 z m -30.42291,-0.68108 -0.20526,-0.23283 0.23284,0.20526 c 0.21761,0.19184 0.27166,0.2604 0.20526,0.2604 -0.0152,0 -0.11995,-0.10477 -0.23284,-0.23283 z m 13.72837,-0.42628 c -1.15309,-0.95782 -1.79606,-3.20702 -1.54187,-5.39374 0.2191,-1.88484 0.91678,-3.11208 2.11415,-3.71883 0.79819,-0.40448 1.29786,-0.49514 2.50281,-0.45411 1.31941,0.0449 1.76558,0.18363 1.90838,0.59326 0.13186,0.37826 0.11866,0.40042 -0.1846,0.31004 -0.51606,-0.15379 -2.16715,-0.10706 -2.75151,0.0779 -0.95467,0.30215 -1.56231,0.7831 -2.08108,1.6472 -1.05933,1.7645 -0.92637,5.32291 0.25797,6.90448 0.11562,0.1544 0.19621,0.29474 0.17909,0.31186 -0.0171,0.0171 -0.19863,-0.10799 -0.40334,-0.27804 z m -14.1517,-0.0817 -0.20526,-0.23283 0.23283,0.20526 c 0.21762,0.19184 0.27166,0.26041 0.20526,0.26041 -0.0152,0 -0.11994,-0.10478 -0.23283,-0.23284 z m -0.42333,-0.508 -0.20526,-0.23283 0.23283,0.20526 c 0.21762,0.19184 0.27166,0.26041 0.20526,0.26041 -0.0152,0 -0.11994,-0.10478 -0.23283,-0.23284 z m -0.42334,-0.508 -0.20526,-0.23283 0.23284,0.20526 c 0.21761,0.19184 0.27166,0.26041 0.20526,0.26041 -0.0152,0 -0.11995,-0.10478 -0.23284,-0.23284 z m 36.15908,0.14434 c -0.48895,-0.0331 -0.89673,-0.0648 -0.90619,-0.0705 -0.0257,-0.0155 -0.19347,-0.63447 -0.19401,-0.71582 0,-0.0387 0.26631,-0.0578 0.59239,-0.0423 l 0.59285,0.0281 V 50.77884 48.768 h 0.42334 0.42333 v 2.45534 c 0,1.35043 -0.01,2.44894 -0.0212,2.44113 -0.0116,-0.008 -0.42121,-0.0412 -0.91016,-0.0743 z M 31.116032,53.21191 c -0.139132,-0.11368 -0.358207,-0.25029 -0.486834,-0.30356 -0.128626,-0.0533 -0.232733,-0.12083 -0.231348,-0.1501 0.0014,-0.0293 0.223326,-0.1796 0.493203,-0.33406 0.964992,-0.55227 1.786982,-1.52587 2.2648,-2.68251 0.231996,-0.56158 0.244723,-0.65704 0.242687,-1.82033 -0.0019,-1.08014 -0.02555,-1.28632 -0.196922,-1.71582 -0.107126,-0.26848 -0.295278,-0.6076 -0.418116,-0.75358 -0.175825,-0.20896 -0.187936,-0.24618 -0.05692,-0.17497 0.690823,0.37552 1.288453,1.26204 1.483216,2.20021 0.159991,0.77067 0.06318,2.23049 -0.193643,2.91995 -0.427232,1.14692 -1.198217,2.13295 -2.13767,2.73392 -0.252459,0.16149 -0.470372,0.29225 -0.48425,0.29058 -0.01388,-0.002 -0.139069,-0.096 -0.278201,-0.20973 z m 26.631112,-0.75258 c -0.37267,-0.63019 -1.08448,-1.57114 -2.24366,-2.96594 -1.34976,-1.62412 -3.6768,-4.49709 -4.13644,-5.10687 -0.0568,-0.0754 -0.0342,-0.10569 0.0787,-0.10535 0.10032,3.4e-4 0.42181,0.33454 0.87545,0.91017 0.91489,1.16089 4.19074,5.17419 4.99273,6.11668 0.81912,0.96261 1.03907,1.3459 1.00557,1.75229 l -0.0266,0.32204 z m -4.03419,0.43619 -0.16129,-0.1905 0.1905,0.16129 c 0.10478,0.0887 0.1905,0.17443 0.1905,0.1905 0,0.0678 -0.0681,0.0177 -0.21971,-0.16129 z m -0.42333,-0.508 -0.16129,-0.1905 0.1905,0.16129 c 0.10477,0.0887 0.1905,0.17443 0.1905,0.1905 0,0.0678 -0.0681,0.0177 -0.21971,-0.16129 z M 25.260749,52.19563 c -0.0686,-0.17877 0.03046,-6.7337 0.102856,-6.80612 0.02776,-0.0278 0.500414,-0.0639 1.050345,-0.0803 1.331702,-0.0397 1.809933,0.094 2.381734,0.66577 0.227873,0.22787 0.414315,0.44945 0.414315,0.49239 0,0.0429 -0.149323,0.004 -0.331827,-0.0861 -0.575716,-0.28484 -1.4516,-0.34977 -2.525673,-0.18722 l -0.275167,0.0416 v 3.00183 c 0,2.49056 -0.01983,3.00183 -0.116416,3.00183 -0.06403,0 -0.234893,0.0237 -0.379696,0.0527 -0.204419,0.0409 -0.276066,0.0193 -0.320471,-0.0964 z M 73.448334,52.0129 c -0.87567,-0.0741 -0.889,-0.0816 -0.889,-0.49997 v -0.38008 l 0.4445,0.0489 c 0.24447,0.0269 0.60642,0.0687 0.80433,0.0928 l 0.35983,0.0439 v 0.37581 c 0,0.41313 0.0636,0.38497 -0.71966,0.3187 z m -20.92071,-0.55672 -0.16129,-0.1905 0.1905,0.16129 c 0.10477,0.0887 0.1905,0.17444 0.1905,0.1905 0,0.0677 -0.0681,0.0177 -0.21971,-0.16129 z m 47.858426,-2.53999 c -0.0306,-1.08268 -0.0557,-2.37575 -0.0558,-2.87348 v -0.90498 l 0.3905,-0.0586 c 0.55831,-0.0837 1.87439,0.006 2.30063,0.15625 0.47392,0.16743 0.86946,0.44312 1.09869,0.76579 0.10155,0.14295 0.17258,0.27197 0.15783,0.28672 -0.0147,0.0147 -0.21368,-0.0578 -0.44207,-0.16128 -0.35901,-0.16261 -0.56432,-0.18855 -1.51592,-0.19152 l -1.10066,-0.003 v 2.47654 2.47654 l -0.38865,-4e-5 -0.38864,-4e-5 -0.0557,-1.9685 z m 15.85818,0.45512 c -0.74897,-0.67598 -1.05067,-1.23682 -1.05326,-1.95796 -0.003,-0.70923 0.068,-0.94515 0.39341,-1.31577 0.40344,-0.4595 0.8537,-0.65331 1.62467,-0.69933 1.11094,-0.0663 2.18043,0.26468 2.29204,0.70936 0.0745,0.29685 0.039,0.31861 -0.34598,0.21172 -0.47652,-0.13232 -1.54869,-0.11139 -1.98959,0.0388 -0.4429,0.15091 -0.9384,0.63276 -1.0763,1.04665 -0.22691,0.68104 -0.024,1.49338 0.54665,2.1887 0.12421,0.15134 0.2109,0.27516 0.19264,0.27516 -0.0182,0 -0.28118,-0.22382 -0.58428,-0.49737 z m 4.99891,0.33396 c -0.62226,-0.0473 -0.63557,-0.0532 -0.68848,-0.30225 -0.11965,-0.56325 -0.14868,-0.5418 0.70917,-0.52413 l 0.78317,0.0161 0.0591,-1.89359 c 0.0325,-1.04147 0.0755,-1.90996 0.0955,-1.92998 0.02,-0.02 0.21442,0.008 0.43201,0.0632 l 0.39562,0.0996 -0.0493,1.57635 c -0.0271,0.867 -0.0706,1.89069 -0.0966,2.27486 l -0.0473,0.6985 -0.47924,-0.0152 c -0.26358,-0.008 -0.76477,-0.037 -1.11376,-0.0635 z M 85.653644,48.57752 c -0.0302,-0.52388 -0.055,-1.53353 -0.0553,-2.24367 v -1.29117 h 2.19054 2.19054 l 0.17414,0.40217 0.17414,0.40217 -1.94134,0.0227 -1.94135,0.0227 v 1.81877 1.81877 h -0.36806 -0.36807 l -0.0549,-0.9525 z m -10.41936,-0.71358 c -0.0742,-0.21785 -0.13495,-0.40835 -0.13495,-0.42334 0,-0.015 0.50888,-0.0272 1.13084,-0.0272 h 1.13084 l 0.0515,-0.5715 c 0.0283,-0.31432 0.0774,-0.92461 0.10909,-1.3562 l 0.0576,-0.7847 0.30523,0.0513 c 0.56461,0.0948 0.61874,0.12499 0.57348,0.31962 -0.0233,0.10039 -0.0909,0.8588 -0.15004,1.68535 l -0.10759,1.50284 h -1.41551 -1.41552 z m 16.53067,-0.0892 c -0.37072,-0.0295 -0.40288,-0.0518 -0.52917,-0.36746 -0.0739,-0.18482 -0.13445,-0.35432 -0.13445,-0.37666 0,-0.0223 0.34217,-0.0406 0.76038,-0.0406 h 0.76037 l -0.0424,-0.35984 c -0.16853,-1.43166 -0.20839,-1.82802 -0.20839,-2.07211 0,-0.27036 0.009,-0.27739 0.36374,-0.27739 h 0.36375 l 0.14836,1.54517 c 0.0816,0.84984 0.16858,1.64994 0.19331,1.778 l 0.045,0.23283 -0.66289,-0.0153 c -0.3646,-0.008 -0.84052,-0.0294 -1.05761,-0.0467 z m -70.831121,-1.22459 -0.4445,-0.0811 v -0.35777 -0.35777 l 0.508,0.084 0.508,0.084 v 0.36488 c 0,0.20068 -0.02858,0.36036 -0.0635,0.35482 -0.03493,-0.005 -0.263525,-0.0465 -0.508,-0.0911 z m 16.785161,-0.36451 c -0.0466,-0.016 -0.26564,-0.0534 -0.48683,-0.0832 l -0.40217,-0.0542 v -0.38487 c 0,-0.28736 0.0288,-0.37381 0.11373,-0.34123 0.0626,0.024 0.32925,0.0706 0.59267,0.10348 l 0.47894,0.0598 v 0.37124 c 0,0.35668 -0.0507,0.41299 -0.29634,0.32889 z m 58.42,-0.0978 c -0.0931,-0.0197 -0.25506,-0.0541 -0.35983,-0.0765 -0.15974,-0.0341 -0.1905,-0.0964 -0.1905,-0.38565 v -0.345 l 0.4445,0.06 c 0.24447,0.033 0.47307,0.0769 0.508,0.0976 0.0349,0.0207 0.0635,0.1878 0.0635,0.37132 0,0.34759 -0.036,0.36909 -0.46567,0.27822 z m -49.86866,-0.10473 c -0.33057,-0.0503 -0.33931,-0.0604 -0.3653,-0.42357 l -0.0266,-0.3721 0.39829,0.0546 c 0.21905,0.03 0.48821,0.0546 0.59813,0.0546 0.18042,0 0.19985,0.037 0.19985,0.381 0,0.42291 -0.009,0.42638 -0.80433,0.30549 z m 11.34533,-0.0662 c -0.61773,-0.0771 -0.635,-0.0901 -0.635,-0.47817 v -0.36268 l 0.48683,0.0608 c 0.26776,0.0335 0.57256,0.064 0.67734,0.068 0.16827,0.006 0.1905,0.0516 0.1905,0.38814 0,0.4165 0.005,0.41434 -0.71967,0.32393 z m 23.5585,-0.0481 -0.48683,-0.0834 v -0.3771 c 0,-0.31866 0.023,-0.3706 0.14816,-0.33518 0.0815,0.0231 0.34819,0.0673 0.59267,0.0983 l 0.4445,0.0564 v 0.37306 c 0,0.2478 -0.0355,0.3694 -0.10583,0.36219 -0.0582,-0.006 -0.32491,-0.0484 -0.59267,-0.0943 z m -29.35817,-4.00585 c -0.85205,-0.183 -1.88314,-0.73335 -2.44716,-1.3062 -0.89966,-0.91374 -1.30525,-1.97755 -1.3079,-3.43047 -0.002,-1.04026 0.12287,-1.58934 0.54966,-2.41891 0.71176,-1.38347 1.96858,-2.25184 3.75574,-2.59493 0.80239,-0.15403 2.6254,-0.10638 3.75885,0.0983 1.06306,0.19193 1.02631,0.17017 0.98182,0.58139 -0.0211,0.19517 -0.0616,0.68823 -0.09,1.09569 l -0.0516,0.74083 h -0.53947 -0.53947 l -0.093,-0.35983 c -0.2953,-1.14312 -0.28093,-1.11392 -0.63439,-1.28937 -0.47784,-0.23719 -2.02144,-0.28837 -2.71965,-0.0902 -1.06003,0.30091 -1.89922,1.15131 -2.25641,2.28657 -0.27211,0.86484 -0.26579,2.44958 0.0133,3.34645 0.10852,0.34868 0.27387,0.78404 0.36744,0.96745 0.262,0.51356 0.97082,1.2091 1.49208,1.46414 0.87908,0.43009 2.72028,0.34221 3.35916,-0.16034 0.20935,-0.16467 0.21085,-0.17574 0.21085,-1.55171 0,-0.76222 -0.0326,-1.406 -0.0724,-1.43062 -0.0398,-0.0246 -0.43988,-0.0706 -0.889,-0.10216 l -0.81658,-0.0574 V 37.2408 36.82997 h 2.11667 2.11667 v 0.41242 0.41243 l -0.42334,0.0562 -0.42333,0.0562 v 1.76231 1.76231 l -0.86783,0.22511 c -1.91342,0.49634 -3.34456,0.60518 -4.55084,0.34611 z m 6.35,-0.20317 c 0,-0.32127 0.0129,-0.33692 0.3175,-0.38657 0.62729,-0.10222 0.56762,0.004 1.85717,-3.30478 0.67055,-1.72048 1.46913,-3.76633 1.77462,-4.54632 l 0.55544,-1.41816 h 0.87043 c 0.75593,0 0.87616,0.0195 0.91401,0.14816 0.024,0.0815 0.82368,2.1276 1.77713,4.54692 1.26101,3.19974 1.77685,4.4156 1.89245,4.46059 0.0874,0.034 0.30179,0.0851 0.47642,0.11359 0.30464,0.0496 0.3175,0.0653 0.3175,0.38657 v 0.33483 h -1.98967 -1.98966 v -0.33348 -0.33348 l 0.40216,-0.0542 c 0.84108,-0.11331 0.81212,-0.0373 0.42709,-1.12036 l -0.33862,-0.9525 h -2.13553 -2.13553 l -0.32164,0.94101 c -0.34678,1.01457 -0.33793,1.08695 0.13332,1.0897 0.12223,6.7e-4 0.34131,0.0251 0.48683,0.0542 0.24171,0.0483 0.26458,0.0813 0.26458,0.381 v 0.32808 h -1.778 -1.778 z m 6.94267,-3.29553 c 0,-0.0409 -0.36071,-1.06686 -0.80158,-2.27991 -0.44087,-1.21305 -0.84532,-2.37927 -0.89879,-2.59159 -0.0886,-0.3519 -0.24696,-0.46337 -0.24696,-0.17385 0,0.0658 -0.381,1.22291 -0.84667,2.57136 -0.46567,1.34845 -0.84667,2.47347 -0.84667,2.50004 0,0.0266 0.81915,0.0483 1.82034,0.0483 1.00118,0 1.82033,-0.0335 1.82033,-0.0744 z m 5.92667,3.29892 v -0.33144 l 0.65616,-0.0509 c 0.36089,-0.028 0.78952,-0.0789 0.9525,-0.11305 l 0.29634,-0.0622 v -4.14867 -4.14867 l -1.2065,-0.0235 c -0.66358,-0.0129 -1.20832,-0.0129 -1.21053,0 -0.002,0.0129 -0.12763,0.63309 -0.27869,1.37815 l -0.27465,1.35467 -0.52213,0.0251 -0.52213,0.0251 0.0401,-0.40612 c 0.0646,-0.65458 0.20686,-2.66265 0.20686,-2.9207 v -0.23708 h 4.56456 4.56455 l 0.0458,0.3175 c 0.0252,0.17463 0.0678,0.7366 0.0947,1.24883 0.0269,0.51224 0.0712,1.16946 0.0985,1.4605 l 0.0496,0.52917 h -0.51186 -0.51186 l -0.0901,-0.4445 c -0.0495,-0.24447 -0.17604,-0.8636 -0.28117,-1.37583 l -0.19111,-0.93134 -1.16417,-0.0236 -1.16417,-0.0236 v 4.18821 4.1882 l 0.35984,0.0447 c 0.1979,0.0246 0.6551,0.0683 1.016,0.0971 l 0.65616,0.0524 v 0.33144 0.33144 h -2.83633 -2.83633 z m 8.636,2.5e-4 c 0,-0.32471 0.007,-0.33229 0.35983,-0.38553 0.19791,-0.0299 0.46497,-0.0744 0.59347,-0.099 l 0.23363,-0.0447 -0.022,-4.1206 -0.022,-4.12063 -0.55034,-0.0869 -0.55033,-0.0869 -0.026,-0.35758 -0.026,-0.35759 h 3.76086 3.76085 l 0.0558,0.65617 c 0.0307,0.36089 0.0783,0.81809 0.10595,1.016 l 0.0502,0.35983 h -0.46394 -0.46394 l -0.2316,-0.635 -0.23159,-0.635 h -1.72708 -1.72708 v 1.86506 1.86506 l 1.16417,-0.0236 1.16417,-0.0236 0.12065,-0.52917 0.12065,-0.52917 h 0.45085 0.45085 v 1.524 1.524 h -0.45606 -0.45605 l -0.058,-0.40216 c -0.12398,-0.85932 0.005,-0.78317 -1.32505,-0.78317 h -1.17616 v 1.94733 1.94734 h 1.99245 1.99243 l 0.38129,-0.82151 c 0.2097,-0.45182 0.3969,-0.83712 0.41598,-0.85621 0.0715,-0.0715 0.89058,0.1746 0.89189,0.26799 8.5e-4,0.0536 -0.0842,0.58317 -0.18873,1.17689 l -0.1901,1.0795 h -4.08694 -4.08693 v -0.33122 z m 12.16224,-1.33803 c -0.31796,-0.92133 -0.9146,-2.64666 -1.32587,-3.83411 -0.41126,-1.18745 -0.85453,-2.47028 -0.98504,-2.85074 l -0.2373,-0.69173 -0.37284,-0.0559 c -0.57988,-0.087 -0.60519,-0.10858 -0.60519,-0.51701 v -0.37194 h 2.032 2.032 v 0.37182 c 0,0.41771 0.002,0.41631 -0.87291,0.52129 -0.31006,0.0372 -0.47878,0.0943 -0.4564,0.15444 0.46086,1.23884 2.0486,6.24912 2.17485,6.86296 0.0951,0.46247 0.18892,0.85684 0.20846,0.87639 0.0357,0.0357 0.0901,-0.14998 0.34211,-1.1669 0.075,-0.30269 0.50524,-1.66417 0.9561,-3.02552 l 0.81976,-2.47519 -0.19948,-0.58593 -0.19948,-0.58593 -0.47634,-0.0716 -0.47634,-0.0716 -0.0258,-0.40216 -0.0258,-0.40217 h 2.07897 2.07897 v 0.37427 c 0,0.41671 0.0243,0.40297 -0.91711,0.51915 -0.54374,0.0671 -0.59391,-0.27461 0.42195,2.87425 0.42065,1.30386 0.833132,2.58278 0.916652,2.84203 0.0835,0.25925 0.23757,0.8498 0.34234,1.31233 0.10478,0.46253 0.21824,0.87197 0.25212,0.90986 0.0339,0.0379 0.12895,-0.28597 0.21124,-0.71967 0.0823,-0.4337 0.565084,-2.1411 1.072834,-3.79422 0.50776,-1.65312 0.94386,-3.08663 0.96911,-3.18559 0.0418,-0.1639 0.002,-0.18495 -0.44743,-0.23625 -0.97591,-0.11141 -0.95903,-0.10222 -0.95903,-0.52189 v -0.37427 h 1.78264 1.78264 l -0.0258,0.40177 -0.0258,0.40176 -0.44413,0.0703 -0.44414,0.0703 -1.48804,4.52327 -1.488044,4.52326 h -0.79131 -0.791312 l -0.35814,-1.0795 c -0.69212,-2.08612 -1.77423,-5.21573 -1.81884,-5.26034 -0.0248,-0.0248 -0.0659,0.0294 -0.0914,0.12054 -0.0255,0.0911 -0.49222,1.51819 -1.03721,3.1713 l -0.99089,3.00567 -0.7596,0.0241 -0.75958,0.0241 -0.57811,-1.67508 z m 11.375096,1.33439 c 0,-0.32127 0.0128,-0.33692 0.3175,-0.38657 0.62731,-0.10222 0.5676,0.004 1.85681,-3.30478 0.67035,-1.72048 1.46814,-3.76633 1.77287,-4.54632 l 0.55403,-1.41816 h 0.86329 0.86327 l 1.13739,2.89983 c 2.41472,6.15643 2.42944,6.19196 2.59355,6.25583 0.0874,0.034 0.30183,0.0851 0.47645,0.1136 0.30465,0.0496 0.3175,0.0653 0.3175,0.38657 v 0.33483 h -1.98966 -1.98967 v -0.33348 -0.33348 l 0.40217,-0.0542 c 0.84107,-0.11331 0.81211,-0.0373 0.42709,-1.12036 l -0.33862,-0.9525 h -2.13401 -2.13401 l -0.32443,0.94022 c -0.35004,1.01447 -0.34111,1.08772 0.13306,1.09049 0.12224,6.7e-4 0.34132,0.0251 0.48683,0.0542 0.24171,0.0483 0.26459,0.0813 0.26459,0.381 v 0.32808 h -1.778 -1.778 z m 6.94266,-3.29553 c 0,-0.0409 -0.36071,-1.06686 -0.80158,-2.27991 -0.44086,-1.21305 -0.84532,-2.37927 -0.89878,-2.59159 -0.10827,-0.42995 -0.20447,-0.43893 -0.29274,-0.0273 -0.0323,0.15081 -0.41628,1.30893 -0.85319,2.5736 -0.4369,1.26467 -0.79437,2.32195 -0.79437,2.3495 0,0.0275 0.81915,0.0501 1.82033,0.0501 1.00118,0 1.82033,-0.0335 1.82033,-0.0744 z m 6.01134,3.29843 v -0.33192 l 0.5715,-0.0542 c 0.31432,-0.0298 0.67627,-0.074 0.80433,-0.0981 l 0.23283,-0.0439 V 39.64843 38.1623 l -1.65871,-2.64518 -1.65872,-2.64518 -0.43678,-0.0741 -0.43679,-0.0741 -0.026,-0.35984 -0.026,-0.35983 h 1.99454 1.99453 v 0.33296 c 0,0.36669 -0.0147,0.37647 -0.70518,0.47045 -0.33423,0.0455 -0.39904,0.0812 -0.35509,0.19574 0.0296,0.0771 0.46994,0.86805 0.9786,1.75777 0.50867,0.88972 1.0252,1.83685 1.14784,2.10473 0.12264,0.26789 0.25175,0.45518 0.28689,0.41621 0.0654,-0.0725 2.37228,-4.34008 2.37228,-4.38854 0,-0.0147 -0.20003,-0.0521 -0.4445,-0.0832 -0.72409,-0.0919 -0.74084,-0.10257 -0.74084,-0.47319 v -0.33296 h 1.69821 1.6982 l -0.026,0.35946 -0.026,0.35946 -0.42765,0.0677 -0.42765,0.0676 -1.54085,2.63233 -1.54085,2.63234 v 1.50268 c 0,1.68764 -0.0362,1.60184 0.67733,1.60687 0.16298,10e-4 0.43921,0.0257 0.61383,0.0546 0.30314,0.0501 0.3175,0.0673 0.3175,0.38007 v 0.32759 h -2.45533 -2.45533 z M 68.422624,29.03124 c -0.0426,-0.11123 -0.21481,-0.54227 -0.3827,-0.95786 -0.16788,-0.41559 -0.29185,-0.76901 -0.27548,-0.78538 0.0164,-0.0164 0.20715,0.39609 0.42397,0.91658 0.21682,0.52049 0.37563,0.96492 0.35293,0.98763 -0.0227,0.0227 -0.0761,-0.0497 -0.11872,-0.16097 z m -0.84487,-2.06853 c -0.14186,-0.31135 -0.1148,-0.37777 0.0386,-0.0947 0.0716,0.13217 0.1144,0.25616 0.095,0.27552 -0.0194,0.0194 -0.0795,-0.062 -0.13362,-0.1808 z M 29.383526,12.0846 C 25.170513,1.44122 25.23429,1.61743 25.231917,0.61383 l -0.0013,-0.52916 h 0.293387 c 0.929634,0 1.58059,1.51616 3.062573,7.13316 0.08293,0.31433 0.185809,0.5715 0.228617,0.5715 0.04281,0 0.333937,-0.24159 0.646955,-0.53688 0.595557,-0.56182 1.553503,-1.31213 2.414801,-1.8914 2.522501,-1.69652 5.640854,-2.67916 9.077764,-2.86055 3.10013,-0.16362 7.2206,1.42805 10.22623,3.95021 2.0477,1.71831 4.22221,4.40422 5.98478,7.39229 0.98278,1.6661 0.99879,1.77742 0.0399,0.27769 -1.27004,-1.98643 -2.58699,-3.64132 -4.03493,-5.07031 -1.07267,-1.05863 -1.78842,-1.64249 -2.93042,-2.39044 -2.95468,-1.93513 -6.18602,-2.88646 -9.29626,-2.73686 -3.7337,0.17957 -7.530998,1.89046 -10.902817,4.9123 l -0.819733,0.73465 0.157589,0.57015 c 0.641898,2.32238 1.443489,5.3781 1.4176,5.40399 -0.01725,0.0173 -0.65319,-1.53956 -1.413196,-3.45957 z"
     id="black" />
</svg>
