<?xml version="1.0" encoding="UTF-8"?>
<!-- Created with Inkscape (http://www.inkscape.org/) -->
<svg width="84.8" height="54.4" version="1.1" viewBox="0 0 84.800003 54.400002" xmlns="http://www.w3.org/2000/svg" xmlns:cc="http://creativecommons.org/ns#" xmlns:dc="http://purl.org/dc/elements/1.1/" xmlns:rdf="http://www.w3.org/1999/02/22-rdf-syntax-ns#">
 <metadata>
  <rdf:RDF>
   <cc:Work rdf:about="">
    <dc:format>image/svg+xml</dc:format>
    <dc:type rdf:resource="http://purl.org/dc/dcmitype/StillImage"/>
    <dc:title/>
   </cc:Work>
  </rdf:RDF>
 </metadata>
 <g stroke-width=".32">
  <path d="m24.8 52.324c-2.9964-0.47108-7.6-1.4708-7.4524-1.6184 0.05627-0.05627 1.1081 0.0272 2.3374 0.18551 3.4257 0.44114 13.589 0.34981 18.235-0.16388 2.288-0.25295 6.896-0.83538 10.24-1.2943 4.0756-0.55932 8.2573-0.89418 12.685-1.0157 8.7894-0.24132 12.239 0.24761 18.929 2.6828 3.0254 1.1013 4.0633 1.705 1.8058 1.0502-2.4908-0.72243-7.4277-1.5677-11.261-1.9281-4.5618-0.42885-9.9904-0.1426-18.798 0.99121-12.891 1.6595-21.067 1.9994-26.72 1.1107zm-21.992-0.97183c2.7528-1.2631 12.54-3.6578 21.032-5.1461 10.863-1.9039 26.086-2.9492 34.657-2.3798 9.2314 0.61326 15.344 1.5656 22.071 3.4388 1.6321 0.45449 2.9171 0.87676 2.8555 0.93838-0.06162 0.06162-2.117-0.17377-4.5675-0.52308-6.3528-0.90558-18.06-1.8504-25.895-2.0898-14.273-0.43614-32.479 1.4868-45.44 4.7994-5.9613 1.5236-5.9142 1.514-4.7115 0.96216zm-1.3694-4.3923c0.46601-2.9435 2.199-10.546 3.3737-14.8 3.053-11.056 6.4009-18.547 10.415-23.303l1.032-1.2226-0.66827-1.8349c-0.36755-1.0092-0.58506-2.0517-0.48336-2.3168 0.1017-0.26503 0.78895-0.66285 1.5272-0.88404 1.2033-0.36052 1.3874-0.34194 1.7782 0.17937 0.23974 0.31984 0.52547 0.97449 0.63496 1.4548l0.19908 0.87326 1.6446-0.83339c1.7733-0.89861 3.8515-1.2305 7.5009-1.1977 1.9924 0.017868 2.6405 0.18243 4.6712 1.186 4.2116 2.0815 8.4361 7.2784 11.753 14.459 0.69407 1.5023 1.2619 2.8729 1.2619 3.0457s-0.71445 0.3142-1.5877 0.3142h-1.5877l-0.36366-1.3505c-1.1125-4.1315-3.7689-9.3065-6.0445-11.776l-1.3215-1.4339 1.294 1.76c1.6381 2.2281 3.646 6.3137 4.8425 9.8534 1.0858 3.2122 1.0419 2.9466 0.48733 2.9466-0.2741 0-0.88896-1.3024-1.624-3.44-1.5363-4.4678-3.6043-8.24-5.843-10.658-2.3149-2.5004-3.2519-2.9782-5.8519-2.9839-2.3316-0.0051143-4.8672 0.96105-7.0415 2.6831l-1.2265 0.97139 0.66605 2.4737c0.71961 2.6727 1.0152 3.0762 1.9046 2.6001 0.94792-0.50731 1.6579 0.14724 2.9119 2.6844 1.188 2.4037 3.8204 5.7144 5.4245 6.8221 1.2402 0.85642 1.112 1.7638-0.44814 3.1733-2.7708 2.5033-9.1923 4.5595-11.846 3.7931l-1.0651-0.30757 0.0951-4.7859c0.06935-3.4901-0.03634-5.3058-0.39038-6.7059l-0.48548-1.92 0.97069-0.89364c0.9078-0.83574 0.94713-0.96503 0.60703-1.9955-0.20001-0.60605-0.49251-1.1815-0.64999-1.2789-0.40492-0.25025-2.4201 3.8748-3.8539 7.8887-1.3973 3.9118-2.3988 8.7857-3.8056 18.519-0.54689 3.784-1.031 7.0081-1.0758 7.1647-0.044814 0.1566-1.482 0.67628-3.1938 1.1549-2.6531 0.74174-3.0902 0.79416-2.9622 0.35528 0.082595-0.28317 0.24688-1.0909 0.36508-1.7949 0.52821-3.1461 2.516-11.59 3.6913-15.68 2.1837-7.5995 5.3792-15.011 8.165-18.937 1.4829-2.0901 1.9288-3.3393 0.64499-1.8072-5.0601 6.039-9.8138 19.005-13.031 35.545-0.50704 2.6063-0.82823 3.6-1.1636 3.6-0.36544 0-0.41779-0.28714-0.24794-1.36zm27.521-24.608c0.21293-0.21147 0.1037-0.49759-0.32645-0.8551-0.35554-0.29551-1.2794-1.5453-2.0531-2.7773s-1.6348-2.4307-1.9136-2.6637c-0.27879-0.23305-0.32689-0.33255-0.10689-0.22111 0.5071 0.25686 0.4926-0.10723-0.04269-1.0727-0.35503-0.64034-0.4512-0.6763-0.62155-0.23236-0.12224 0.31856 0.53265 1.9674 1.6646 4.191 1.0264 2.0162 1.7921 3.7398 1.7016 3.8303-0.22587 0.22587-0.96088-0.86224-2.372-3.5114-1.5929-2.9905-1.5275-2.3932 0.12795 1.1699l1.3379 2.8796 1.1421-0.20965c0.62815-0.11531 1.2861-0.35267 1.4621-0.52746zm-5.4855-18.512c0.17169 0 0.22631-0.085853 0.12138-0.19078-0.2326-0.2326-4.0759 1.7778-4.0759 2.132 0 0.13864 0.81953-0.24142 1.8212-0.84458 1.0016-0.60316 1.9616-1.0967 2.1333-1.0967zm-9.2522 40.584c-0.14898-0.46938-0.05192-0.8191 0.29844-1.0753 0.7405-0.54146 0.77508-9.1384 0.03922-9.7491-0.264-0.2191-0.48-0.74073-0.48-1.1592 0-0.74326 0.06462-0.76078 2.8-0.75903 1.54 9.92e-4 3.3205 0.14635 3.9566 0.32305 1.6921 0.47003 2.8437 1.6612 2.8422 2.9399-0.0012 1.0894-1.0318 3.1353-1.5794 3.1353-0.35334 0 0.73557 1.8556 1.8423 3.1395 0.49576 0.57512 0.79644 0.72783 0.90667 0.46048 0.0907-0.22 0.36892-0.4 0.61825-0.4 0.68322 0 0.65845-7.4314-0.02667-8-0.264-0.2191-0.48-0.66873-0.48-0.99918 0-0.53112 0.26252-0.60082 2.2629-0.60082 1.5345 0 2.41 0.14715 2.72 0.45714 0.63191 0.63191 0.57178 1.0382-0.18286 1.2356-0.5933 0.15515-0.64 0.43648-0.64 3.8558 0 3.4074 0.04877 3.7039 0.64 3.8915 0.86375 0.27414 0.81238 1.0746-0.08 1.2466-2.987 0.57586-4.3957 0.69329-4.5276 0.37744-0.09627-0.23056-0.23659-0.21292-0.42538 0.05349-0.15495 0.21865-0.9275 0.48605-1.7168 0.59423-1.6705 0.22897-1.7903 0.12377-2.8205-2.4759-0.58413-1.4741-0.82788-1.7746-1.3323-1.6427-0.50204 0.13129-0.61739 0.44938-0.61739 1.7026 0 1.2601 0.11671 1.5782 0.64 1.7442 0.352 0.11172 0.64 0.46988 0.64 0.79591 0 0.47164-0.45433 0.69612-2.2232 1.0984-2.816 0.64048-2.8108 0.6408-3.0745-0.18997zm5.7595-7.6956c0.73451-1.0487 0.64645-2.7069-0.16686-3.1422-1.195-0.63955-1.575-0.17552-1.575 1.9233 0 1.6979 0.07478 1.93 0.62185 1.93 0.34202 0 0.84602-0.32004 1.12-0.7112zm58.098 7.468c-0.44-0.14376-1.412-0.55777-2.16-0.92004-1.0026-0.48555-1.36-0.54814-1.36-0.23815 0 0.5504-2.5054 0.26345-3.2362-0.37066-0.28393-0.24636-0.91213-1.3794-1.396-2.5179-0.63955-1.5048-1.0447-2.07-1.4838-2.07-0.50115 0-0.60399 0.24152-0.60399 1.4184 0 1.1374 0.12681 1.4587 0.64 1.6216 0.69259 0.21982 0.89655 1.4416 0.24 1.4376-1.2912-0.0078-4.5829-0.73401-4.7878-1.0563-0.39483-0.621-0.2868-1.1813 0.22777-1.1813 0.39729 0 0.48-0.60064 0.48-3.4858 0-2.8033-0.09398-3.5218-0.48-3.67-0.264-0.10131-0.48-0.47671-0.48-0.83424 0-0.604 0.19833-0.64992 2.8-0.64826 3.1004 2e-3 4.6391 0.33478 5.84 1.2632 0.64969 0.50227 0.8 0.89766 0.8 2.1045 0 1.2184-0.15594 1.6201-0.8659 2.2308-0.67576 0.58127-0.77665 0.81888-0.45946 1.0821 0.22354 0.18552 0.74581 1.0619 1.1606 1.9475 0.41479 0.88559 0.85924 1.6102 0.98767 1.6102s0.36065-0.54 0.51604-1.2c0.20881-0.88689 0.46804-1.2267 0.99352-1.3025 0.57851-0.08338 0.82945 0.17386 1.3467 1.3805 0.58975 1.3758 0.71098 1.4757 1.6783 1.3825 0.94086-0.09066 1.036-0.19415 0.97498-1.0605-0.03719-0.528-0.31-1.104-0.60624-1.28-1.5239-0.90536-3.2407-2.3882-3.9057-3.3735-1.8843-2.7918 1.2168-5.7472 5.0245-4.7884 2.0162 0.50768 2.275 0.80361 2.275 2.6011 0 1.364-0.08334 1.5608-0.66104 1.5608-1.1022 0-1.899-0.60889-1.899-1.4513 0-0.6097-0.16707-0.78874-0.736-0.78874-0.80857 0-1.504 0.54195-1.504 1.1721 0 0.22224 0.86113 0.98886 1.9136 1.7036 2.3942 1.6259 3.5289 3.2246 3.5193 4.9586-0.01021 1.8422-0.82834 2.7646-2.5794 2.9081-0.77744 0.06369-1.7735-0.0019-2.2135-0.14557zm-8.64-8.0368c1.1717-1.1717 0.65926-2.88-0.864-2.88-0.67879 0-0.736 0.13681-0.736 1.76 0 1.9575 0.44855 2.2714 1.6 1.12zm-38.536 5.5482c-0.29964-0.78085-0.2198-0.98429 0.4556-1.1609 0.59041-0.15439 0.64-0.43648 0.64-3.6403 0-3.11-0.06595-3.5142-0.63106-3.8671-0.38085-0.23784-0.55534-0.59142-0.44009-0.89175 0.14782-0.3852 0.59617-0.47623 1.9842-0.40287l1.7932 0.09478 2.2469 2.779 2.2469 2.779 0.09601-1.9276c0.08055-1.6173-0.0096-2.0192-0.56-2.4966-0.36081-0.31293-0.65601-0.73207-0.65601-0.93142 0-0.54802 3.4616-0.46655 4.0229 0.09468 0.59466 0.59466 0.5837 1.1429-0.02285 1.1429-0.38227 0-0.48057 0.47235-0.48278 2.32-0.0016 1.276-0.09359 3.076-0.20457 4-0.19736 1.6431-0.22476 1.68-1.2485 1.68-0.91653 0-1.3007-0.30844-3.0893-2.48-1.1234-1.364-2.2884-2.836-2.5887-3.2712-0.53376-0.77333-0.5461-0.72895-0.5461 1.9653 0 2.6734 0.02413 2.7626 0.8 2.9573 0.83066 0.20848 1.0993 1.0763 0.4 1.2921-0.22 0.06788-1.217 0.19583-2.2156 0.28432-1.4249 0.12627-1.8553 0.05748-2-0.31964zm29.256-0.1165c-1.144-0.13028-2.9703-0.25371-4.0584-0.27428-1.7332-0.03276-2.0058-0.12362-2.1992-0.73302-0.14898-0.46938-0.05192-0.81909 0.29844-1.0753 0.41031-0.30002 0.51922-0.96559 0.51922-3.1731 0-2.4987-0.07487-2.8541-0.70962-3.368-0.60733-0.49178-0.64781-0.64909-0.28082-1.0913 0.34807-0.4194 1.1049-0.51668 4.02-0.51668 3.9903 0 4.452 0.20777 4.8466 2.181 0.18753 0.93763 0.13694 1.019-0.63349 1.019-0.49073 0-1.0027-0.2649-1.237-0.64-0.28455-0.45563-0.74625-0.64-1.6027-0.64-1.1616 0-1.203 0.03861-1.203 1.12 0 1.2587 0.73689 1.5402 1.466 0.56 0.74131-0.99663 1.5584-0.11974 1.6707 1.793 0.08499 1.4472 0.02176 1.647-0.52082 1.647-0.33964 0-0.7968-0.216-1.0159-0.48-0.48234-0.58118-1.6017-0.63731-1.5956-0.08 0.01536 1.4071 0.39692 1.84 1.6217 1.84 0.90391 0 1.3225-0.17021 1.5739-0.64 0.73485-1.3731 2.3551-0.15002 2.1825 1.6474-0.11682 1.2164-0.19758 1.2396-3.1425 0.90424zm-12.96-0.6416c-3.0069-0.44456-4.64-2.133-4.64-4.7971 0-1.5012 0.12013-1.7883 1.2-2.8674 1.4274-1.4263 3.6665-2.0362 6.3277-1.7234 2.0044 0.23558 2.8088 0.91685 2.6563 2.2495-0.08706 0.76042-0.2701 0.92438-1.1243 1.0071-0.80259 0.07772-1.1348-0.07591-1.5568-0.72-0.57063-0.87089-1.643-1.066-2.7127-0.49358-0.80454 0.43058-1.4068 2.5266-1.1379 3.96 0.23914 1.2747 0.93643 1.7948 2.4066 1.7948 0.84629 0 0.98104-0.11571 0.98104-0.84246 0-0.46336-0.30506-1.107-0.67791-1.4304-1.2034-1.0437-0.57413-1.5671 1.8839-1.5671 1.2736 0 2.3463 0.16028 2.57 0.384 0.54043 0.54043 0.4782 1.536-0.096 1.536-0.36187 0-0.48 0.38893-0.48 1.5804v1.5804l-1.52 0.19301c-0.836 0.10615-1.808 0.22732-2.16 0.26927-0.352 0.04194-1.216-0.0089-1.92-0.11298zm-12.925-10.677c-1.634-0.90564-2.0915-3.1212-1.0107-4.8938 0.72778-1.1936 2.2395-1.7267 4.1641-1.4686 1.0962 0.14703 1.2913 0.28773 1.2913 0.93107 0 0.46032-0.18845 0.75787-0.48 0.75787-0.264 0-0.48-0.21326-0.48-0.4739 0-0.70683-1.571-0.98569-2.5277-0.44869-2.4727 1.3879-1.0274 5.9627 1.6699 5.2857 0.69044-0.17329 0.85783-0.40144 0.85783-1.1692 0-0.74057-0.14313-0.9539-0.64-0.9539-0.352 0-0.64-0.144-0.64-0.32s0.648-0.32 1.44-0.32 1.44 0.144 1.44 0.32-0.144 0.32-0.32 0.32-0.32 0.50756-0.32 1.1279c0 0.91631-0.154 1.1865-0.82083 1.44-1.1322 0.43045-2.7104 0.37188-3.6239-0.13448zm5.0848 0.12656c0-0.176 0.12688-0.32 0.28195-0.32s0.82728-1.44 1.4938-3.2c0.86551-2.2854 1.364-3.2 1.7442-3.2 0.38022 0 0.87874 0.91458 1.7442 3.2 0.66653 1.76 1.3387 3.2 1.4938 3.2s0.28195 0.144 0.28195 0.32-0.576 0.32-1.28 0.32c-1.1726 0-1.751-0.42965-0.94169-0.69944 0.18607-0.06202 0.24267-0.36202 0.12576-0.66667-0.15579-0.40598-0.57882-0.5539-1.5841-0.5539-1.0053 0-1.4283 0.14792-1.5841 0.5539-0.1169 0.30464-0.06031 0.60464 0.12576 0.66667 0.76142 0.25381 0.26339 0.69944-0.78169 0.69944-0.616 0-1.12-0.144-1.12-0.32zm4.48-2.3323c0-0.05076-0.26478-0.84416-0.58841-1.7631l-0.58841-1.6708-0.39442 1.3164c-0.21693 0.72404-0.47155 1.5175-0.56583 1.7631-0.12716 0.33138 0.12656 0.44669 0.98283 0.44669 0.63483 0 1.1542-0.04153 1.1542-0.09228zm4.16 2.3323c0-0.176 0.216-0.32 0.48-0.32 0.39111 0 0.48-0.53333 0.48-2.88 0-2.8587-0.0059-2.88-0.8-2.88-0.67556 0-0.8 0.14933-0.8 0.96 0 0.65651-0.15785 0.96-0.49932 0.96-0.38131 0-0.47584-0.2836-0.4-1.2l0.09932-1.2 3.12-0.09159 3.12-0.09159v1.2916c0 1.5067-0.56851 1.729-0.848 0.33159-0.14866-0.7433-0.36356-0.96-0.952-0.96-0.7437 0-0.76 0.06175-0.76 2.88 0 2.6667 0.04741 2.88 0.64 2.88 0.352 0 0.64 0.144 0.64 0.32s-0.792 0.32-1.76 0.32-1.76-0.144-1.76-0.32zm5.44 0c0-0.176 0.216-0.32 0.48-0.32 0.38916 0 0.48-0.51667 0.48-2.73 0-2.1315-0.10524-2.7704-0.48-2.9142-1.1526-0.4423-0.28998-0.75572 2.08-0.75572 2.5173 0 2.56 0.01333 2.56 0.8 0 0.88-0.46524 1.077-0.75572 0.32-0.11561-0.30128-0.60495-0.48-1.3142-0.48-1.105 0-1.13 0.02831-1.13 1.28 0 1.152 0.08 1.28 0.8 1.28 0.44 0 0.8-0.144 0.8-0.32s0.216-0.32 0.48-0.32c0.32 0 0.48 0.32 0.48 0.96s-0.16 0.96-0.48 0.96c-0.264 0-0.48-0.144-0.48-0.32s-0.36-0.32-0.8-0.32c-0.72 0-0.8 0.128-0.8 1.28v1.28h1.4184c1.1601 0 1.4573-0.12245 1.6318-0.67221 0.14223-0.44814 0.32002-0.56555 0.53335-0.35221 0.176 0.176 0.22399 0.6225 0.10665 0.99221-0.19454 0.61294-0.45129 0.67221-2.9118 0.67221-1.5856 0-2.6984-0.13196-2.6984-0.32zm7.5153-2.5747c-0.50879-1.5921-1.1119-3.0497-1.3402-3.2392-0.75294-0.62488-0.43481-0.90615 1.0249-0.90615 1.4383 0 1.8566 0.37504 0.97107 0.87062-0.40232 0.22515-0.36168 0.60071 0.28613 2.6439l0.75506 2.3815 0.67873-2.1975c0.6084-1.9698 0.62849-2.253 0.19387-2.7332-0.7442-0.82233-0.60267-0.96537 0.95514-0.96537 1.4326 0 1.8572 0.37474 0.98048 0.86536-0.39 0.21826-0.35047 0.59344 0.26138 2.4802 0.39649 1.2227 0.80164 2.0861 0.90033 1.9187 0.09869-0.16736 0.4241-1.1564 0.72314-2.1979 0.49658-1.7295 0.49939-1.9184 0.03246-2.1797-0.77141-0.4317-0.2782-0.88677 0.96111-0.88677 1.1982 0 1.3188 0.1641 0.68695 0.9348-0.22778 0.27786-0.81272 1.7652-1.2998 3.3052-1.1168 3.5306-1.7398 3.7409-2.606 0.88-0.31973-1.056-0.68356-1.92-0.8085-1.92-0.12494 0-0.46959 0.864-0.76589 1.92-0.80961 2.8854-1.4315 2.6514-2.5903-0.97466zm8.1647 2.5747c0-0.176 0.12688-0.32 0.28195-0.32s0.82728-1.44 1.4938-3.2c0.86551-2.2854 1.364-3.2 1.7442-3.2 0.38022 0 0.87874 0.91458 1.7442 3.2 0.66653 1.76 1.3387 3.2 1.4938 3.2s0.28195 0.144 0.28195 0.32-0.576 0.32-1.28 0.32c-1.1726 0-1.751-0.42965-0.94169-0.69944 0.18607-0.06202 0.24267-0.36202 0.12576-0.66667-0.15579-0.40598-0.57882-0.5539-1.5841-0.5539-1.0053 0-1.4283 0.14792-1.5841 0.5539-0.1169 0.30464-0.06031 0.60464 0.12576 0.66667 0.76142 0.25381 0.26339 0.69944-0.78169 0.69944-0.616 0-1.12-0.144-1.12-0.32zm4.4696-2.32c-0.0058-0.044-0.27126-0.83496-0.59004-1.7577l-0.57959-1.6777-0.39278 1.311c-0.21603 0.72104-0.46992 1.512-0.5642 1.7577-0.12716 0.33138 0.12656 0.44669 0.98283 0.44669 0.63483 0 1.1495-0.036 1.1438-0.08zm3.8504 2.32c0-0.176 0.288-0.32 0.64-0.32 1.0448 0 0.81376-1.702-0.52548-3.8718-0.64101-1.0385-1.289-1.8882-1.44-1.8882-0.15098 0-0.27452-0.144-0.27452-0.32s0.576-0.32 1.28-0.32 1.28 0.144 1.28 0.32-0.14693 0.32-0.3265 0.32c-0.3391 0 0.75327 2.3904 1.2258 2.6825 0.14766 0.09126 0.57985-0.47497 0.96041-1.2583 0.38057-0.78332 0.54981-1.4242 0.3761-1.4242s-0.31584-0.144-0.31584-0.32 0.504-0.32 1.12-0.32 1.12 0.144 1.12 0.32-0.13343 0.32-0.29652 0.32c-0.16308 0-0.73908 0.77353-1.28 1.719-1.0815 1.8902-1.3494 4.041-0.50348 4.041 0.264 0 0.48 0.144 0.48 0.32s-0.792 0.32-1.76 0.32-1.76-0.144-1.76-0.32z" fill="#a7a8ab"/>
  <path d="m24.8 52.324c-2.9964-0.47108-7.6-1.4708-7.4524-1.6184 0.05627-0.05627 1.1081 0.0272 2.3374 0.18551 3.4257 0.44114 13.589 0.34981 18.235-0.16388 2.288-0.25295 6.896-0.83538 10.24-1.2943 4.0756-0.55932 8.2573-0.89418 12.685-1.0157 8.7894-0.24132 12.239 0.24761 18.929 2.6828 3.0254 1.1013 4.0633 1.705 1.8058 1.0502-2.4908-0.72243-7.4277-1.5677-11.261-1.9281-4.5618-0.42885-9.9904-0.1426-18.798 0.99121-12.891 1.6595-21.067 1.9994-26.72 1.1107zm-21.992-0.97183c2.7528-1.2631 12.54-3.6578 21.032-5.1461 10.863-1.9039 26.086-2.9492 34.657-2.3798 9.2314 0.61326 15.344 1.5656 22.071 3.4388 1.6321 0.45449 2.9171 0.87676 2.8555 0.93838-0.06162 0.06162-2.117-0.17377-4.5675-0.52308-6.3528-0.90558-18.06-1.8504-25.895-2.0898-14.273-0.43614-32.479 1.4868-45.44 4.7994-5.9613 1.5236-5.9142 1.514-4.7115 0.96216zm-1.5285-3.273c0-0.61234 1.3238-7.0459 2.2102-10.742 3-12.508 6.9089-22.271 11.035-27.562l1.7346-2.2244-0.60993-1.5474c-1.0234-2.5963-0.84069-2.972 1.7625-3.6254 0.64314-0.16142 0.82389 0.00597 1.3314 1.2329l0.58718 1.4197 1.9345-0.9152c1.064-0.50336 2.1505-0.90436 2.4145-0.89111 0.264 0.013251 0.04611 0.19314-0.48421 0.39975-1.5951 0.62144-3.6761 1.9107-3.6714 2.2746 0.0024 0.18759 0.08909 0.657 0.19263 1.0431l0.18826 0.70206 0.68737-0.6526c1.3322-1.2648 3.8713-2.4791 5.9667-2.8536 1.7931-0.32044 2.392-0.29934 3.8935 0.13715 1.7216 0.50049 5.3872 2.8805 5.3872 3.4979 0 0.16799-0.2477 0.1078-0.55045-0.13375-0.30274-0.24155-0.05217 0.16224 0.55683 0.89732 0.609 0.73508 1.1693 1.2745 1.245 1.1987 0.07577-0.075771-0.1999-0.4972-0.61261-0.9365-0.41271-0.43931-0.61728-0.79312-0.4546-0.78626 0.16268 0.00686 0.78862 0.69086 1.391 1.52 0.66306 0.9127 0.82089 1.267 0.4 0.89792-0.8979-0.78734-0.88044-0.47195 0.05623 1.016 0.98294 1.5614 1.9401 3.7127 3.279 7.3695 1.2586 3.4377 1.225 3.2641 0.63355 3.2641-0.29012 0-0.76082-0.96038-1.2939-2.64-1.3427-4.2305-3.8436-8.9258-6.0185-11.299-2.4285-2.6503-3.3563-3.1369-5.9916-3.1427-2.3297-0.0051101-4.867 0.96088-7.0359 2.6787l-1.2209 0.967 0.67579 2.5664c0.61718 2.3439 0.7573 2.5875 1.6157 2.81 0.77681 0.20129 1.1122 0.63064 1.9326 2.4739 0.54599 1.2267 1.3924 2.9382 1.881 3.8033 0.48856 0.8651 0.84138 1.7136 0.78406 1.8856-0.10647 0.31942-1.5391-1.8039-2.7683-4.103-1.0746-2.0099-0.40145 0.03779 0.80277 2.4419 0.58457 1.167 0.96169 2.2305 0.83804 2.3633-0.23391 0.25126 3.1743-0.09762 3.4275-0.35086 0.07916-0.07916-0.28574-0.60977-0.81089-1.1791-2.0314-2.2025-1.7453-2.199 0.40013 0.0048 1.2422 1.276 2.425 2.32 2.6285 2.32s0.36994 0.34878 0.36994 0.77506c0 0.88064-1.9438 2.7209-3.9846 3.7723-3.2118 1.6547-7.7876 2.5692-9.5089 1.9003l-0.85348-0.33166 0.15814-4.898c0.11896-3.6845 0.04358-5.3186-0.30423-6.5957l-0.46236-1.6977 0.93327-0.93327c0.8917-0.8917 0.91606-0.99069 0.54706-2.2223-0.21242-0.70898-0.50581-1.2891-0.65199-1.2891-0.4392 0-2.7094 4.7917-3.9256 8.2857-1.3853 3.98-2.3629 8.7916-3.7127 18.274-0.56368 3.96-1.1531 7.3368-1.3098 7.504-0.38761 0.41363-0.3671-0.04133 0.19355-4.2921 2.1171-16.052 3.4425-21.567 6.8027-28.311 1.3615-2.7324 1.4076-2.9161 1.0402-4.1424l-0.38447-1.2832-0.62128 0.78241c-5.4496 6.8629-10.156 19.9-13.425 37.182-0.25832 1.3661-0.5633 2.16-0.82975 2.16-0.23171 0-0.42129-0.10828-0.42129-0.24063zm23.04-21.322c0-0.28408-1.2946-0.43255-1.4586-0.16728-0.09856 0.15948 0.18929 0.28996 0.63968 0.28996s0.81889-0.05521 0.81889-0.12268zm-10.038 17.643c-0.12065-0.45168-0.01531-0.8524 0.28268-1.0753 0.71133-0.53204 0.69298-9.2325-0.02098-9.9464-0.27279-0.27279-0.4494-0.73051-0.39247-1.0171 0.16171-0.81417 6.4109-0.73042 7.8212 0.10481 1.08 0.63964 1.708 1.6811 1.7061 2.8291-0.0015 0.86806-1.1328 2.7849-1.6437 2.7849-0.24078 0-0.19868 0.19977 0.11801 0.56 0.27077 0.308 0.80002 1.172 1.1761 1.92 0.37608 0.748 0.82486 1.36 0.99728 1.36 0.17242 0 0.3135 0.27918 0.3135 0.62039 0 0.48848-0.30135 0.66558-1.4173 0.83292-0.7795 0.1169-1.5655 0.12092-1.7467 9e-3 -0.18118-0.11197-0.64431-1.0672-1.0292-2.1228-0.76737-2.1046-0.94416-2.3156-1.698-2.0263-0.37103 0.14236-0.50888 0.62751-0.50888 1.791 0 1.3266 0.10794 1.6239 0.64 1.7631 0.352 0.09205 0.64 0.42703 0.64 0.74439 0 0.45214-0.48115 0.68646-2.2232 1.0827-2.8174 0.6408-2.7855 0.64306-3.0145-0.21435zm5.6995-7.6712c0.73451-1.0487 0.64645-2.7069-0.16686-3.1422-1.195-0.63955-1.575-0.17552-1.575 1.9233 0 1.6979 0.07478 1.93 0.62185 1.93 0.34202 0 0.84602-0.32004 1.12-0.7112zm57.778 7.3013c-2.5834-0.97305-2.8687-1.1534-3.0658-1.9387-0.29648-1.1813 0.09521-2.4113 0.76785-2.4113 0.72353 0 1.3379 0.60668 1.3379 1.3211 0 1.3064 1.7398 2.0134 2.6687 1.0845 0.76663-0.76663 0.25154-1.7047-1.617-2.945-2.2996-1.5264-3.4396-3.2247-3.1914-4.7541 0.40237-2.4795 3.245-3.3307 6.6998-2.0062 0.79365 0.30426 0.88 0.49056 0.88 1.8985 0 1.3658-0.08296 1.5612-0.66286 1.5612-0.8489 0-1.5771-0.72825-1.5771-1.5771 0-0.51265-0.20303-0.66286-0.896-0.66286-0.95648 0-1.664 0.50371-1.664 1.1847 0 0.22916 0.89034 1.0721 1.9785 1.8732 2.4276 1.7871 3.4615 3.1339 3.4615 4.5093 0 2.8256-2.1006 4.0002-5.12 2.8629zm-4.9017-0.82002c-1.5614-0.30207-1.9457-0.70695-2.8971-3.0517-0.56092-1.3825-0.96585-1.9469-1.4497-2.0206-0.59763-0.09102-0.67143 0.05611-0.67143 1.3384 0 1.1597 0.12485 1.4803 0.64 1.6438 0.365 0.11584 0.64 0.48417 0.64 0.85718 0 0.56138-0.14735 0.62862-1.04 0.47459-0.572-0.0987-1.7143-0.27363-2.5385-0.38872-1.6491-0.23029-2.2661-0.97579-1.3575-1.6402 0.45163-0.33024 0.52907-0.92121 0.47837-3.6503-0.04352-2.3429-0.18979-3.3856-0.52145-3.7173-0.25352-0.25353-0.46095-0.68706-0.46095-0.96342 0-0.75382 6.5511-0.41682 7.9489 0.4089 1.8529 1.0946 2.11 3.6401 0.49579 4.9099-0.47286 0.37195-0.65193 0.70134-0.44935 0.82654 0.18524 0.11449 0.71233 0.95397 1.1713 1.8655s1.0322 1.7725 1.2739 1.9133c0.45366 0.26419 0.62606 1.5327 0.19942 1.4673-0.132-0.02022-0.78978-0.14316-1.4617-0.27316zm-3.3635-6.9396c0.73595-0.66602 0.78845-2.5239 0.07902-2.7962-1.4286-0.54819-1.7338-0.27251-1.7338 1.5658 0 1.9244 0.48746 2.2868 1.6548 1.2304zm-44.346 6.0891c-0.1413-0.36822-0.04052-0.71652 0.27383-0.94638 0.72648-0.53122 0.71833-7.1785-0.01017-8.2904-0.27917-0.42607-0.41467-0.925-0.30111-1.1087 0.32117-0.51967 4.2899-0.41858 4.8316 0.12307 0.63191 0.63191 0.57178 1.0382-0.18286 1.2356-0.59314 0.15511-0.64 0.43648-0.64 3.8431 0 2.9721 0.09188 3.711 0.48 3.8599 0.65737 0.25226 0.60549 1.0847-0.08 1.2837-0.308 0.0894-1.3672 0.2571-2.3538 0.37267-1.5544 0.18206-1.8237 0.13233-2.0174-0.37255zm5.8126-0.9215c-0.1021-0.53413 0.02637-0.7934 0.44775-0.90359 0.52799-0.13807 0.59094-0.51809 0.59094-3.5674 0-2.6508-0.11037-3.5232-0.49429-3.9071-0.82964-0.82964-0.36022-1.22 1.4671-1.22h1.7195l2.2538 2.7954 2.2538 2.7954 0.09601-1.944c0.08069-1.6337-0.0087-2.0348-0.56-2.513-0.36081-0.31293-0.65601-0.73207-0.65601-0.93142 0-0.54802 3.4616-0.46655 4.0229 0.09468 0.57732 0.57732 0.58891 1.1429 0.02342 1.1429-0.4656 0-0.83976 2.7308-0.844 6.16l-0.0023 1.84h-1.077c-0.95145 0-1.315-0.28606-3.12-2.4547-1.1237-1.3501-2.2941-2.8261-2.6009-3.28-0.55121-0.81542-0.55792-0.79217-0.56 1.94-0.0019 2.6835 0.02154 2.7712 0.79789 2.9661 0.83066 0.20848 1.0993 1.0763 0.4 1.2921-0.22 0.06788-1.2135 0.19546-2.2078 0.28351-1.699 0.15046-1.8164 0.11502-1.9509-0.58897zm29.519 0.15056c-1.144-0.12859-2.9281-0.25063-3.9647-0.27121-1.3885-0.02755-1.9966-0.18484-2.3098-0.5974-0.57986-0.76387-0.54995-0.93803 0.19454-1.1327 0.58389-0.15269 0.64-0.43648 0.64-3.2373 0-2.4107-0.09572-3.07-0.44576-3.07-0.41928 0-0.83424-0.6497-0.83424-1.3062 0-0.16261 1.7688-0.29383 3.9608-0.29383 4.2987 0 4.4462 0.05622 4.8277 1.84 0.20106 0.94028 0.15061 1.04-0.52607 1.04-0.41165 0-0.92831-0.288-1.1481-0.64-0.29124-0.46635-0.74625-0.64-1.677-0.64-1.2768 0-1.2773 3.2e-4 -1.2773 1.28 0 1.3719 0.53563 1.6969 1.2928 0.78456 0.22615-0.27249 0.71178-0.45249 1.0792-0.4 0.56543 0.08079 0.68285 0.3534 0.76473 1.7754 0.08544 1.4841 0.02413 1.68-0.52576 1.68-0.34237 0-0.70537-0.216-0.80668-0.48-0.10131-0.264-0.5574-0.48-1.0136-0.48-0.76269 0-0.82138 0.09646-0.73004 1.2 0.09282 1.1215 0.17368 1.2062 1.2357 1.2955 0.8227 0.06916 1.3001-0.08542 1.7296-0.56 1.0194-1.1264 2.414-0.6513 2.414 0.8223 0 0.86028-0.31247 1.7402-0.59424 1.6734-0.11317-0.02685-1.1418-0.15401-2.2858-0.2826zm-15.55-1.4697c-1.5401-1.0452-1.9451-1.5896-2.1579-2.9005-0.58942-3.6322 2.5037-5.8811 7.3718-5.3597 2.2233 0.2381 2.7513 0.63664 2.5994 1.962-0.08497 0.74103-0.27522 0.91618-1.0807 0.99497-0.773 0.07561-1.0689-0.07506-1.4141-0.72-0.47192-0.88178-1.7597-1.0997-2.8981-0.4904-0.80312 0.42981-1.4069 2.5263-1.1389 3.9547 0.45563 2.4287 3.7086 2.9691 3.7086 0.61606 0-0.4048-0.16412-0.736-0.36472-0.736-0.37234 0-1.2067-0.92625-1.2251-1.36-0.0056-0.132 1.0648-0.24 2.3786-0.24 2.0342 0 2.4379 0.09188 2.72 0.61896 0.44241 0.82665 0.419 0.98104-0.14874 0.98104-0.36103 0-0.48 0.38667-0.48 1.56 0 1.4912-0.0441 1.5688-1 1.76-0.55 0.11-2.0419 0.2-3.3153 0.2-1.9722 0-2.499-0.12467-3.5548-0.8411zm-10.538-9.8283c-2.3229-1.0536-2.2745-4.9916 0.07267-5.9112 1.055-0.41334 1.4546-0.46793 3.0551-0.41736 1.0566 0.03338 1.2 0.13354 1.2 0.83792 0 0.49778-0.18133 0.8-0.48 0.8-0.264 0-0.48-0.21326-0.48-0.4739 0-0.64616-1.4713-0.96746-2.43-0.53064-0.97478 0.44414-1.5154 1.7876-1.2895 3.2042 0.25434 1.5948 1.0589 2.3305 2.4232 2.2158 1.0246-0.08613 1.1462-0.19783 1.2366-1.1355 0.08386-0.86971-0.0078-1.04-0.56-1.04-0.36315 0-0.66028-0.144-0.66028-0.32s0.648-0.32 1.44-0.32 1.44 0.144 1.44 0.32-0.144 0.32-0.32 0.32-0.32 0.4955-0.32 1.1011c0 0.60561-0.13206 1.1827-0.29346 1.2825-0.70949 0.43849-3.1268 0.47864-4.0343 0.06701zm4.9678 0.10939c0-0.176 0.1197-0.32 0.26599-0.32 0.14629 0 0.81055-1.3759 1.4761-3.0575 1.5892-4.0151 2.0301-4.013 3.5825 0.01752 0.61011 1.584 1.2457 2.928 1.4123 2.9867 0.77052 0.27121 0.17571 0.69334-0.97695 0.69334-1.1726 0-1.751-0.42965-0.94169-0.69944 0.18607-0.06202 0.24267-0.36202 0.12576-0.66667-0.15579-0.40598-0.57882-0.5539-1.5841-0.5539-1.0053 0-1.4283 0.14792-1.5841 0.5539-0.1169 0.30464-0.06031 0.60464 0.12576 0.66667 0.76142 0.25381 0.26339 0.69944-0.78169 0.69944-0.616 0-1.12-0.144-1.12-0.32zm4.2959-2.96c-0.125-0.396-0.39473-1.2053-0.59939-1.7985l-0.37211-1.0785-0.405 1.3518c-0.22275 0.74348-0.48214 1.5528-0.57642 1.7985-0.12752 0.33231 0.12967 0.44669 1.0044 0.44669 1.0734 0 1.156-0.06273 0.94852-0.72zm4.3441 2.96c0-0.176 0.216-0.32 0.48-0.32 0.39111 0 0.48-0.53333 0.48-2.88 0-2.8377-0.01142-2.88-0.77875-2.88-0.6055 0-0.80127 0.19028-0.88 0.85532-0.15971 1.3491-0.90125 1.3255-0.90125-0.02866v-1.1467h6.4v1.12c0 1.3701-0.58395 1.4802-0.848 0.16-0.14866-0.7433-0.36356-0.96-0.952-0.96-0.7437 0-0.76 0.06175-0.76 2.88 0 2.6667 0.04741 2.88 0.64 2.88 0.352 0 0.64 0.144 0.64 0.32s-0.792 0.32-1.76 0.32-1.76-0.144-1.76-0.32zm5.44 0c0-0.176 0.216-0.32 0.48-0.32 0.76599 0 0.69227-5.2846-0.08-5.7344-0.41359-0.2409 0.1302-0.32872 2.08-0.3359 2.4299-9e-3 2.64 0.0412 2.64 0.63027 0 0.74983-0.4896 0.85349-0.75572 0.16-0.11561-0.30128-0.60495-0.48-1.3142-0.48-1.105 0-1.13 0.02831-1.13 1.28 0 1.152 0.08 1.28 0.8 1.28 0.44 0 0.8-0.144 0.8-0.32s0.216-0.32 0.48-0.32c0.32 0 0.48 0.32 0.48 0.96s-0.16 0.96-0.48 0.96c-0.264 0-0.48-0.144-0.48-0.32s-0.36-0.32-0.8-0.32c-0.72 0-0.8 0.128-0.8 1.28v1.28h1.4184c1.1601 0 1.4573-0.12245 1.6318-0.67221 0.14223-0.44814 0.32002-0.56555 0.53335-0.35221 0.176 0.176 0.22399 0.6225 0.10665 0.99221-0.19454 0.61294-0.45129 0.67221-2.9118 0.67221-1.5856 0-2.6984-0.13196-2.6984-0.32zm8.3742-0.24c-0.1586-0.308-0.61428-1.568-1.0126-2.8s-0.94398-2.492-1.2125-2.8c-0.45636-0.52346-0.38703-0.56 1.0625-0.56 1.3133 0 1.4686 0.06125 1.0145 0.4-0.49768 0.37121-0.48201 0.57026 0.21772 2.7652l0.754 2.3652 0.71353-2.1442c0.68199-2.0494 0.68869-2.1716 0.15152-2.7652-0.54893-0.60656-0.52593-0.62101 0.98875-0.62101 1.3056 0 1.4683 0.06324 1.029 0.4-0.47941 0.3675-0.46629 0.5755 0.1615 2.56 0.37582 1.188 0.76565 2.16 0.86629 2.16 0.10064 0 0.43367-0.95577 0.74005-2.1239 0.41907-1.5978 0.46742-2.232 0.19517-2.56-0.29462-0.35499-0.13717-0.43606 0.84688-0.43606 1.1215 0 1.174 0.04044 0.72684 0.56-0.26506 0.308-0.86803 1.82-1.3399 3.36-1.0992 3.5872-1.7154 3.7616-2.5821 0.73093-0.32544-1.138-0.69393-2.0059-0.81886-1.9287-0.12494 0.07721-0.47068 1.0083-0.76832 2.0691-0.55213 1.9678-1.173 2.4579-1.7339 1.3687zm7.3058 0.26667c0-0.16133 0.13637-0.34133 0.30305-0.4 0.16668-0.05867 0.80321-1.4027 1.4145-2.9867 0.92402-2.3943 1.228-2.88 1.8024-2.88 0.57441 0 0.8784 0.48573 1.8024 2.88 0.61132 1.584 1.2479 2.928 1.4145 2.9867 0.77052 0.2712 0.17571 0.69333-0.97695 0.69333-1.1726 0-1.751-0.42965-0.94169-0.69944 0.18607-0.06202 0.24267-0.36202 0.12576-0.66667-0.29893-0.779-2.9537-0.78968-3.2517-0.01309-0.11587 0.30194-0.04076 0.5964 0.17004 0.66667 0.7946 0.26486 0.32816 0.71252-0.74243 0.71252-0.616 0-1.12-0.132-1.12-0.29333zm4.2959-2.9867c-0.125-0.396-0.39473-1.2053-0.59939-1.7985l-0.37211-1.0785-0.405 1.3518c-0.22275 0.74348-0.48214 1.5528-0.57642 1.7985-0.12752 0.33231 0.12967 0.44669 1.0044 0.44669 1.0734 0 1.156-0.06273 0.94852-0.72zm4.3441 2.96c0-0.176 0.216-0.32 0.48-0.32 1.2285 0-0.29382-4.2471-2.036-5.68-0.40415-0.33241-0.24618-0.39573 0.93484-0.37474 0.78164 0.01389 1.2433 0.09718 1.0259 0.18508-0.3012 0.12179-0.27264 0.40132 0.11999 1.1747 0.97144 1.9135 1.1054 1.9483 1.9634 0.50943 0.64449-1.0808 0.70985-1.3792 0.3517-1.6061-0.29327-0.18576-0.01955-0.28027 0.82128-0.28353 1.0755-0.0042 1.1838 0.05399 0.73549 0.3951-0.28912 0.22-0.94795 1.2109-1.4641 2.202-0.96805 1.8589-1.0497 3.478-0.17529 3.478 0.24348 0 0.4427 0.144 0.4427 0.32s-0.72 0.32-1.6 0.32-1.6-0.144-1.6-0.32zm-52.267-13.333c-0.11733-0.11733-0.21333-0.36213-0.21333-0.544 0-0.20051 0.14905-0.18162 0.37867 0.048 0.20827 0.20827 0.30427 0.45307 0.21333 0.544-0.09093 0.09093-0.26133 0.06933-0.37867-0.048zm-0.67276-1.6129c-0.17366-0.45606-0.1369-0.49282 0.17913-0.17914 0.21869 0.21707 0.31702 0.47528 0.21849 0.5738-0.09852 0.09852-0.27746-0.07908-0.39762-0.39467z" fill="#22a5d8"/>
  <path d="m2.8085 51.352c2.7528-1.2631 12.54-3.6578 21.032-5.1461 10.863-1.9039 26.086-2.9492 34.657-2.3798 9.2314 0.61326 15.344 1.5656 22.071 3.4388 1.6321 0.45449 2.9171 0.87676 2.8555 0.93838-0.06162 0.06162-2.117-0.17377-4.5675-0.52308-6.3528-0.90558-18.06-1.8504-25.895-2.0898-14.273-0.43614-32.479 1.4868-45.44 4.7994-5.9613 1.5236-5.9142 1.514-4.7115 0.96216zm5.8315-5.3087c0-2.0972 2.4283-17.68 3.3851-21.724 0.98204-4.1497 1.6276-5.9401 3.7155-10.304l1.6382-3.4239-1.1694-3.0928c-1.394-3.6869-1.4346-4.2145-0.35527-4.6248 2.057-0.78208 2.2394-0.7466 2.8009 0.54516 0.29175 0.67111 0.69271 1.8958 0.89102 2.7216l0.36058 1.5014 0.68669-0.65197c1.3315-1.2642 3.871-2.4786 5.9661-2.853 2.6628-0.47587 4.9755 0.10703 7.26 1.8298 1.794 1.3529 2.1344 1.6974 3.589 3.6323 0.81129 1.0792 0.62673 0.9422-0.73659-0.5467-3.6038-3.9358-8.0116-5.0984-12.139-3.2017-1.0271 0.47198-2.4169 1.2933-3.0884 1.8251l-1.2209 0.967 0.67579 2.5664c0.61718 2.3439 0.7573 2.5875 1.6157 2.81 0.77681 0.20129 1.1122 0.63064 1.9326 2.4739 0.54599 1.2267 1.3924 2.9382 1.881 3.8033 0.48856 0.8651 0.84138 1.7136 0.78406 1.8856-0.10647 0.31942-1.5391-1.8039-2.7683-4.103-1.0746-2.0099-0.40145 0.03779 0.80277 2.4419 0.58457 1.167 0.96169 2.2305 0.83804 2.3633-0.23391 0.25126 3.1743-0.09762 3.4275-0.35086 0.07916-0.07916-0.28574-0.60977-0.81089-1.1791-2.0314-2.2025-1.7453-2.199 0.40013 0.0048 1.2422 1.276 2.425 2.32 2.6285 2.32s0.36994 0.34878 0.36994 0.77506c0 0.88064-1.9438 2.7209-3.9846 3.7723-3.2118 1.6547-7.7876 2.5692-9.5089 1.9003l-0.85348-0.33166 0.15814-4.898c0.11896-3.6845 0.04358-5.3186-0.30423-6.5957l-0.46236-1.6977 0.93327-0.93327c0.8917-0.8917 0.91606-0.99069 0.54706-2.2223-0.21242-0.70898-0.50581-1.2891-0.65199-1.2891-0.4392 0-2.7094 4.7917-3.9256 8.2857-1.3853 3.98-2.3629 8.7916-3.7127 18.274-0.56368 3.96-1.1531 7.3368-1.3098 7.504-0.17493 0.18667-0.28488 0.11706-0.28488-0.18035zm15.68-19.286c0-0.28408-1.2946-0.43255-1.4586-0.16728-0.09856 0.15948 0.18929 0.28996 0.63968 0.28996s0.81889-0.05521 0.81889-0.12268zm-10.038 17.643c-0.12065-0.45168-0.01531-0.8524 0.28268-1.0753 0.71133-0.53204 0.69298-9.2325-0.02098-9.9464-0.27279-0.27279-0.4494-0.73051-0.39247-1.0171 0.16171-0.81417 6.4109-0.73042 7.8212 0.10481 1.08 0.63964 1.708 1.6811 1.7061 2.8291-0.0015 0.86806-1.1328 2.7849-1.6437 2.7849-0.24078 0-0.19868 0.19977 0.11801 0.56 0.27077 0.308 0.80002 1.172 1.1761 1.92 0.37608 0.748 0.82486 1.36 0.99728 1.36 0.17242 0 0.3135 0.27918 0.3135 0.62039 0 0.48848-0.30135 0.66558-1.4173 0.83292-0.7795 0.1169-1.5655 0.12092-1.7467 9e-3 -0.18118-0.11197-0.64431-1.0672-1.0292-2.1228-0.76737-2.1046-0.94416-2.3156-1.698-2.0263-0.37103 0.14236-0.50888 0.62751-0.50888 1.791 0 1.3266 0.10794 1.6239 0.64 1.7631 0.352 0.09205 0.64 0.42703 0.64 0.74439 0 0.45214-0.48115 0.68646-2.2232 1.0827-2.8174 0.6408-2.7855 0.64306-3.0145-0.21435zm5.6995-7.6712c0.73451-1.0487 0.64645-2.7069-0.16686-3.1422-1.195-0.63955-1.575-0.17552-1.575 1.9233 0 1.6979 0.07478 1.93 0.62185 1.93 0.34202 0 0.84602-0.32004 1.12-0.7112zm57.778 7.3013c-2.5834-0.97305-2.8687-1.1534-3.0658-1.9387-0.29648-1.1813 0.09521-2.4113 0.76785-2.4113 0.72353 0 1.3379 0.60668 1.3379 1.3211 0 1.3064 1.7398 2.0134 2.6687 1.0845 0.76663-0.76663 0.25154-1.7047-1.617-2.945-2.2996-1.5264-3.4396-3.2247-3.1914-4.7541 0.40237-2.4795 3.245-3.3307 6.6998-2.0062 0.79365 0.30426 0.88 0.49056 0.88 1.8985 0 1.3658-0.08296 1.5612-0.66286 1.5612-0.8489 0-1.5771-0.72825-1.5771-1.5771 0-0.51265-0.20303-0.66286-0.896-0.66286-0.95648 0-1.664 0.50371-1.664 1.1847 0 0.22916 0.89034 1.0721 1.9785 1.8732 2.4276 1.7871 3.4615 3.1339 3.4615 4.5093 0 2.8256-2.1006 4.0002-5.12 2.8629zm-4.9017-0.82002c-1.5614-0.30207-1.9457-0.70695-2.8971-3.0517-0.56092-1.3825-0.96585-1.9469-1.4497-2.0206-0.59763-0.09102-0.67143 0.05611-0.67143 1.3384 0 1.1597 0.12485 1.4803 0.64 1.6438 0.365 0.11584 0.64 0.48417 0.64 0.85718 0 0.56138-0.14735 0.62862-1.04 0.47459-0.572-0.0987-1.7143-0.27363-2.5385-0.38872-1.6491-0.23029-2.2661-0.97579-1.3575-1.6402 0.45163-0.33024 0.52907-0.92121 0.47837-3.6503-0.04352-2.3429-0.18979-3.3856-0.52145-3.7173-0.25352-0.25353-0.46095-0.68706-0.46095-0.96342 0-0.75382 6.5511-0.41682 7.9489 0.4089 1.8529 1.0946 2.11 3.6401 0.49579 4.9099-0.47286 0.37195-0.65193 0.70134-0.44935 0.82654 0.18524 0.11449 0.71233 0.95397 1.1713 1.8655s1.0322 1.7725 1.2739 1.9133c0.45366 0.26419 0.62606 1.5327 0.19942 1.4673-0.132-0.02022-0.78978-0.14316-1.4617-0.27316zm-3.3635-6.9396c0.73595-0.66602 0.78845-2.5239 0.07902-2.7962-1.4286-0.54819-1.7338-0.27251-1.7338 1.5658 0 1.9244 0.48746 2.2868 1.6548 1.2304zm-44.346 6.0891c-0.1413-0.36822-0.04052-0.71652 0.27383-0.94638 0.72648-0.53122 0.71833-7.1785-0.01017-8.2904-0.27917-0.42607-0.41467-0.925-0.30111-1.1087 0.32117-0.51967 4.2899-0.41858 4.8316 0.12307 0.63191 0.63191 0.57178 1.0382-0.18286 1.2356-0.59314 0.15511-0.64 0.43648-0.64 3.8431 0 2.9721 0.09188 3.711 0.48 3.8599 0.65737 0.25226 0.60549 1.0847-0.08 1.2837-0.308 0.0894-1.3672 0.2571-2.3538 0.37267-1.5544 0.18206-1.8237 0.13233-2.0174-0.37255zm5.8126-0.9215c-0.1021-0.53413 0.02637-0.7934 0.44775-0.90359 0.52799-0.13807 0.59094-0.51809 0.59094-3.5674 0-2.6508-0.11037-3.5232-0.49429-3.9071-0.82964-0.82964-0.36022-1.22 1.4671-1.22h1.7195l2.2538 2.7954 2.2538 2.7954 0.09601-1.944c0.08069-1.6337-0.0087-2.0348-0.56-2.513-0.36081-0.31293-0.65601-0.73207-0.65601-0.93142 0-0.54802 3.4616-0.46655 4.0229 0.09468 0.57732 0.57732 0.58891 1.1429 0.02342 1.1429-0.4656 0-0.83976 2.7308-0.844 6.16l-0.0023 1.84h-1.077c-0.95145 0-1.315-0.28606-3.12-2.4547-1.1237-1.3501-2.2941-2.8261-2.6009-3.28-0.55121-0.81542-0.55792-0.79217-0.56 1.94-0.0019 2.6835 0.02154 2.7712 0.79789 2.9661 0.83066 0.20848 1.0993 1.0763 0.4 1.2921-0.22 0.06788-1.2135 0.19546-2.2078 0.28351-1.699 0.15046-1.8164 0.11502-1.9509-0.58897zm29.519 0.15056c-1.144-0.12859-2.9281-0.25063-3.9647-0.27121-1.3885-0.02755-1.9966-0.18484-2.3098-0.5974-0.57986-0.76387-0.54995-0.93803 0.19454-1.1327 0.58389-0.15269 0.64-0.43648 0.64-3.2373 0-2.4107-0.09572-3.07-0.44576-3.07-0.41928 0-0.83424-0.6497-0.83424-1.3062 0-0.16261 1.7688-0.29383 3.9608-0.29383 4.2987 0 4.4462 0.05622 4.8277 1.84 0.20106 0.94028 0.15061 1.04-0.52607 1.04-0.41165 0-0.92831-0.288-1.1481-0.64-0.29124-0.46635-0.74625-0.64-1.677-0.64-1.2768 0-1.2773 3.2e-4 -1.2773 1.28 0 1.3719 0.53563 1.6969 1.2928 0.78456 0.22615-0.27249 0.71178-0.45249 1.0792-0.4 0.56543 0.08079 0.68285 0.3534 0.76473 1.7754 0.08544 1.4841 0.02413 1.68-0.52576 1.68-0.34237 0-0.70537-0.216-0.80668-0.48-0.10131-0.264-0.5574-0.48-1.0136-0.48-0.76269 0-0.82138 0.09646-0.73004 1.2 0.09282 1.1215 0.17368 1.2062 1.2357 1.2955 0.8227 0.06916 1.3001-0.08542 1.7296-0.56 1.0194-1.1264 2.414-0.6513 2.414 0.8223 0 0.86028-0.31247 1.7402-0.59424 1.6734-0.11317-0.02685-1.1418-0.15401-2.2858-0.2826zm-15.55-1.4697c-1.5401-1.0452-1.9451-1.5896-2.1579-2.9005-0.58942-3.6322 2.5037-5.8811 7.3718-5.3597 2.2233 0.2381 2.7513 0.63664 2.5994 1.962-0.08497 0.74103-0.27522 0.91618-1.0807 0.99497-0.773 0.07561-1.0689-0.07506-1.4141-0.72-0.47192-0.88178-1.7597-1.0997-2.8981-0.4904-0.80312 0.42981-1.4069 2.5263-1.1389 3.9547 0.45563 2.4287 3.7086 2.9691 3.7086 0.61606 0-0.4048-0.16412-0.736-0.36472-0.736-0.37234 0-1.2067-0.92625-1.2251-1.36-0.0056-0.132 1.0648-0.24 2.3786-0.24 2.0342 0 2.4379 0.09188 2.72 0.61896 0.44241 0.82665 0.419 0.98104-0.14874 0.98104-0.36103 0-0.48 0.38667-0.48 1.56 0 1.4912-0.0441 1.5688-1 1.76-0.55 0.11-2.0419 0.2-3.3153 0.2-1.9722 0-2.499-0.12467-3.5548-0.8411zm-10.538-9.8283c-2.3229-1.0536-2.2745-4.9916 0.07267-5.9112 1.055-0.41334 1.4546-0.46793 3.0551-0.41736 1.0566 0.03338 1.2 0.13354 1.2 0.83792 0 0.49778-0.18133 0.8-0.48 0.8-0.264 0-0.48-0.21326-0.48-0.4739 0-0.64616-1.4713-0.96746-2.43-0.53064-0.97478 0.44414-1.5154 1.7876-1.2895 3.2042 0.25434 1.5948 1.0589 2.3305 2.4232 2.2158 1.0246-0.08613 1.1462-0.19783 1.2366-1.1355 0.08386-0.86971-0.0078-1.04-0.56-1.04-0.36315 0-0.66028-0.144-0.66028-0.32s0.648-0.32 1.44-0.32 1.44 0.144 1.44 0.32-0.144 0.32-0.32 0.32-0.32 0.4955-0.32 1.1011c0 0.60561-0.13206 1.1827-0.29346 1.2825-0.70949 0.43849-3.1268 0.47864-4.0343 0.06701zm4.9678 0.10939c0-0.176 0.1197-0.32 0.26599-0.32 0.14629 0 0.81055-1.3759 1.4761-3.0575 1.5892-4.0151 2.0301-4.013 3.5825 0.01752 0.61011 1.584 1.2457 2.928 1.4123 2.9867 0.77052 0.27121 0.17571 0.69334-0.97695 0.69334-1.1726 0-1.751-0.42965-0.94169-0.69944 0.18607-0.06202 0.24267-0.36202 0.12576-0.66667-0.15579-0.40598-0.57882-0.5539-1.5841-0.5539-1.0053 0-1.4283 0.14792-1.5841 0.5539-0.1169 0.30464-0.06031 0.60464 0.12576 0.66667 0.76142 0.25381 0.26339 0.69944-0.78169 0.69944-0.616 0-1.12-0.144-1.12-0.32zm4.2959-2.96c-0.125-0.396-0.39473-1.2053-0.59939-1.7985l-0.37211-1.0785-0.405 1.3518c-0.22275 0.74348-0.48214 1.5528-0.57642 1.7985-0.12752 0.33231 0.12967 0.44669 1.0044 0.44669 1.0734 0 1.156-0.06273 0.94852-0.72zm4.3441 2.96c0-0.176 0.216-0.32 0.48-0.32 0.39111 0 0.48-0.53333 0.48-2.88 0-2.8377-0.01142-2.88-0.77875-2.88-0.6055 0-0.80127 0.19028-0.88 0.85532-0.15971 1.3491-0.90125 1.3255-0.90125-0.02866v-1.1467h6.4v1.12c0 1.3701-0.58395 1.4802-0.848 0.16-0.14866-0.7433-0.36356-0.96-0.952-0.96-0.7437 0-0.76 0.06175-0.76 2.88 0 2.6667 0.04741 2.88 0.64 2.88 0.352 0 0.64 0.144 0.64 0.32s-0.792 0.32-1.76 0.32-1.76-0.144-1.76-0.32zm5.44 0c0-0.176 0.216-0.32 0.48-0.32 0.76599 0 0.69227-5.2846-0.08-5.7344-0.41359-0.2409 0.1302-0.32872 2.08-0.3359 2.4299-9e-3 2.64 0.0412 2.64 0.63027 0 0.74983-0.4896 0.85349-0.75572 0.16-0.11561-0.30128-0.60495-0.48-1.3142-0.48-1.105 0-1.13 0.02831-1.13 1.28 0 1.152 0.08 1.28 0.8 1.28 0.44 0 0.8-0.144 0.8-0.32s0.216-0.32 0.48-0.32c0.32 0 0.48 0.32 0.48 0.96s-0.16 0.96-0.48 0.96c-0.264 0-0.48-0.144-0.48-0.32s-0.36-0.32-0.8-0.32c-0.72 0-0.8 0.128-0.8 1.28v1.28h1.4184c1.1601 0 1.4573-0.12245 1.6318-0.67221 0.14223-0.44814 0.32002-0.56555 0.53335-0.35221 0.176 0.176 0.22399 0.6225 0.10665 0.99221-0.19454 0.61294-0.45129 0.67221-2.9118 0.67221-1.5856 0-2.6984-0.13196-2.6984-0.32zm8.3742-0.24c-0.1586-0.308-0.61428-1.568-1.0126-2.8s-0.94398-2.492-1.2125-2.8c-0.45636-0.52346-0.38703-0.56 1.0625-0.56 1.3133 0 1.4686 0.06125 1.0145 0.4-0.49768 0.37121-0.48201 0.57026 0.21772 2.7652l0.754 2.3652 0.71353-2.1442c0.68199-2.0494 0.68869-2.1716 0.15152-2.7652-0.54893-0.60656-0.52593-0.62101 0.98875-0.62101 1.3056 0 1.4683 0.06324 1.029 0.4-0.47941 0.3675-0.46629 0.5755 0.1615 2.56 0.37582 1.188 0.76565 2.16 0.86629 2.16 0.10064 0 0.43367-0.95577 0.74005-2.1239 0.41907-1.5978 0.46742-2.232 0.19517-2.56-0.29462-0.35499-0.13717-0.43606 0.84688-0.43606 1.1215 0 1.174 0.04044 0.72684 0.56-0.26506 0.308-0.86803 1.82-1.3399 3.36-1.0992 3.5872-1.7154 3.7616-2.5821 0.73093-0.32544-1.138-0.69393-2.0059-0.81886-1.9287-0.12494 0.07721-0.47068 1.0083-0.76832 2.0691-0.55213 1.9678-1.173 2.4579-1.7339 1.3687zm7.3058 0.26667c0-0.16133 0.13637-0.34133 0.30305-0.4 0.16668-0.05867 0.80321-1.4027 1.4145-2.9867 0.92402-2.3943 1.228-2.88 1.8024-2.88 0.57441 0 0.8784 0.48573 1.8024 2.88 0.61132 1.584 1.2479 2.928 1.4145 2.9867 0.77052 0.2712 0.17571 0.69333-0.97695 0.69333-1.1726 0-1.751-0.42965-0.94169-0.69944 0.18607-0.06202 0.24267-0.36202 0.12576-0.66667-0.29893-0.779-2.9537-0.78968-3.2517-0.01309-0.11587 0.30194-0.04076 0.5964 0.17004 0.66667 0.7946 0.26486 0.32816 0.71252-0.74243 0.71252-0.616 0-1.12-0.132-1.12-0.29333zm4.2959-2.9867c-0.125-0.396-0.39473-1.2053-0.59939-1.7985l-0.37211-1.0785-0.405 1.3518c-0.22275 0.74348-0.48214 1.5528-0.57642 1.7985-0.12752 0.33231 0.12967 0.44669 1.0044 0.44669 1.0734 0 1.156-0.06273 0.94852-0.72zm4.3441 2.96c0-0.176 0.216-0.32 0.48-0.32 1.2285 0-0.29382-4.2471-2.036-5.68-0.40415-0.33241-0.24618-0.39573 0.93484-0.37474 0.78164 0.01389 1.2433 0.09718 1.0259 0.18508-0.3012 0.12179-0.27264 0.40132 0.11999 1.1747 0.97144 1.9135 1.1054 1.9483 1.9634 0.50943 0.64449-1.0808 0.70985-1.3792 0.3517-1.6061-0.29327-0.18576-0.01955-0.28027 0.82128-0.28353 1.0755-0.0042 1.1838 0.05399 0.73549 0.3951-0.28912 0.22-0.94795 1.2109-1.4641 2.202-0.96805 1.8589-1.0497 3.478-0.17529 3.478 0.24348 0 0.4427 0.144 0.4427 0.32s-0.72 0.32-1.6 0.32-1.6-0.144-1.6-0.32zm-52.267-13.333c-0.11733-0.11733-0.21333-0.36213-0.21333-0.544 0-0.20051 0.14905-0.18162 0.37867 0.048 0.20827 0.20827 0.30427 0.45307 0.21333 0.544-0.09093 0.09093-0.26133 0.06933-0.37867-0.048zm-0.67276-1.6129c-0.17366-0.45606-0.1369-0.49282 0.17913-0.17914 0.21869 0.21707 0.31702 0.47528 0.21849 0.5738-0.09852 0.09852-0.27746-0.07908-0.39762-0.39467z" fill="#cf9a27"/>
  <path d="m2.8085 51.352c2.7528-1.2631 12.54-3.6578 21.032-5.1461 10.863-1.9039 26.086-2.9492 34.657-2.3798 9.2314 0.61326 15.344 1.5656 22.071 3.4388 1.6321 0.45449 2.9171 0.87676 2.8555 0.93838-0.06162 0.06162-2.117-0.17377-4.5675-0.52308-6.3528-0.90558-18.06-1.8504-25.895-2.0898-14.273-0.43614-32.479 1.4868-45.44 4.7994-5.9613 1.5236-5.9142 1.514-4.7115 0.96216zm5.8315-5.3087c0-2.0972 2.4283-17.68 3.3851-21.724 0.98204-4.1497 1.6276-5.9401 3.7155-10.304l1.6382-3.4239-1.1694-3.0928c-1.394-3.6869-1.4346-4.2145-0.35527-4.6248 2.057-0.78208 2.2394-0.7466 2.8009 0.54516 0.29175 0.67111 0.69271 1.8958 0.89102 2.7216l0.36058 1.5014 0.68669-0.65197c1.3315-1.2642 3.871-2.4786 5.9661-2.853 2.6628-0.47587 4.9755 0.10703 7.26 1.8298 1.794 1.3529 2.1344 1.6974 3.589 3.6323 0.81129 1.0792 0.62673 0.9422-0.73659-0.5467-4.4762-4.8886-10.149-5.3985-15.236-1.3696l-1.2297 0.97393 0.61717 2.2271c0.78236 2.8232 0.77409 3.0866-0.10283 3.2768-0.396 0.08588-0.96268 0.2585-1.2593 0.38359-0.42768 0.18037-0.62027-0.0429-0.93065-1.0788-0.21526-0.71846-0.51097-1.3063-0.65715-1.3063-0.4392 0-2.7094 4.7917-3.9256 8.2857-1.3853 3.98-2.3629 8.7916-3.7127 18.274-0.56368 3.96-1.1531 7.3368-1.3098 7.504-0.17493 0.18667-0.28488 0.11706-0.28488-0.18035zm5.76-1.1977c0-0.15071 0.972-0.51358 2.16-0.80637s2.208-0.67349 2.2667-0.84598c0.1883-0.55364 0.69333-0.33458 0.69333 0.30073 0 0.49833-0.41986 0.70984-2.2232 1.12-2.5558 0.5813-2.8968 0.60857-2.8968 0.23163zm63.36-0.81592c-2.2835-0.8601-2.9656-1.1712-2.841-1.2958 0.07029-0.07029 0.91826 0.14504 1.8844 0.47851 2.4427 0.84313 3.6923 0.80062 4.6511-0.15826 0.85529-0.85529 1.054-2.5413 0.44739-3.7956-0.31803-0.65753-0.29906-0.65418 0.32 0.05649 0.72877 0.83662 0.86155 2.4478 0.30278 3.6742-0.65165 1.4302-2.6002 1.8557-4.7647 1.0404zm-56.455-0.78881c-0.09475-0.15332 0.43365-0.36003 1.1742-0.45936 0.74058-0.09933 1.3976-0.3339 1.4601-0.52125 0.18981-0.56944 0.70022-0.38039 0.70022 0.25936 0 0.416-0.30667 0.66133-1 0.8-1.3787 0.27573-2.1311 0.25035-2.3345-0.07875zm51.558-0.0303c-0.66895-0.12951-1.3889-0.40948-1.6-0.62216-0.29878-0.30108-0.27747-0.3532 0.09627-0.23542 1.5437 0.48649 2.56 0.49433 2.56 0.01978 0-0.26999 0.144-0.40189 0.32-0.29311 0.36936 0.22828 0.43948 1.4583 0.08 1.4032-0.132-0.02022-0.78732-0.14276-1.4563-0.27227zm-47.584-0.59105c0-0.18362 0.828-0.43426 1.84-0.55698 1.012-0.12273 2.092-0.35415 2.4-0.51428 0.41122-0.2138 0.56-0.16636 0.56 0.17855 0 0.55384-0.48883 0.72075-2.96 1.0107-1.2022 0.14105-1.84 0.10016-1.84-0.11796zm-7.68-1.9426c0-1.6132 0.09155-1.9066 0.63968-2.05 0.76995-0.20135 1.2118 0.33624 0.5006 0.60913-0.35939 0.13791-0.50028 0.63294-0.50028 1.7577 0 0.86117-0.144 1.5658-0.32 1.5658-0.17707 0-0.32-0.84089-0.32-1.8827zm48.4 1.494c-1.1-0.16894-2-0.44512-2-0.61372 0-0.17026 0.49796-0.22898 1.12-0.13206 0.616 0.09597 1.624 0.25302 2.24 0.349 0.67699 0.10548 1.12 0.04219 1.12-0.16 0-0.18398 0.144-0.3345 0.32-0.3345s0.32 0.288 0.32 0.64c0 0.71012-0.08686 0.71712-3.12 0.25129zm-34.96-0.17973c0-0.45141 0.80511-0.71156 2.2022-0.71156 0.6544 0 1.3602-0.1704 1.5685-0.37867 0.47173-0.47173 0.85309-0.13752 0.59891 0.52486-0.12955 0.3376-0.62287 0.49518-1.5595 0.49817-0.75352 0.0026-1.694 0.0912-2.09 0.19732-0.39866 0.10684-0.72 0.04876-0.72-0.13013zm45.432-0.57239c-0.3931-1.0339-0.40975-1.6537-0.03339-1.2432 0.33734 0.36798 0.76421 2.064 0.51949 2.064-0.09571 0-0.31445-0.36937-0.4861-0.82083zm-15.992 0.16944c-1.144-0.12859-2.98-0.25063-4.08-0.27121-1.1643-0.02176-2-0.17829-2-0.37459 0-0.22972 1.1474-0.26486 3.6-0.11024 1.98 0.12482 3.816 0.24056 4.08 0.25719 0.31636 0.01994 0.51434-0.32637 0.58073-1.0158 0.11249-1.1683 0.69927-1.1021 0.69927 0.07879 0 0.89935-0.30682 1.7866-0.59424 1.7185-0.11317-0.02685-1.1418-0.15401-2.2858-0.2826zm11.895-1.7484c-0.52423-0.96789-0.82031-1.6777-0.65795-1.5774 0.32945 0.20361 1.975 3.3371 1.7524 3.3371-0.07774 0-0.57027-0.79191-1.0945-1.7598zm-49.914-0.1602c-0.54704-0.88-1.1468-1.6-1.3329-1.6s0.132-0.42019 0.70678-0.93375c0.91708-0.81941 1.045-1.1303 1.045-2.539 0-1.4295 0.04254-1.5287 0.38866-0.90625 0.21376 0.38443 0.39322 1.059 0.3988 1.499 0.01187 0.93644-1.0897 2.88-1.6324 2.88-0.24127 0-0.19979 0.19902 0.11671 0.56 0.5238 0.5974 1.6257 2.64 1.4242 2.64-0.06621 0-0.56796-0.72-1.115-1.6zm16.579 1.28c0-0.176 0.36-0.32 0.8-0.32s0.80614-0.036 0.81364-0.08c0.0075-0.044 0.09503-1.808 0.19451-3.92 0.09947-2.112 0.20133-3.8581 0.22636-3.8802 0.02502-0.02214 0.36949-0.13984 0.76549-0.26156 0.53456-0.16431 0.72-0.09213 0.72 0.28025 0 0.27586-0.19518 0.50156-0.43373 0.50156-0.4656 0-0.83976 2.7308-0.844 6.16l-0.0023 1.84h-1.12c-0.616 0-1.12-0.144-1.12-0.32zm-10.56-3.9627c0-3.4854 0.06745-3.9865 0.56-4.1602 0.308-0.10864 0.74-0.28144 0.96-0.38399 0.22294-0.10392 0.4 0.02128 0.4 0.28289 0 0.25814-0.288 0.54466-0.64 0.63671-0.59357 0.15522-0.64 0.43648-0.64 3.8773 0 2.26-0.12507 3.71-0.32 3.71-0.19611 0-0.32-1.5342-0.32-3.9627zm16.88 3.4596c-0.484-0.26258-0.88-0.54124-0.88-0.61927 0-0.07802 0.396 0.01334 0.88 0.20301 0.97812 0.38333 4.318 0.45357 5.8253 0.12252 0.92521-0.20321 0.97471-0.29404 0.97471-1.7887 0-1.1863 0.11837-1.5746 0.48-1.5746 0.264 0 0.4822-0.18 0.4849-0.4 0.0033-0.26666 0.1083-0.24 0.3151 0.08 0.43974 0.68046 0.39316 0.96-0.16 0.96-0.36103 0-0.48 0.38667-0.48 1.56 0 1.4912-0.0441 1.5688-1 1.76-1.8387 0.36774-5.5232 0.19436-6.44-0.30303zm21.84-1.257c0-1.8249 0.0562-1.8971 1.12-1.44 0.54727 0.23517 0.55886 0.27828 0.08 0.29751-0.44704 0.01795-0.56 0.31297-0.56 1.4625 0 0.792-0.144 1.44-0.32 1.44s-0.32-0.792-0.32-1.76zm-33.92-2.0989c0-2.0644 0.11477-3.148 0.32-3.0211 0.17677 0.10925 0.32 1.55 0.32 3.2189 0 1.8007-0.12926 3.0211-0.32 3.0211-0.19212 0-0.32-1.2863-0.32-3.2189zm44.8 2.2169c-0.792-0.53996-1.656-1.2028-1.92-1.473-0.264-0.27019 0.42 0.10951 1.52 0.84378 1.1 0.73427 2 1.4017 2 1.4831 0 0.22776-0.06187 0.19474-1.6-0.8539zm-20.424-0.83803c-0.05543-1.6658-0.04777-1.68 0.90409-1.68 0.528 0 0.96 0.144 0.96 0.32s-0.35172 0.32-0.7816 0.32c-0.68698 0-0.79643 0.16464-0.90409 1.36-0.11711 1.3002-0.12495 1.2862-0.1784-0.32zm-11.52 0c-0.92789-1.8106-0.59807-4.4637 0.66485-5.3483 0.78879-0.55249 2.6573-0.6609 2.9596-0.17172 0.1177 0.19044-0.26334 0.32-0.94111 0.32-0.70133 0-1.3779 0.23903-1.761 0.62215-0.81062 0.81062-1.1491 2.6898-0.73027 4.0544 0.35965 1.1719 0.26811 1.4214-0.19205 0.52345zm13.704-0.4c0-0.176 0.20772-0.32 0.4616-0.32 0.31051 0 0.5017-0.44515 0.58409-1.36 0.11711-1.3002 0.12495-1.2862 0.1784 0.32 0.04943 1.4853-0.01827 1.68-0.58409 1.68-0.352 0-0.64-0.144-0.64-0.32zm-20.939-0.5462c-0.17366-0.45606-0.1369-0.49282 0.17914-0.17914 0.2187 0.21707 0.31702 0.47528 0.21849 0.5738-0.09853 0.09852-0.27746-0.07908-0.39763-0.39467zm-21.301-2.1738v-2.4h1.1011c0.60561 0 1.1849 0.13556 1.2873 0.30124 0.1024 0.16569-0.2131 0.27369-0.70112 0.24-0.87971-0.06072-0.8881-0.04278-0.98191 2.0988-0.1289 2.9425-0.70538 2.7463-0.70538-0.24zm53.86 1.6273c0.96294-0.89242 1.3324-2.0525 1.0533-3.3073l-0.19571-0.88 0.51279 0.92114c0.87994 1.5806-0.07384 4.0389-1.5671 4.0389-0.58188 0-0.56483-0.067 0.19665-0.77273zm-22.5 0.13273c0-0.176 0.216-0.32 0.48-0.32s0.48 0.144 0.48 0.32-0.216 0.32-0.48 0.32-0.48-0.144-0.48-0.32zm-11.224-1.2-0.77578-0.88 0.88 0.77578c0.82249 0.72508 1.0267 0.98422 0.77578 0.98422-0.05732 0-0.45332-0.396-0.88-0.88zm29.704 0.69587c-0.132-0.1334-0.24-1.0825-0.24-2.1092 0-1.7366 0.05149-1.8667 0.73884-1.8667 0.40636 0 1.0046 0.19432 1.3294 0.43183 0.53436 0.39073 0.49611 0.41797-0.40186 0.28617l-0.99242-0.14565-0.09698 1.823c-0.05334 1.0027-0.20498 1.7139-0.33698 1.5805zm-9.7841-2.2959-0.05591-1.68h1.44c0.792 0 1.44 0.144 1.44 0.32s-0.56772 0.32-1.2616 0.32c-1.2517 0-1.2626 0.01069-1.3841 1.36-0.11711 1.3002-0.12495 1.2862-0.1784-0.32zm22.984 1.2c0-0.176 0.216-0.32 0.48-0.32 0.34666 0 0.48-0.35556 0.48-1.28 0-0.704 0.144-1.28 0.32-1.28s0.32 0.72 0.32 1.6c0 1.4933-0.05333 1.6-0.8 1.6-0.44 0-0.8-0.144-0.8-0.32zm-3.3954-0.45673c-0.09639-0.2512-0.12788-0.7912-0.06996-1.2 0.08278-0.58428 0.33647-0.76537 1.186-0.84658 0.59438-0.05682 1.2352 0.05118 1.424 0.24 0.24441 0.24441 0.05961 0.34331-0.64151 0.34331-1.0993 0-1.8721 0.69829-1.589 1.4359 0.10217 0.26624 0.11376 0.48407 0.02576 0.48407-0.088 0-0.23887-0.20553-0.33526-0.45673zm-41.405-1.4633c-0.55758-0.704-0.94178-1.28-0.85378-1.28s0.6162 0.576 1.1738 1.28c0.55758 0.704 0.94178 1.28 0.85378 1.28s-0.6162-0.576-1.1738-1.28zm14.72 0.98028c0-0.18715 0.36-0.34028 0.8-0.34028 0.68666 0 0.8-0.14506 0.8-1.024 0-0.73217 0.09833-0.92567 0.34502-0.67898 0.18976 0.18976 0.29776 0.75856 0.24 1.264-0.08873 0.77641-0.26636 0.93454-1.145 1.0193-0.58418 0.05632-1.04-0.04886-1.04-0.24zm10.56-0.34028c0-0.176 0.216-0.32 0.48-0.32 0.30257 0 0.49179-0.32529 0.5119-0.88l0.0319-0.88 0.2562 0.8c0.43032 1.3437 0.35342 1.6-0.48 1.6-0.44 0-0.8-0.144-0.8-0.32zm-35.68-0.96c-0.10877-0.176 0.03523-0.32 0.32-0.32 0.28477 0 0.42877 0.144 0.32 0.32s-0.25277 0.32-0.32 0.32c-0.06723 0-0.21123-0.144-0.32-0.32zm13.28-0.32c0-0.176 0.144-0.32 0.32-0.32s0.32 0.144 0.32 0.32-0.144 0.32-0.32 0.32-0.32-0.144-0.32-0.32zm15.36 0c0-0.176 0.216-0.32 0.48-0.32s0.48 0.144 0.48 0.32-0.216 0.32-0.48 0.32-0.48-0.144-0.48-0.32zm-19.688-2.6694c-2.3229-1.0536-2.2745-4.9916 0.07267-5.9112 1.055-0.41334 1.4546-0.46793 3.0551-0.41736 1.0566 0.03338 1.2 0.13354 1.2 0.83792 0 0.49778-0.18133 0.8-0.48 0.8-0.264 0-0.48-0.21326-0.48-0.4739 0-0.64616-1.4713-0.96746-2.43-0.53064-0.97478 0.44414-1.5154 1.7876-1.2895 3.2042 0.25434 1.5948 1.0589 2.3305 2.4232 2.2158 1.0246-0.08613 1.1462-0.19783 1.2366-1.1355 0.08386-0.86971-0.0078-1.04-0.56-1.04-0.36315 0-0.66028-0.144-0.66028-0.32s0.648-0.32 1.44-0.32 1.44 0.144 1.44 0.32-0.144 0.32-0.32 0.32-0.32 0.4955-0.32 1.1011c0 0.60561-0.13206 1.1827-0.29346 1.2825-0.70949 0.43849-3.1268 0.47864-4.0343 0.06701zm4.9678 0.10939c0-0.176 0.1197-0.32 0.26599-0.32 0.14629 0 0.81055-1.3759 1.4761-3.0575 1.5892-4.0151 2.0301-4.013 3.5825 0.01752 0.61011 1.584 1.2457 2.928 1.4123 2.9867 0.77052 0.27121 0.17571 0.69334-0.97695 0.69334-1.1726 0-1.751-0.42965-0.94169-0.69944 0.18607-0.06202 0.24267-0.36202 0.12576-0.66667-0.15579-0.40598-0.57882-0.5539-1.5841-0.5539-1.0053 0-1.4283 0.14792-1.5841 0.5539-0.1169 0.30464-0.06031 0.60464 0.12576 0.66667 0.76142 0.25381 0.26339 0.69944-0.78169 0.69944-0.616 0-1.12-0.144-1.12-0.32zm4.2959-2.96c-0.125-0.396-0.39473-1.2053-0.59939-1.7985l-0.37211-1.0785-0.405 1.3518c-0.22275 0.74348-0.48214 1.5528-0.57642 1.7985-0.12752 0.33231 0.12967 0.44669 1.0044 0.44669 1.0734 0 1.156-0.06273 0.94852-0.72zm4.3441 2.96c0-0.176 0.216-0.32 0.48-0.32 0.39111 0 0.48-0.53333 0.48-2.88 0-2.8377-0.01142-2.88-0.77875-2.88-0.6055 0-0.80127 0.19028-0.88 0.85532-0.15971 1.3491-0.90125 1.3255-0.90125-0.02866v-1.1467h6.4v1.12c0 1.3701-0.58395 1.4802-0.848 0.16-0.14866-0.7433-0.36356-0.96-0.952-0.96-0.7437 0-0.76 0.06175-0.76 2.88 0 2.6667 0.04741 2.88 0.64 2.88 0.352 0 0.64 0.144 0.64 0.32s-0.792 0.32-1.76 0.32-1.76-0.144-1.76-0.32zm5.44 0c0-0.176 0.216-0.32 0.48-0.32 0.76599 0 0.69227-5.2846-0.08-5.7344-0.41359-0.2409 0.1302-0.32872 2.08-0.3359 2.4299-9e-3 2.64 0.0412 2.64 0.63027 0 0.74983-0.4896 0.85349-0.75572 0.16-0.11561-0.30128-0.60495-0.48-1.3142-0.48-1.105 0-1.13 0.02831-1.13 1.28 0 1.152 0.08 1.28 0.8 1.28 0.44 0 0.8-0.144 0.8-0.32s0.216-0.32 0.48-0.32c0.32 0 0.48 0.32 0.48 0.96s-0.16 0.96-0.48 0.96c-0.264 0-0.48-0.144-0.48-0.32s-0.36-0.32-0.8-0.32c-0.72 0-0.8 0.128-0.8 1.28v1.28h1.4184c1.1601 0 1.4573-0.12245 1.6318-0.67221 0.14223-0.44814 0.32002-0.56555 0.53335-0.35221 0.176 0.176 0.22399 0.6225 0.10665 0.99221-0.19454 0.61294-0.45129 0.67221-2.9118 0.67221-1.5856 0-2.6984-0.13196-2.6984-0.32zm8.3742-0.24c-0.1586-0.308-0.61428-1.568-1.0126-2.8s-0.94398-2.492-1.2125-2.8c-0.45636-0.52346-0.38703-0.56 1.0625-0.56 1.3133 0 1.4686 0.06125 1.0145 0.4-0.49768 0.37121-0.48201 0.57026 0.21772 2.7652l0.754 2.3652 0.71353-2.1442c0.68199-2.0494 0.68869-2.1716 0.15152-2.7652-0.54893-0.60656-0.52593-0.62101 0.98875-0.62101 1.3056 0 1.4683 0.06324 1.029 0.4-0.47941 0.3675-0.46629 0.5755 0.1615 2.56 0.37582 1.188 0.76565 2.16 0.86629 2.16 0.10064 0 0.43367-0.95577 0.74005-2.1239 0.41907-1.5978 0.46742-2.232 0.19517-2.56-0.29462-0.35499-0.13717-0.43606 0.84688-0.43606 1.1215 0 1.174 0.04044 0.72684 0.56-0.26506 0.308-0.86803 1.82-1.3399 3.36-1.0992 3.5872-1.7154 3.7616-2.5821 0.73093-0.32544-1.138-0.69393-2.0059-0.81886-1.9287-0.12494 0.07721-0.47068 1.0083-0.76832 2.0691-0.55213 1.9678-1.173 2.4579-1.7339 1.3687zm7.3058 0.26667c0-0.16133 0.13637-0.34133 0.30305-0.4 0.16668-0.05867 0.80321-1.4027 1.4145-2.9867 0.92402-2.3943 1.228-2.88 1.8024-2.88 0.57441 0 0.8784 0.48573 1.8024 2.88 0.61132 1.584 1.2479 2.928 1.4145 2.9867 0.77052 0.2712 0.17571 0.69333-0.97695 0.69333-1.1726 0-1.751-0.42965-0.94169-0.69944 0.18607-0.06202 0.24267-0.36202 0.12576-0.66667-0.29893-0.779-2.9537-0.78968-3.2517-0.01309-0.11587 0.30194-0.04076 0.5964 0.17004 0.66667 0.7946 0.26486 0.32816 0.71252-0.74243 0.71252-0.616 0-1.12-0.132-1.12-0.29333zm4.2959-2.9867c-0.125-0.396-0.39473-1.2053-0.59939-1.7985l-0.37211-1.0785-0.405 1.3518c-0.22275 0.74348-0.48214 1.5528-0.57642 1.7985-0.12752 0.33231 0.12967 0.44669 1.0044 0.44669 1.0734 0 1.156-0.06273 0.94852-0.72zm4.3441 2.96c0-0.176 0.216-0.32 0.48-0.32 1.2285 0-0.29382-4.2471-2.036-5.68-0.40415-0.33241-0.24618-0.39573 0.93484-0.37474 0.78164 0.01389 1.2433 0.09718 1.0259 0.18508-0.3012 0.12179-0.27264 0.40132 0.11999 1.1747 0.97144 1.9135 1.1054 1.9483 1.9634 0.50943 0.64449-1.0808 0.70985-1.3792 0.3517-1.6061-0.29327-0.18576-0.01955-0.28027 0.82128-0.28353 1.0755-0.0042 1.1838 0.05399 0.73549 0.3951-0.28912 0.22-0.94795 1.2109-1.4641 2.202-0.96805 1.8589-1.0497 3.478-0.17529 3.478 0.24348 0 0.4427 0.144 0.4427 0.32s-0.72 0.32-1.6 0.32-1.6-0.144-1.6-0.32zm-60.16-1.3917c0-0.90702 2.0292-2.7459 4.2263-3.8299 3.7939-1.8718 7.8633-2.5983 9.4933-1.6946 0.69004 0.38255 0.51433 0.43788-1.92 0.60455-3.4807 0.23831-6.5424 1.2626-6.5424 2.1886 0 0.57173 0.146 0.64083 1.0456 0.49485 1.2997-0.21092 1.6587 0.28898 0.8141 1.1336-0.46556 0.46556-1.1108 0.65368-2.3588 0.68772-1.5547 0.04241-1.7277-0.02156-1.8202-0.67314-0.05624-0.396 0.02424-0.72 0.17884-0.72 0.1546 0 0.56062-0.22776 0.90226-0.50612 0.61235-0.49894 0.61208-0.5029-0.01884-0.27871-0.352 0.12508-0.928 0.25677-1.28 0.29264-0.352 0.03588-0.64369 0.1973-0.6482 0.35871-0.01254 0.44864-2.0718 2.3787-2.0718 1.9418zm0.98826-3.5485c0.25817-1.3964-0.098-5.422-0.66651-7.5333-0.20501-0.76136-0.23423-1.4997-0.07088-1.7916 0.19568-0.34966 0.57824 0.63324 1.2935 3.3233 0.5586 2.1009 1.0156 4.0589 1.0156 4.3511s0.25999 0.63468 0.57775 0.76101c0.48282 0.19195 0.33394 0.39068-0.90602 1.2095l-1.4838 0.97979z" fill="#2ab272"/>
  <path d="m8.64 46.044c0-2.0972 2.4283-17.68 3.3851-21.724 0.98204-4.1497 1.6276-5.9401 3.7155-10.304l1.6382-3.4239-1.1694-3.0928c-1.394-3.6869-1.4346-4.2145-0.35527-4.6248 2.057-0.78208 2.2394-0.7466 2.8009 0.54516 0.29175 0.67111 0.69271 1.8958 0.89102 2.7216l0.36058 1.5014 0.68669-0.65197c1.3315-1.2642 3.871-2.4786 5.9661-2.853 2.6628-0.47587 4.9755 0.10703 7.26 1.8298 1.794 1.3529 2.1344 1.6974 3.589 3.6323 0.81129 1.0792 0.62673 0.9422-0.73659-0.5467-4.4762-4.8886-10.149-5.3985-15.236-1.3696l-1.2297 0.97393 0.61717 2.2271c0.78236 2.8232 0.77409 3.0866-0.10283 3.2768-0.396 0.08588-0.96268 0.2585-1.2593 0.38359-0.42768 0.18037-0.62027-0.0429-0.93065-1.0788-0.21526-0.71846-0.51097-1.3063-0.65715-1.3063-0.4392 0-2.7094 4.7917-3.9256 8.2857-1.3853 3.98-2.3629 8.7916-3.7127 18.274-0.56368 3.96-1.1531 7.3368-1.3098 7.504-0.17493 0.18667-0.28488 0.11706-0.28488-0.18035zm5.76-1.1977c0-0.15071 0.972-0.51358 2.16-0.80637s2.208-0.67349 2.2667-0.84598c0.1883-0.55364 0.69333-0.33458 0.69333 0.30073 0 0.49833-0.41986 0.70984-2.2232 1.12-2.5558 0.5813-2.8968 0.60857-2.8968 0.23163zm63.36-0.81592c-2.2835-0.8601-2.9656-1.1712-2.841-1.2958 0.07029-0.07029 0.91826 0.14504 1.8844 0.47851 2.4427 0.84313 3.6923 0.80062 4.6511-0.15826 0.85529-0.85529 1.054-2.5413 0.44739-3.7956-0.31803-0.65753-0.29906-0.65418 0.32 0.05649 0.72877 0.83662 0.86155 2.4478 0.30278 3.6742-0.65165 1.4302-2.6002 1.8557-4.7647 1.0404zm-56.455-0.78881c-0.09475-0.15332 0.43365-0.36003 1.1742-0.45936 0.74058-0.09933 1.3976-0.3339 1.4601-0.52125 0.18981-0.56944 0.70022-0.38039 0.70022 0.25936 0 0.416-0.30667 0.66133-1 0.8-1.3787 0.27573-2.1311 0.25035-2.3345-0.07875zm51.558-0.0303c-0.66895-0.12951-1.3889-0.40948-1.6-0.62216-0.29878-0.30108-0.27747-0.3532 0.09627-0.23542 1.5437 0.48649 2.56 0.49433 2.56 0.01978 0-0.26999 0.144-0.40189 0.32-0.29311 0.36936 0.22828 0.43948 1.4583 0.08 1.4032-0.132-0.02022-0.78732-0.14276-1.4563-0.27227zm-47.584-0.59105c0-0.18362 0.828-0.43426 1.84-0.55698 1.012-0.12273 2.092-0.35415 2.4-0.51428 0.41122-0.2138 0.56-0.16636 0.56 0.17855 0 0.55384-0.48883 0.72075-2.96 1.0107-1.2022 0.14105-1.84 0.10016-1.84-0.11796zm-7.68-1.9426c0-1.6132 0.09155-1.9066 0.63968-2.05 0.76995-0.20135 1.2118 0.33624 0.5006 0.60913-0.35939 0.13791-0.50028 0.63294-0.50028 1.7577 0 0.86117-0.144 1.5658-0.32 1.5658-0.17707 0-0.32-0.84089-0.32-1.8827zm48.4 1.494c-1.1-0.16894-2-0.44512-2-0.61372 0-0.17026 0.49796-0.22898 1.12-0.13206 0.616 0.09597 1.624 0.25302 2.24 0.349 0.67699 0.10548 1.12 0.04219 1.12-0.16 0-0.18398 0.144-0.3345 0.32-0.3345s0.32 0.288 0.32 0.64c0 0.71012-0.08686 0.71712-3.12 0.25129zm-34.96-0.17973c0-0.45141 0.80511-0.71156 2.2022-0.71156 0.6544 0 1.3602-0.1704 1.5685-0.37867 0.47173-0.47173 0.85309-0.13752 0.59891 0.52486-0.12955 0.3376-0.62287 0.49518-1.5595 0.49817-0.75352 0.0026-1.694 0.0912-2.09 0.19732-0.39866 0.10684-0.72 0.04876-0.72-0.13013zm45.432-0.57239c-0.3931-1.0339-0.40975-1.6537-0.03339-1.2432 0.33734 0.36798 0.76421 2.064 0.51949 2.064-0.09571 0-0.31445-0.36937-0.4861-0.82083zm-15.992 0.16944c-1.144-0.12859-2.98-0.25063-4.08-0.27121-1.1643-0.02176-2-0.17829-2-0.37459 0-0.22972 1.1474-0.26486 3.6-0.11024 1.98 0.12482 3.816 0.24056 4.08 0.25719 0.31636 0.01994 0.51434-0.32637 0.58073-1.0158 0.11249-1.1683 0.69927-1.1021 0.69927 0.07879 0 0.89935-0.30682 1.7866-0.59424 1.7185-0.11317-0.02685-1.1418-0.15401-2.2858-0.2826zm11.895-1.7484c-0.52423-0.96789-0.82031-1.6777-0.65795-1.5774 0.32945 0.20361 1.975 3.3371 1.7524 3.3371-0.07774 0-0.57027-0.79191-1.0945-1.7598zm-49.914-0.1602c-0.54704-0.88-1.1468-1.6-1.3329-1.6s0.132-0.42019 0.70678-0.93375c0.91708-0.81941 1.045-1.1303 1.045-2.539 0-1.4295 0.04254-1.5287 0.38866-0.90625 0.21376 0.38443 0.39322 1.059 0.3988 1.499 0.01187 0.93644-1.0897 2.88-1.6324 2.88-0.24127 0-0.19979 0.19902 0.11671 0.56 0.5238 0.5974 1.6257 2.64 1.4242 2.64-0.06621 0-0.56796-0.72-1.115-1.6zm16.579 1.28c0-0.176 0.36-0.32 0.8-0.32s0.80614-0.036 0.81364-0.08c0.0075-0.044 0.09503-1.808 0.19451-3.92 0.09947-2.112 0.20133-3.8581 0.22636-3.8802 0.02502-0.02214 0.36949-0.13984 0.76549-0.26156 0.53456-0.16431 0.72-0.09213 0.72 0.28025 0 0.27586-0.19518 0.50156-0.43373 0.50156-0.4656 0-0.83976 2.7308-0.844 6.16l-0.0023 1.84h-1.12c-0.616 0-1.12-0.144-1.12-0.32zm-10.56-3.9627c0-3.4854 0.06745-3.9865 0.56-4.1602 0.308-0.10864 0.74-0.28144 0.96-0.38399 0.22294-0.10392 0.4 0.02128 0.4 0.28289 0 0.25814-0.288 0.54466-0.64 0.63671-0.59357 0.15522-0.64 0.43648-0.64 3.8773 0 2.26-0.12507 3.71-0.32 3.71-0.19611 0-0.32-1.5342-0.32-3.9627zm16.88 3.4596c-0.484-0.26258-0.88-0.54124-0.88-0.61927 0-0.07802 0.396 0.01334 0.88 0.20301 0.97812 0.38333 4.318 0.45357 5.8253 0.12252 0.92521-0.20321 0.97471-0.29404 0.97471-1.7887 0-1.1863 0.11837-1.5746 0.48-1.5746 0.264 0 0.4822-0.18 0.4849-0.4 0.0033-0.26666 0.1083-0.24 0.3151 0.08 0.43974 0.68046 0.39316 0.96-0.16 0.96-0.36103 0-0.48 0.38667-0.48 1.56 0 1.4912-0.0441 1.5688-1 1.76-1.8387 0.36774-5.5232 0.19436-6.44-0.30303zm21.84-1.257c0-1.8249 0.0562-1.8971 1.12-1.44 0.54727 0.23517 0.55886 0.27828 0.08 0.29751-0.44704 0.01795-0.56 0.31297-0.56 1.4625 0 0.792-0.144 1.44-0.32 1.44s-0.32-0.792-0.32-1.76zm-33.92-2.0989c0-2.0644 0.11477-3.148 0.32-3.0211 0.17677 0.10925 0.32 1.55 0.32 3.2189 0 1.8007-0.12926 3.0211-0.32 3.0211-0.19212 0-0.32-1.2863-0.32-3.2189zm44.8 2.2169c-0.792-0.53996-1.656-1.2028-1.92-1.473-0.264-0.27019 0.42 0.10951 1.52 0.84378 1.1 0.73427 2 1.4017 2 1.4831 0 0.22776-0.06187 0.19474-1.6-0.8539zm-20.424-0.83803c-0.05543-1.6658-0.04777-1.68 0.90409-1.68 0.528 0 0.96 0.144 0.96 0.32s-0.35172 0.32-0.7816 0.32c-0.68698 0-0.79643 0.16464-0.90409 1.36-0.11711 1.3002-0.12495 1.2862-0.1784-0.32zm-11.52 0c-0.92789-1.8106-0.59807-4.4637 0.66485-5.3483 0.78879-0.55249 2.6573-0.6609 2.9596-0.17172 0.1177 0.19044-0.26334 0.32-0.94111 0.32-0.70133 0-1.3779 0.23903-1.761 0.62215-0.81062 0.81062-1.1491 2.6898-0.73027 4.0544 0.35965 1.1719 0.26811 1.4214-0.19205 0.52345zm13.704-0.4c0-0.176 0.20772-0.32 0.4616-0.32 0.31051 0 0.5017-0.44515 0.58409-1.36 0.11711-1.3002 0.12495-1.2862 0.1784 0.32 0.04943 1.4853-0.01827 1.68-0.58409 1.68-0.352 0-0.64-0.144-0.64-0.32zm-20.939-0.5462c-0.17366-0.45606-0.1369-0.49282 0.17914-0.17914 0.2187 0.21707 0.31702 0.47528 0.21849 0.5738-0.09853 0.09852-0.27746-0.07908-0.39763-0.39467zm-21.301-2.1738v-2.4h1.1011c0.60561 0 1.1849 0.13556 1.2873 0.30124 0.1024 0.16569-0.2131 0.27369-0.70112 0.24-0.87971-0.06072-0.8881-0.04278-0.98191 2.0988-0.1289 2.9425-0.70538 2.7463-0.70538-0.24zm53.86 1.6273c0.96294-0.89242 1.3324-2.0525 1.0533-3.3073l-0.19571-0.88 0.51279 0.92114c0.87994 1.5806-0.07384 4.0389-1.5671 4.0389-0.58188 0-0.56483-0.067 0.19665-0.77273zm-22.5 0.13273c0-0.176 0.216-0.32 0.48-0.32s0.48 0.144 0.48 0.32-0.216 0.32-0.48 0.32-0.48-0.144-0.48-0.32zm-11.224-1.2-0.77578-0.88 0.88 0.77578c0.82249 0.72508 1.0267 0.98422 0.77578 0.98422-0.05732 0-0.45332-0.396-0.88-0.88zm29.704 0.69587c-0.132-0.1334-0.24-1.0825-0.24-2.1092 0-1.7366 0.05149-1.8667 0.73884-1.8667 0.40636 0 1.0046 0.19432 1.3294 0.43183 0.53436 0.39073 0.49611 0.41797-0.40186 0.28617l-0.99242-0.14565-0.09698 1.823c-0.05334 1.0027-0.20498 1.7139-0.33698 1.5805zm-9.7841-2.2959-0.05591-1.68h1.44c0.792 0 1.44 0.144 1.44 0.32s-0.56772 0.32-1.2616 0.32c-1.2517 0-1.2626 0.01069-1.3841 1.36-0.11711 1.3002-0.12495 1.2862-0.1784-0.32zm22.984 1.2c0-0.176 0.216-0.32 0.48-0.32 0.34666 0 0.48-0.35556 0.48-1.28 0-0.704 0.144-1.28 0.32-1.28s0.32 0.72 0.32 1.6c0 1.4933-0.05333 1.6-0.8 1.6-0.44 0-0.8-0.144-0.8-0.32zm-3.3954-0.45673c-0.09639-0.2512-0.12788-0.7912-0.06996-1.2 0.08278-0.58428 0.33647-0.76537 1.186-0.84658 0.59438-0.05682 1.2352 0.05118 1.424 0.24 0.24441 0.24441 0.05961 0.34331-0.64151 0.34331-1.0993 0-1.8721 0.69829-1.589 1.4359 0.10217 0.26624 0.11376 0.48407 0.02576 0.48407-0.088 0-0.23887-0.20553-0.33526-0.45673zm-41.405-1.4633c-0.55758-0.704-0.94178-1.28-0.85378-1.28s0.6162 0.576 1.1738 1.28c0.55758 0.704 0.94178 1.28 0.85378 1.28s-0.6162-0.576-1.1738-1.28zm14.72 0.98028c0-0.18715 0.36-0.34028 0.8-0.34028 0.68666 0 0.8-0.14506 0.8-1.024 0-0.73217 0.09833-0.92567 0.34502-0.67898 0.18976 0.18976 0.29776 0.75856 0.24 1.264-0.08873 0.77641-0.26636 0.93454-1.145 1.0193-0.58418 0.05632-1.04-0.04886-1.04-0.24zm10.56-0.34028c0-0.176 0.216-0.32 0.48-0.32 0.30257 0 0.49179-0.32529 0.5119-0.88l0.0319-0.88 0.2562 0.8c0.43032 1.3437 0.35342 1.6-0.48 1.6-0.44 0-0.8-0.144-0.8-0.32zm-35.68-0.96c-0.10877-0.176 0.03523-0.32 0.32-0.32 0.28477 0 0.42877 0.144 0.32 0.32s-0.25277 0.32-0.32 0.32c-0.06723 0-0.21123-0.144-0.32-0.32zm13.28-0.32c0-0.176 0.144-0.32 0.32-0.32s0.32 0.144 0.32 0.32-0.144 0.32-0.32 0.32-0.32-0.144-0.32-0.32zm15.36 0c0-0.176 0.216-0.32 0.48-0.32s0.48 0.144 0.48 0.32-0.216 0.32-0.48 0.32-0.48-0.144-0.48-0.32zm-19.688-2.6694c-2.3229-1.0536-2.2745-4.9916 0.07267-5.9112 1.055-0.41334 1.4546-0.46793 3.0551-0.41736 1.0566 0.03338 1.2 0.13354 1.2 0.83792 0 0.49778-0.18133 0.8-0.48 0.8-0.264 0-0.48-0.21326-0.48-0.4739 0-0.64616-1.4713-0.96746-2.43-0.53064-0.97478 0.44414-1.5154 1.7876-1.2895 3.2042 0.25434 1.5948 1.0589 2.3305 2.4232 2.2158 1.0246-0.08613 1.1462-0.19783 1.2366-1.1355 0.08386-0.86971-0.0078-1.04-0.56-1.04-0.36315 0-0.66028-0.144-0.66028-0.32s0.648-0.32 1.44-0.32 1.44 0.144 1.44 0.32-0.144 0.32-0.32 0.32-0.32 0.4955-0.32 1.1011c0 0.60561-0.13206 1.1827-0.29346 1.2825-0.70949 0.43849-3.1268 0.47864-4.0343 0.06701zm4.9678 0.10939c0-0.176 0.1197-0.32 0.26599-0.32 0.14629 0 0.81055-1.3759 1.4761-3.0575 1.5892-4.0151 2.0301-4.013 3.5825 0.01752 0.61011 1.584 1.2457 2.928 1.4123 2.9867 0.77052 0.27121 0.17571 0.69334-0.97695 0.69334-1.1726 0-1.751-0.42965-0.94169-0.69944 0.18607-0.06202 0.24267-0.36202 0.12576-0.66667-0.15579-0.40598-0.57882-0.5539-1.5841-0.5539-1.0053 0-1.4283 0.14792-1.5841 0.5539-0.1169 0.30464-0.06031 0.60464 0.12576 0.66667 0.76142 0.25381 0.26339 0.69944-0.78169 0.69944-0.616 0-1.12-0.144-1.12-0.32zm4.2959-2.96c-0.125-0.396-0.39473-1.2053-0.59939-1.7985l-0.37211-1.0785-0.405 1.3518c-0.22275 0.74348-0.48214 1.5528-0.57642 1.7985-0.12752 0.33231 0.12967 0.44669 1.0044 0.44669 1.0734 0 1.156-0.06273 0.94852-0.72zm4.3441 2.96c0-0.176 0.216-0.32 0.48-0.32 0.39111 0 0.48-0.53333 0.48-2.88 0-2.8377-0.01142-2.88-0.77875-2.88-0.6055 0-0.80127 0.19028-0.88 0.85532-0.15971 1.3491-0.90125 1.3255-0.90125-0.02866v-1.1467h6.4v1.12c0 1.3701-0.58395 1.4802-0.848 0.16-0.14866-0.7433-0.36356-0.96-0.952-0.96-0.7437 0-0.76 0.06175-0.76 2.88 0 2.6667 0.04741 2.88 0.64 2.88 0.352 0 0.64 0.144 0.64 0.32s-0.792 0.32-1.76 0.32-1.76-0.144-1.76-0.32zm5.44 0c0-0.176 0.216-0.32 0.48-0.32 0.76599 0 0.69227-5.2846-0.08-5.7344-0.41359-0.2409 0.1302-0.32872 2.08-0.3359 2.4299-9e-3 2.64 0.0412 2.64 0.63027 0 0.74983-0.4896 0.85349-0.75572 0.16-0.11561-0.30128-0.60495-0.48-1.3142-0.48-1.105 0-1.13 0.02831-1.13 1.28 0 1.152 0.08 1.28 0.8 1.28 0.44 0 0.8-0.144 0.8-0.32s0.216-0.32 0.48-0.32c0.32 0 0.48 0.32 0.48 0.96s-0.16 0.96-0.48 0.96c-0.264 0-0.48-0.144-0.48-0.32s-0.36-0.32-0.8-0.32c-0.72 0-0.8 0.128-0.8 1.28v1.28h1.4184c1.1601 0 1.4573-0.12245 1.6318-0.67221 0.14223-0.44814 0.32002-0.56555 0.53335-0.35221 0.176 0.176 0.22399 0.6225 0.10665 0.99221-0.19454 0.61294-0.45129 0.67221-2.9118 0.67221-1.5856 0-2.6984-0.13196-2.6984-0.32zm8.3742-0.24c-0.1586-0.308-0.61428-1.568-1.0126-2.8s-0.94398-2.492-1.2125-2.8c-0.45636-0.52346-0.38703-0.56 1.0625-0.56 1.3133 0 1.4686 0.06125 1.0145 0.4-0.49768 0.37121-0.48201 0.57026 0.21772 2.7652l0.754 2.3652 0.71353-2.1442c0.68199-2.0494 0.68869-2.1716 0.15152-2.7652-0.54893-0.60656-0.52593-0.62101 0.98875-0.62101 1.3056 0 1.4683 0.06324 1.029 0.4-0.47941 0.3675-0.46629 0.5755 0.1615 2.56 0.37582 1.188 0.76565 2.16 0.86629 2.16 0.10064 0 0.43367-0.95577 0.74005-2.1239 0.41907-1.5978 0.46742-2.232 0.19517-2.56-0.29462-0.35499-0.13717-0.43606 0.84688-0.43606 1.1215 0 1.174 0.04044 0.72684 0.56-0.26506 0.308-0.86803 1.82-1.3399 3.36-1.0992 3.5872-1.7154 3.7616-2.5821 0.73093-0.32544-1.138-0.69393-2.0059-0.81886-1.9287-0.12494 0.07721-0.47068 1.0083-0.76832 2.0691-0.55213 1.9678-1.173 2.4579-1.7339 1.3687zm7.3058 0.26667c0-0.16133 0.13637-0.34133 0.30305-0.4 0.16668-0.05867 0.80321-1.4027 1.4145-2.9867 0.92402-2.3943 1.228-2.88 1.8024-2.88 0.57441 0 0.8784 0.48573 1.8024 2.88 0.61132 1.584 1.2479 2.928 1.4145 2.9867 0.77052 0.2712 0.17571 0.69333-0.97695 0.69333-1.1726 0-1.751-0.42965-0.94169-0.69944 0.18607-0.06202 0.24267-0.36202 0.12576-0.66667-0.29893-0.779-2.9537-0.78968-3.2517-0.01309-0.11587 0.30194-0.04076 0.5964 0.17004 0.66667 0.7946 0.26486 0.32816 0.71252-0.74243 0.71252-0.616 0-1.12-0.132-1.12-0.29333zm4.2959-2.9867c-0.125-0.396-0.39473-1.2053-0.59939-1.7985l-0.37211-1.0785-0.405 1.3518c-0.22275 0.74348-0.48214 1.5528-0.57642 1.7985-0.12752 0.33231 0.12967 0.44669 1.0044 0.44669 1.0734 0 1.156-0.06273 0.94852-0.72zm4.3441 2.96c0-0.176 0.216-0.32 0.48-0.32 1.2285 0-0.29382-4.2471-2.036-5.68-0.40415-0.33241-0.24618-0.39573 0.93484-0.37474 0.78164 0.01389 1.2433 0.09718 1.0259 0.18508-0.3012 0.12179-0.27264 0.40132 0.11999 1.1747 0.97144 1.9135 1.1054 1.9483 1.9634 0.50943 0.64449-1.0808 0.70985-1.3792 0.3517-1.6061-0.29327-0.18576-0.01955-0.28027 0.82128-0.28353 1.0755-0.0042 1.1838 0.05399 0.73549 0.3951-0.28912 0.22-0.94795 1.2109-1.4641 2.202-0.96805 1.8589-1.0497 3.478-0.17529 3.478 0.24348 0 0.4427 0.144 0.4427 0.32s-0.72 0.32-1.6 0.32-1.6-0.144-1.6-0.32zm-60.16-1.3917c0-0.90702 2.0292-2.7459 4.2263-3.8299 3.7939-1.8718 7.8633-2.5983 9.4933-1.6946 0.69004 0.38255 0.51433 0.43788-1.92 0.60455-3.4807 0.23831-6.5424 1.2626-6.5424 2.1886 0 0.57173 0.146 0.64083 1.0456 0.49485 1.2997-0.21092 1.6587 0.28898 0.8141 1.1336-0.46556 0.46556-1.1108 0.65368-2.3588 0.68772-1.5547 0.04241-1.7277-0.02156-1.8202-0.67314-0.05624-0.396 0.02424-0.72 0.17884-0.72 0.1546 0 0.56062-0.22776 0.90226-0.50612 0.61235-0.49894 0.61208-0.5029-0.01884-0.27871-0.352 0.12508-0.928 0.25677-1.28 0.29264-0.352 0.03588-0.64369 0.1973-0.6482 0.35871-0.01254 0.44864-2.0718 2.3787-2.0718 1.9418zm0.98826-3.5485c0.25817-1.3964-0.098-5.422-0.66651-7.5333-0.20501-0.76136-0.23423-1.4997-0.07088-1.7916 0.19568-0.34966 0.57824 0.63324 1.2935 3.3233 0.5586 2.1009 1.0156 4.0589 1.0156 4.3511s0.25999 0.63468 0.57775 0.76101c0.48282 0.19195 0.33394 0.39068-0.90602 1.2095l-1.4838 0.97979z" fill="#a77320"/>
  <path d="m8.64 46.044c0-2.0972 2.4283-17.68 3.3851-21.724 0.98204-4.1497 1.6276-5.9401 3.7155-10.304l1.6382-3.4239-1.1694-3.0928c-1.394-3.6869-1.4346-4.2145-0.35527-4.6248 2.057-0.78208 2.2394-0.7466 2.8009 0.54516 0.29175 0.67111 0.69271 1.8958 0.89102 2.7216l0.36058 1.5014 0.68669-0.65197c1.3315-1.2642 3.871-2.4786 5.9661-2.853 2.6628-0.47587 4.9755 0.10703 7.26 1.8298 1.794 1.3529 2.1344 1.6974 3.589 3.6323 0.81129 1.0792 0.62673 0.9422-0.73659-0.5467-4.4762-4.8886-10.149-5.3985-15.236-1.3696l-1.2297 0.97393 0.61717 2.2271c0.33944 1.2249 0.61717 2.3463 0.61717 2.4919 0 0.22536-1.9957 1.3433-2.398 1.3433-0.07496 0-0.30887-0.576-0.5198-1.28-0.21092-0.704-0.5031-1.28-0.64927-1.28-0.4392 0-2.7094 4.7917-3.9256 8.2857-1.3853 3.98-2.3629 8.7916-3.7127 18.274-0.56368 3.96-1.1531 7.3368-1.3098 7.504-0.17493 0.18667-0.28488 0.11706-0.28488-0.18035zm5.76-1.2276c0-0.16714 0.87452-0.47595 1.9434-0.68623 1.0689-0.21028 2.1386-0.57753 2.3771-0.81611 0.59185-0.59185 0.79948-0.54495 0.79948 0.18059 0 0.49833-0.41986 0.70984-2.2232 1.12-2.5912 0.58935-2.8968 0.61064-2.8968 0.20175zm63.256-0.80063c-0.6731-0.24004-1.3211-0.54466-1.44-0.67694-0.1189-0.13228 0.0653-0.13877 0.40934-0.01443 1.0923 0.39478 3.3 0.60395 4.1425 0.39249 1.3007-0.32646 1.9371-2.0452 1.4355-3.8766-0.24418-0.89145-0.22942-0.91564 0.20674-0.33884 0.25833 0.34164 0.46969 1.0909 0.46969 1.6649 0 2.8583-2.0552 3.9794-5.2238 2.8494zm-56.376-0.81548c-0.11383-0.18419 0.18373-0.32084 0.70111-0.32197 0.49439-9.6e-4 1.2949-0.20854 1.7789-0.46102 0.80544-0.42016 0.88-0.40982 0.88 0.12197 0 0.8187-2.9089 1.391-3.36 0.66102zm51.584 0.01094c-0.66895-0.12951-1.3889-0.40948-1.6-0.62216-0.29878-0.30108-0.27747-0.3532 0.09627-0.23542 1.5437 0.48649 2.56 0.49433 2.56 0.01978 0-0.26999 0.144-0.40189 0.32-0.29311 0.36936 0.22828 0.43948 1.4583 0.08 1.4032-0.132-0.02022-0.78732-0.14276-1.4563-0.27227zm2.1785-0.32726c-0.11211-0.1814 0.01635-0.23504 0.30111-0.12576 0.55437 0.21273 0.6558 0.4421 0.19551 0.4421-0.16561 0-0.38909-0.14235-0.49662-0.31634zm-49.762-0.26378c0-0.18362 0.828-0.42326 1.84-0.53255s2.092-0.33687 2.4-0.50574c0.41631-0.22825 0.56-0.18871 0.56 0.15411 0 0.54516-0.49578 0.71302-2.96 1.0021-1.2022 0.14105-1.84 0.10016-1.84-0.11796zm-7.68-1.9799c0-1.8837 0.01665-1.9198 0.88-1.9098 0.79999 0.0092 0.82908 0.04883 0.32 0.43528-0.39179 0.29741-0.56 0.87108-0.56 1.9098 0 0.8166-0.144 1.4847-0.32 1.4847-0.17778 0-0.32-0.85334-0.32-1.92zm48.4 1.5313c-1.1-0.16894-2-0.44133-2-0.60532 0-0.16399 0.324-0.23128 0.72-0.14953 2.0716 0.42763 3.76 0.51887 3.76 0.20317 0-0.18678 0.144-0.33961 0.32-0.33961s0.32 0.288 0.32 0.64c0 0.71012-0.08686 0.71712-3.12 0.25129zm-34.96-0.17973c0-0.46884 0.81848-0.71156 2.3995-0.71156 0.82021 0 1.4456-0.16349 1.53-0.4 0.07857-0.22 0.25236-0.29821 0.3862-0.1738 0.61438 0.5711-0.18019 1.2139-1.5057 1.2182-0.75352 0.0026-1.694 0.0912-2.09 0.19732-0.39866 0.10684-0.72 0.04876-0.72-0.13013zm31.557-0.95156c0.34645-1.4568 0.74192-1.9746 0.75318-0.98617 0.01197 1.0498-0.2814 1.8662-0.6706 1.8662-0.16052 0-0.19768-0.396-0.08258-0.88zm-5.8771 0.3224c-1.276-0.06074-2.32-0.22041-2.32-0.35482 0-0.30724 5.2681-0.09259 6.56 0.26729 0.86505 0.24097 0.81757 0.26399-0.48 0.2327-0.792-0.0191-2.484-0.08442-3.76-0.14516zm15.655-1.5222c-0.52423-0.96789-0.82031-1.6777-0.65795-1.5774 0.32945 0.20361 1.975 3.3371 1.7524 3.3371-0.07774 0-0.57027-0.79191-1.0945-1.7598zm-49.625 0.21839c-0.34271-0.67177-0.85524-1.4141-1.1389-1.6495-0.46626-0.38697-0.43008-0.5176 0.37661-1.3596 0.72683-0.75865 0.89244-1.2206 0.89244-2.4895 0-1.3924 0.04129-1.4837 0.38866-0.85899 0.21376 0.38443 0.39322 1.059 0.3988 1.499 0.01187 0.93644-1.0897 2.88-1.6324 2.88-0.24127 0-0.19979 0.19902 0.11671 0.56 0.57956 0.661 1.6162 2.64 1.3829 2.64-0.08894 0-0.44212-0.54963-0.78483-1.2214zm16.466 0.93247c0.1672-0.15892 0.592-0.34064 0.944-0.40383 0.59004-0.10592 0.64678-0.40187 0.72681-3.7911 0.07067-2.9925 0.18619-3.7506 0.62116-4.0762 0.70929-0.53095 1.052-0.50489 1.052 0.08 0 0.264-0.19518 0.48-0.43373 0.48-0.4656 0-0.83976 2.7308-0.844 6.16l-0.0023 1.84h-1.184c-0.7156 0-1.0637-0.11431-0.88-0.28894zm37.289-0.21772c0.01536-0.37278 0.09118-0.44861 0.19333-0.19334 0.09244 0.231 0.08107 0.507-0.02525 0.61334-0.10634 0.10633-0.18196-0.08267-0.16807-0.42zm-48.025-3.776c0-3.4854 0.06745-3.9865 0.56-4.1602 0.308-0.10864 0.74-0.28144 0.96-0.38399 0.22294-0.10392 0.4 0.02128 0.4 0.28289 0 0.25814-0.288 0.54466-0.64 0.63671-0.59357 0.15522-0.64 0.43648-0.64 3.8773 0 2.26-0.12507 3.71-0.32 3.71-0.19611 0-0.32-1.5342-0.32-3.9627zm17.386 3.7149c-0.20578-0.1309 1.0634-0.25785 2.8203-0.28211 1.757-0.02426 3.2564-0.106 3.332-0.18165 0.07566-0.07565 0.18732-0.7976 0.24815-1.6043 0.12175-1.6147 0.95516-2.875 1.3025-1.9697 0.27101 0.70623 0.2486 0.7656-0.28892 0.7656-0.36103 0-0.48 0.38667-0.48 1.56 0 1.4912-0.0441 1.5688-1 1.76-1.3788 0.27575-5.4774 0.24274-5.9341-0.0478zm21.574 0.06419c-0.132-0.13368-0.24-0.93906-0.24-1.7897 0-1.6092 0.06473-1.6801 1.12-1.2267 0.52361 0.225 0.54135 0.27911 0.09753 0.29751-0.41294 0.01712-0.56575 0.37342-0.64 1.4922-0.05364 0.80835-0.20553 1.3603-0.33753 1.2267zm-34.16-3.3175c0-1.5736 0.144-2.9501 0.32-3.0589 0.20481-0.12658 0.32 0.90334 0.32 2.8611 0 1.8259-0.12898 3.0589-0.32 3.0589-0.18947 0-0.32-1.167-0.32-2.8611zm26.941 0.72426c0.29736-0.07844 0.59978-0.52974 0.67205-1.0029 0.11862-0.7766 0.13607-0.75911 0.17935 0.17974 0.041 0.88921-0.05645 1.0346-0.67206 1.0029-0.51068-0.02634-0.56282-0.07858-0.17935-0.17974zm-21.32-0.64934c-0.17366-0.45606-0.1369-0.49282 0.17914-0.17914 0.2187 0.21707 0.31702 0.47528 0.21849 0.5738-0.09853 0.09852-0.27746-0.07908-0.39763-0.39467zm-21.301-2.1098v-2.464h1.1011c0.60561 0 1.1849 0.13556 1.2873 0.30124 0.1024 0.16569-0.2131 0.27369-0.70112 0.24-0.8682-0.05992-0.88939-0.01994-0.98486 1.8588-0.14862 2.9245-0.70243 2.975-0.70243 0.064zm54.09 1.3165c0.92106-0.92106 1.0037-1.1603 0.85522-2.4772l-0.1643-1.4577 0.48116 0.91834c0.83174 1.5874-0.12476 4.0361-1.5766 4.0361-0.52205 0-0.4609-0.15412 0.4045-1.0195zm-22.73 0.37952c0-0.176 0.144-0.32 0.32-0.32s0.32 0.144 0.32 0.32-0.144 0.32-0.32 0.32-0.32-0.144-0.32-0.32zm8.96 0.19424c0-0.30356 0.95788-0.45655 1.1286-0.18026 0.10402 0.16831-0.10736 0.30602-0.46975 0.30602-0.36239 0-0.65889-0.0566-0.65889-0.12576zm-12.004-1.6109c0.09221-0.86714 0.39028-1.8226 0.66238-2.1233 0.6084-0.67228 2.3854-1.0647 2.826-0.62412 0.21866 0.21867 0.01098 0.324-0.63884 0.324-1.3875 0-2.0529 0.62784-2.5656 2.4209l-0.45156 1.5791zm-8.1798 0.21661-0.77578-0.88 0.88 0.77578c0.82249 0.72508 1.0267 0.98422 0.77578 0.98422-0.05732 0-0.45332-0.396-0.88-0.88zm29.464-1.36c0-1.7923 0.04915-1.92 0.73884-1.92 0.40636 0 1.0046 0.19432 1.3294 0.43183 0.53337 0.39001 0.49281 0.41748-0.41884 0.28368l-1.0094-0.14815v1.6363c0 0.89998-0.144 1.6363-0.32 1.6363-0.17778 0-0.32-0.85333-0.32-1.92zm13.44 0.99556c0-0.15644 0.252-0.26444 0.56-0.24 0.4605 0.03655 0.54981-0.19721 0.50268-1.3156-0.03152-0.748 0.07647-1.36 0.24-1.36s0.29732 0.72 0.29732 1.6c0 1.4933-0.05333 1.6-0.8 1.6-0.44 0-0.8-0.128-0.8-0.28444zm-44.8-1.9556c-0.55758-0.704-0.94178-1.28-0.85378-1.28s0.6162 0.576 1.1738 1.28c0.55758 0.704 0.94178 1.28 0.85378 1.28s-0.6162-0.576-1.1738-1.28zm14.72 0.98028c0-0.18715 0.348-0.34028 0.77333-0.34028 0.54907 0 0.87051-0.2552 1.1084-0.88 0.33185-0.87146 0.33444-0.86913 0.26666 0.24-0.06189 1.0128-0.16796 1.1296-1.1084 1.2203-0.58418 0.05632-1.04-0.04886-1.04-0.24zm26.56 0.0771c0-1.0123 0.42507-1.3759 1.5542-1.3294 0.96091 0.03952 1.0117 0.07131 0.28926 0.18092-0.48208 0.07314-1.0941 0.4436-1.36 0.82326-0.26592 0.37965-0.48349 0.52602-0.48349 0.32525zm-19.412-0.71846c0.04036-0.6014 0.30168-0.84535 1.136-1.0604 0.70488-0.18172 1.2025-0.16037 1.424 0.06108 0.24058 0.24058-0.04724 0.34044-0.98131 0.34044-1.1115 0-1.3463 0.11451-1.4764 0.72-0.14135 0.65798-0.15016 0.65272-0.10226-0.06108zm3.4124 0.30108c0-0.176 0.216-0.32 0.48-0.32s0.48-0.1525 0.48-0.33889 0.144-0.24989 0.32-0.14111c0.63553 0.39278 0.32386 1.12-0.48 1.12-0.44 0-0.8-0.144-0.8-0.32zm-35.68-0.96c-0.10877-0.176-0.04527-0.32 0.14111-0.32 0.18639 0 0.33889 0.144 0.33889 0.32s-0.0635 0.32-0.14112 0.32c-0.07761 0-0.23011-0.144-0.33888-0.32zm13.28-0.33889c0-0.18639 0.144-0.24989 0.32-0.14111 0.176 0.10878 0.32 0.26127 0.32 0.33889 0 0.07761-0.144 0.14111-0.32 0.14111s-0.32-0.1525-0.32-0.33889zm15.36 0c0-0.18639 0.144-0.24989 0.32-0.14111 0.176 0.10878 0.32 0.26127 0.32 0.33889 0 0.07761-0.144 0.14111-0.32 0.14111s-0.32-0.1525-0.32-0.33889zm-19.688-2.6505c-2.3229-1.0536-2.2745-4.9916 0.07267-5.9112 1.055-0.41334 1.4546-0.46793 3.0551-0.41736 1.0566 0.03338 1.2 0.13354 1.2 0.83792 0 0.49778-0.18133 0.8-0.48 0.8-0.264 0-0.48-0.21326-0.48-0.4739 0-0.64616-1.4713-0.96746-2.43-0.53064-0.97478 0.44414-1.5154 1.7876-1.2895 3.2042 0.25434 1.5948 1.0589 2.3305 2.4232 2.2158 1.0246-0.08613 1.1462-0.19783 1.2366-1.1355 0.08386-0.86971-0.0078-1.04-0.56-1.04-0.36315 0-0.66028-0.144-0.66028-0.32s0.648-0.32 1.44-0.32 1.44 0.144 1.44 0.32-0.144 0.32-0.32 0.32-0.32 0.4955-0.32 1.1011c0 0.60561-0.13206 1.1827-0.29346 1.2825-0.70949 0.43849-3.1268 0.47864-4.0343 0.06701zm4.9678 0.10939c0-0.176 0.1197-0.32 0.26599-0.32 0.14629 0 0.81055-1.3759 1.4761-3.0575 1.5892-4.0151 2.0301-4.013 3.5825 0.01752 0.61011 1.584 1.2457 2.928 1.4123 2.9867 0.77052 0.27121 0.17571 0.69334-0.97695 0.69334-1.1726 0-1.751-0.42965-0.94169-0.69944 0.18607-0.06202 0.24267-0.36202 0.12576-0.66667-0.15579-0.40598-0.57882-0.5539-1.5841-0.5539-1.0053 0-1.4283 0.14792-1.5841 0.5539-0.1169 0.30464-0.06031 0.60464 0.12576 0.66667 0.76142 0.25381 0.26339 0.69944-0.78169 0.69944-0.616 0-1.12-0.144-1.12-0.32zm4.2959-2.96c-0.125-0.396-0.39473-1.2053-0.59939-1.7985l-0.37211-1.0785-0.405 1.3518c-0.22275 0.74348-0.48214 1.5528-0.57642 1.7985-0.12752 0.33231 0.12967 0.44669 1.0044 0.44669 1.0734 0 1.156-0.06273 0.94852-0.72zm4.3441 2.96c0-0.176 0.216-0.32 0.48-0.32 0.39111 0 0.48-0.53333 0.48-2.88 0-2.8377-0.01142-2.88-0.77875-2.88-0.6055 0-0.80127 0.19028-0.88 0.85532-0.15971 1.3491-0.90125 1.3255-0.90125-0.02866v-1.1467h6.4v1.12c0 1.3701-0.58395 1.4802-0.848 0.16-0.14866-0.7433-0.36356-0.96-0.952-0.96-0.7437 0-0.76 0.06175-0.76 2.88 0 2.6667 0.04741 2.88 0.64 2.88 0.352 0 0.64 0.144 0.64 0.32s-0.792 0.32-1.76 0.32-1.76-0.144-1.76-0.32zm5.44 0c0-0.176 0.216-0.32 0.48-0.32 0.76599 0 0.69227-5.2846-0.08-5.7344-0.41359-0.2409 0.1302-0.32872 2.08-0.3359 2.4299-9e-3 2.64 0.0412 2.64 0.63027 0 0.74983-0.4896 0.85349-0.75572 0.16-0.11561-0.30128-0.60495-0.48-1.3142-0.48-1.105 0-1.13 0.02831-1.13 1.28 0 1.152 0.08 1.28 0.8 1.28 0.44 0 0.8-0.144 0.8-0.32s0.216-0.32 0.48-0.32c0.32 0 0.48 0.32 0.48 0.96s-0.16 0.96-0.48 0.96c-0.264 0-0.48-0.144-0.48-0.32s-0.36-0.32-0.8-0.32c-0.72 0-0.8 0.128-0.8 1.28v1.28h1.4184c1.1601 0 1.4573-0.12245 1.6318-0.67221 0.14223-0.44814 0.32002-0.56555 0.53335-0.35221 0.176 0.176 0.22399 0.6225 0.10665 0.99221-0.19454 0.61294-0.45129 0.67221-2.9118 0.67221-1.5856 0-2.6984-0.13196-2.6984-0.32zm8.3742-0.24c-0.1586-0.308-0.61428-1.568-1.0126-2.8s-0.94398-2.492-1.2125-2.8c-0.45636-0.52346-0.38703-0.56 1.0625-0.56 1.3133 0 1.4686 0.06125 1.0145 0.4-0.49768 0.37121-0.48201 0.57026 0.21772 2.7652l0.754 2.3652 0.71353-2.1442c0.68199-2.0494 0.68869-2.1716 0.15152-2.7652-0.54893-0.60656-0.52593-0.62101 0.98875-0.62101 1.3056 0 1.4683 0.06324 1.029 0.4-0.47941 0.3675-0.46629 0.5755 0.1615 2.56 0.37582 1.188 0.76565 2.16 0.86629 2.16 0.10064 0 0.43367-0.95577 0.74005-2.1239 0.41907-1.5978 0.46742-2.232 0.19517-2.56-0.29462-0.35499-0.13717-0.43606 0.84688-0.43606 1.1215 0 1.174 0.04044 0.72684 0.56-0.26506 0.308-0.86803 1.82-1.3399 3.36-1.0992 3.5872-1.7154 3.7616-2.5821 0.73093-0.32544-1.138-0.69393-2.0059-0.81886-1.9287-0.12494 0.07721-0.47068 1.0083-0.76832 2.0691-0.55213 1.9678-1.173 2.4579-1.7339 1.3687zm7.3058 0.26667c0-0.16133 0.13637-0.34133 0.30305-0.4 0.16668-0.05867 0.80321-1.4027 1.4145-2.9867 0.92402-2.3943 1.228-2.88 1.8024-2.88 0.57441 0 0.8784 0.48573 1.8024 2.88 0.61132 1.584 1.2479 2.928 1.4145 2.9867 0.77052 0.2712 0.17571 0.69333-0.97695 0.69333-1.1726 0-1.751-0.42965-0.94169-0.69944 0.18607-0.06202 0.24267-0.36202 0.12576-0.66667-0.29893-0.779-2.9537-0.78968-3.2517-0.01309-0.11587 0.30194-0.04076 0.5964 0.17004 0.66667 0.7946 0.26486 0.32816 0.71252-0.74243 0.71252-0.616 0-1.12-0.132-1.12-0.29333zm4.2959-2.9867c-0.125-0.396-0.39473-1.2053-0.59939-1.7985l-0.37211-1.0785-0.405 1.3518c-0.22275 0.74348-0.48214 1.5528-0.57642 1.7985-0.12752 0.33231 0.12967 0.44669 1.0044 0.44669 1.0734 0 1.156-0.06273 0.94852-0.72zm4.3441 2.96c0-0.176 0.216-0.32 0.48-0.32 1.2285 0-0.29382-4.2471-2.036-5.68-0.40415-0.33241-0.24618-0.39573 0.93484-0.37474 0.78164 0.01389 1.2433 0.09718 1.0259 0.18508-0.3012 0.12179-0.27264 0.40132 0.11999 1.1747 0.97144 1.9135 1.1054 1.9483 1.9634 0.50943 0.64449-1.0808 0.70985-1.3792 0.3517-1.6061-0.29327-0.18576-0.01955-0.28027 0.82128-0.28353 1.0755-0.0042 1.1838 0.05399 0.73549 0.3951-0.28912 0.22-0.94795 1.2109-1.4641 2.202-0.96805 1.8589-1.0497 3.478-0.17529 3.478 0.24348 0 0.4427 0.144 0.4427 0.32s-0.72 0.32-1.6 0.32-1.6-0.144-1.6-0.32zm-56.925-2.0375c-0.34877-0.42024-0.28342-0.61958 0.41544-1.2673 0.45612-0.42272 0.82932-1.0761 0.82932-1.4519 0-0.91437 0.62963-0.88029 0.6779 0.0367 0.02084 0.396 0.01709 0.83925-0.0083 0.98499-0.02542 0.14574 0.41341 0.21774 0.97519 0.16 2.1406-0.22004 1.0407 1.4739-1.1886 1.8303-0.9631 0.15401-1.3913 0.08028-1.701-0.29287z" fill="#635b60"/>
  <path d="m8.64 46.038c0-0.83165 1.8572-13.666 2.5472-17.602 1.0679-6.0925 2.4256-10.253 5.0438-15.455 0.79866-1.587 1.1898-2.0886 1.3727-1.76 0.16532 0.29702-0.33788 1.6643-1.4231 3.8668-2.9635 6.0147-4.1485 10.71-5.9641 23.633-0.55639 3.96-1.1387 7.3368-1.2941 7.504-0.17264 0.18582-0.28245 0.11346-0.28245-0.18612zm5.76-1.2218c0-0.16714 0.87452-0.47595 1.9434-0.68623 1.0689-0.21028 2.1386-0.57753 2.3771-0.81611 0.58536-0.58536 0.79948-0.54579 0.79948 0.14772 0 0.45862-0.49022 0.69614-2.32 1.1241-2.6822 0.62733-2.8 0.63703-2.8 0.23051zm65.559-0.65633c1.4905-0.35201 2.3544-1.3239 2.6179-2.9452l0.2234-1.3746 0.04005 1.3846c0.05239 1.8112-1.2609 3.2729-2.8953 3.2226l-1.0646-0.03276zm-2.2586-0.21836c0.231-0.09244 0.507-0.08107 0.61333 0.02525 0.10633 0.10633-0.08267 0.18196-0.42 0.16807-0.37278-0.01536-0.44861-0.09118-0.19333-0.19333zm-56.122-0.70513c0.09644-0.15605 0.71661-0.38526 1.3782-0.50937 0.66154-0.1241 1.3089-0.39243 1.4386-0.59628 0.1438-0.22599 0.23775-0.10525 0.24073 0.30937 0.0037 0.50722-0.24919 0.73082-0.9951 0.88-1.4137 0.28273-2.2675 0.24807-2.0624-0.08373zm51.286-0.02534c-0.66895-0.12951-1.3889-0.40948-1.6-0.62216-0.29878-0.30108-0.27747-0.3532 0.09627-0.23542 1.5437 0.48649 2.56 0.49433 2.56 0.01978 0-0.26999 0.144-0.40189 0.32-0.29311 0.36936 0.22828 0.43948 1.4583 0.08 1.4032-0.132-0.02022-0.78732-0.14276-1.4563-0.27227zm-47.584-0.59103c0-0.18362 0.828-0.42326 1.84-0.53255s2.092-0.33687 2.4-0.50574c0.41631-0.22825 0.56-0.18871 0.56 0.15411 0 0.54516-0.49578 0.71302-2.96 1.0021-1.2022 0.14105-1.84 0.10016-1.84-0.11796zm-7.68-1.9799c0-1.8837 0.01665-1.9198 0.88-1.9098 0.79999 0.0092 0.82908 0.04883 0.32 0.43528-0.39179 0.29741-0.56 0.87108-0.56 1.9098 0 0.8166-0.144 1.4847-0.32 1.4847-0.17778 0-0.32-0.85334-0.32-1.92zm48.4 1.5313c-1.1-0.16894-2-0.44829-2-0.62079 0-0.17249 0.252-0.24234 0.56-0.15521 1.4846 0.41998 3.92 0.56582 3.92 0.23474 0-0.19252 0.144-0.35003 0.32-0.35003s0.32 0.288 0.32 0.64c0 0.71012-0.08686 0.71712-3.12 0.25129zm-34.96-0.25636c0-0.397 0.90917-0.63493 2.4262-0.63493 0.7776 0 1.4138-0.144 1.4138-0.32 0-0.176 0.144-0.32 0.32-0.32 0.64544 0 0.29756 0.9524-0.4 1.0951-1.507 0.3083-3.76 0.41605-3.76 0.17983zm31.36-0.29604c0-0.16561 0.144-0.39011 0.32-0.49889 0.176-0.10878 0.3367-0.58527 0.35712-1.0589 0.02531-0.58699 0.08526-0.67479 0.18834-0.2758 0.19904 0.77041-0.15346 2.1347-0.55156 2.1347-0.17265 0-0.3139-0.1355-0.3139-0.30111zm-2.64-0.24472c0.396-0.07627 1.044-0.07627 1.44 0s0.072 0.13868-0.72 0.13868-1.116-0.06241-0.72-0.13868zm12.615-1.534c-0.52423-0.96789-0.82031-1.6777-0.65795-1.5774 0.32945 0.20361 1.975 3.3371 1.7524 3.3371-0.07774 0-0.57027-0.79191-1.0945-1.7598zm-49.495 0.4798c-0.27304-0.528-0.42444-0.96-0.33644-0.96s0.3834 0.432 0.65644 0.96c0.27304 0.528 0.42444 0.96 0.33644 0.96s-0.3834-0.432-0.65644-0.96zm16.32 0.64c0.10878-0.176 0.54927-0.32 0.97889-0.32h0.78111v-3.8287c0-3.4579 0.05996-3.8608 0.61896-4.16 0.81656-0.43701 0.98104-0.41833 0.98104 0.11142 0 0.24347-0.288 0.51799-0.64 0.61004-0.59549 0.15572-0.64 0.43648-0.64 4.0373v3.87h-1.1389c-0.67777 0-1.0588-0.12956-0.94111-0.32zm15.924 0.09037c0.48642-0.07355 1.2064-0.07159 1.6 0.0044 0.39358 0.07596-0.0044 0.13613-0.8844 0.13373-0.88-0.0026-1.202-0.06455-0.7156-0.1381zm-26.644-4.053c0-3.4854 0.06745-3.9865 0.56-4.1602 0.308-0.10864 0.74-0.28144 0.96-0.38399 0.22294-0.10392 0.4 0.02128 0.4 0.28289 0 0.25814-0.288 0.54466-0.64 0.63671-0.59357 0.15522-0.64 0.43648-0.64 3.8773 0 2.26-0.12507 3.71-0.32 3.71-0.19611 0-0.32-1.5342-0.32-3.9627zm17.84 3.7507c0.22-0.08877 0.58-0.08877 0.8 0s0.04 0.1614-0.4 0.1614-0.62-0.07263-0.4-0.1614zm3.8076-0.1091c2.2028-0.32245 2.3524-0.45332 2.3524-2.0587 0-0.838 0.18893-1.5387 0.48-1.7803 0.39312-0.32626 0.48-0.3044 0.48 0.12082 0 0.28555-0.144 0.51918-0.32 0.51918s-0.32 0.70116-0.32 1.5581c0 1.5519-0.0048 1.5589-1.2 1.7565-0.66 0.10909-1.632 0.18197-2.16 0.16195-0.6019-0.02282-0.34539-0.12637 0.68762-0.27758zm17.312 0.13742c-0.132-0.13368-0.24-0.93906-0.24-1.7897 0-1.6092 0.06473-1.6801 1.12-1.2267 0.52361 0.225 0.54135 0.27911 0.09753 0.29751-0.41294 0.01712-0.56575 0.37342-0.64 1.4922-0.05364 0.80835-0.20553 1.3603-0.33753 1.2267zm-34.16-3.3175c0-1.5736 0.144-2.9501 0.32-3.0589 0.20481-0.12658 0.32 0.90334 0.32 2.8611 0 1.8259-0.12898 3.0589-0.32 3.0589-0.18947 0-0.32-1.167-0.32-2.8611zm-11.597 1.047c-0.49888-0.49889-0.46935-0.60798 0.4472-1.6519 0.8685-0.98917 0.96246-1.2854 0.81705-2.5755-0.1541-1.3672-0.13714-1.4087 0.27289-0.66813 0.24046 0.43432 0.44177 1.1497 0.44735 1.5897 0.01176 0.9277-1.0877 2.88-1.6219 2.88-0.25652 0-0.24635 0.14162 0.03448 0.48 0.5371 0.64716 0.26753 0.61038-0.39702-0.05416zm38.157-0.22852c0-0.06747 0.288-0.19799 0.64-0.29004 0.352-0.09205 0.64-0.03684 0.64 0.12268 0 0.15952-0.288 0.29004-0.64 0.29004s-0.64-0.05521-0.64-0.12268zm-20.939-0.74352c-0.17366-0.45606-0.1369-0.49282 0.17914-0.17914 0.2187 0.21707 0.31702 0.47528 0.21849 0.5738-0.09853 0.09852-0.27746-0.07908-0.39763-0.39467zm-21.301-2.1549v-2.4189h1.1011c0.60561 0 1.1888 0.14183 1.2959 0.31518 0.12081 0.19548-0.17586 0.24105-0.78112 0.12l-0.97591-0.19518v2.1011c0 1.1556-0.144 2.1901-0.32 2.2989-0.20255 0.12518-0.32-0.69001-0.32-2.2211zm54.09 1.3616c0.91665-0.91665 1.0041-1.1669 0.86711-2.48l-0.15241-1.4605 0.45933 1.0912c0.72459 1.7214-0.15157 3.8688-1.5785 3.8688-0.52205 0-0.4609-0.15412 0.4045-1.0195zm-33.955-0.82048-0.77578-0.88 0.88 0.77578c0.82249 0.72508 1.0267 0.98422 0.77578 0.98422-0.05732 0-0.45332-0.396-0.88-0.88zm8.0747 0.24c0-0.44 0.07263-0.62 0.1614-0.4 0.08877 0.22 0.08877 0.58 0 0.8s-0.1614 0.04-0.1614-0.4zm21.389-1.6c0-1.7923 0.04915-1.92 0.73884-1.92 0.40636 0 1.0046 0.19432 1.3294 0.43183 0.53337 0.39001 0.49281 0.41748-0.41884 0.28368l-1.0094-0.14815v1.6363c0 0.89998-0.144 1.6363-0.32 1.6363-0.17778 0-0.32-0.85333-0.32-1.92zm13.92 0.987c0.42958-0.16648 0.70397-0.65882 0.83459-1.4975l0.19459-1.2495 0.04541 1.52c0.04364 1.4609 0.01117 1.5191-0.83459 1.4975-0.76139-0.01946-0.79374-0.05592-0.24-0.27051zm-35.027-0.747c-0.0225-0.98276 1.1554-1.8435 2.4672-1.8029 0.66 0.02042 0.912 0.09802 0.56 0.17246-0.352 0.07444-0.96036 0.20356-1.3519 0.28694-0.39155 0.08339-0.92578 0.54578-1.1872 1.0275-0.3398 0.62625-0.47893 0.71631-0.48809 0.31593zm-9.8032-0.64-0.6096-0.72 0.72 0.6096c0.67662 0.57287 0.86568 0.8304 0.6096 0.8304-0.06072 0-0.38472-0.324-0.72-0.72zm15.068 0.43946c0.73363-0.15696 1.0052-0.4285 1.1621-1.1621 0.14908-0.69682 0.21512-0.76852 0.24268-0.2635 0.0688 1.2609-0.29494 1.7083-1.3564 1.6683l-1.0058-0.03786zm10.258-0.49108c0.62799-0.4592 1.1047-0.39425 1.1047 0.15051 0 0.16561-0.38752 0.30111-0.86116 0.30111-0.81985 0-0.83153-0.02166-0.24353-0.45162zm15.825-0.3092c0-0.39436 0.28851-0.5087 1.2-0.4756 0.8846 0.03213 0.98973 0.08224 0.4 0.19066-0.44 0.0809-0.98 0.29492-1.2 0.4756-0.29063 0.2387-0.4 0.18656-0.4-0.19066zm-42.24-0.99918c-0.2191-0.264-0.32636-0.48-0.23836-0.48s0.33926 0.216 0.55836 0.48 0.32636 0.48 0.23836 0.48-0.33926-0.216-0.55836-0.48zm3.52 0.14111c0-0.18639 0.144-0.24989 0.32-0.14111 0.176 0.10878 0.32 0.26127 0.32 0.33889 0 0.07761-0.144 0.14111-0.32 0.14111s-0.32-0.1525-0.32-0.33889zm19.764 0.11256c0.39805-0.07654 0.97405-0.07363 1.28 0.0065 0.30595 0.08009-0.01974 0.14272-0.72373 0.13917-0.704-0.0036-0.95432-0.06908-0.55627-0.14563zm-24.121-2.8226c-1.592-0.81372-2.1543-2.6933-1.3402-4.48 0.53217-1.168 1.8381-1.7511 3.9218-1.7511 1.681 0 1.7759 0.04277 1.7759 0.8 0 0.49778-0.18133 0.8-0.48 0.8-0.264 0-0.48-0.20059-0.48-0.44576 0-1.0881-2.0088-1.0945-3.0934-0.0099-0.70774 0.70774-0.80156 1.0264-0.6633 2.253 0.21565 1.9132 0.99397 2.7415 2.4604 2.6182 1.0246-0.08613 1.1462-0.19783 1.2366-1.1355 0.08386-0.86971-0.0078-1.04-0.56-1.04-0.36315 0-0.66028-0.144-0.66028-0.32s0.648-0.32 1.44-0.32 1.44 0.144 1.44 0.32-0.144 0.32-0.32 0.32-0.32 0.4955-0.32 1.1011c0 1.2928-0.14162 1.4099-1.9735 1.6318-0.92666 0.11226-1.7174-0.0011-2.384-0.34185zm4.9975 0.1689c0-0.176 0.12912-0.32 0.28694-0.32s0.82015-1.3761 1.4718-3.0581c1.5635-4.0351 2.0284-4.033 3.549 0.01618 0.59445 1.583 1.2274 2.927 1.4065 2.9867 0.79855 0.26619 0.20963 0.69524-0.95429 0.69524-1.1726 0-1.751-0.42965-0.94169-0.69944 0.18607-0.06202 0.24267-0.36202 0.12576-0.66667-0.15579-0.40598-0.57882-0.5539-1.5841-0.5539-1.0053 0-1.4283 0.14792-1.5841 0.5539-0.1169 0.30464-0.06031 0.60464 0.12576 0.66667 0.76142 0.25381 0.26339 0.69944-0.78169 0.69944-0.616 0-1.12-0.144-1.12-0.32zm4.2959-2.96c-0.125-0.396-0.39473-1.2053-0.59939-1.7985l-0.37211-1.0785-0.405 1.3518c-0.22275 0.74348-0.48214 1.5528-0.57642 1.7985-0.12752 0.33231 0.12967 0.44669 1.0044 0.44669 1.0734 0 1.156-0.06273 0.94852-0.72zm4.3441 2.96c0-0.176 0.29361-0.32 0.65246-0.32 0.61395 0 0.647-0.16528 0.56-2.8-0.09152-2.7716-0.10116-2.801-0.94937-2.899-0.72484-0.08376-0.8728 0.03574-0.96 0.77532-0.12053 1.0223-0.90309 1.4525-0.90309 0.49654 0-1.5463 0.21876-1.6528 3.3942-1.6528h3.0058v1.12c0 1.3701-0.58395 1.4802-0.848 0.16-0.14866-0.7433-0.36356-0.96-0.952-0.96-0.7437 0-0.76 0.06175-0.76 2.88 0 2.6667 0.04741 2.88 0.64 2.88 0.352 0 0.64 0.144 0.64 0.32s-0.792 0.32-1.76 0.32-1.76-0.144-1.76-0.32zm5.44 0c0-0.176 0.216-0.32 0.48-0.32 0.39082 0 0.48-0.53073 0.48-2.8565 0-2.4514-0.07942-2.8773-0.56-3.0029-0.308-0.08049 0.628-0.16305 2.08-0.18346 2.439-0.0343 2.64 0.0116 2.64 0.60288 0 0.74983-0.4896 0.85349-0.75572 0.16-0.11561-0.30128-0.60495-0.48-1.3142-0.48-1.105 0-1.13 0.02831-1.13 1.28 0 1.1223 0.09067 1.28 0.736 1.28 0.4048 0 0.9088-0.1728 1.12-0.384 0.29867-0.29867 0.384-0.14222 0.384 0.704s-0.08533 1.0027-0.384 0.704c-0.2112-0.2112-0.7152-0.384-1.12-0.384-0.64533 0-0.736 0.15768-0.736 1.28v1.28h1.4184c1.1601 0 1.4573-0.12245 1.6318-0.67221 0.14223-0.44814 0.32002-0.56555 0.53335-0.35221 0.176 0.176 0.22399 0.6225 0.10665 0.99221-0.19454 0.61294-0.45129 0.67221-2.9118 0.67221-1.5856 0-2.6984-0.13196-2.6984-0.32zm8.5318 0.08c-0.0803-0.132-0.53156-1.392-1.0028-2.8-0.47124-1.408-1.0844-2.812-1.3625-3.12-0.47486-0.52586-0.41114-0.56 1.0451-0.56 1.3382 0 1.474 0.05612 0.99072 0.40951-0.47378 0.34644-0.50402 0.5559-0.19632 1.36 0.20005 0.52277 0.5413 1.6405 0.75834 2.4839l0.39461 1.5334 0.76788-2.4485c0.75079-2.394 0.75434-2.4584 0.15938-2.8934-0.55012-0.40226-0.45861-0.44494 0.95383-0.44494 1.3225 0 1.48 0.06139 1.026 0.4-0.49746 0.37104-0.48056 0.57376 0.23338 2.8 0.42331 1.32 0.84082 2.184 0.9278 1.92 1.3247-4.0206 1.4231-4.6457 0.77278-4.9081-0.22-0.08877 0.16232-0.17277 0.8496-0.18667 1.1655-0.02357 1.2164 0.01241 0.7559 0.53474-0.27154 0.308-0.87727 1.8291-1.3461 3.3803-1.0481 3.468-1.5598 3.5744-2.5945 0.53971-0.78477-2.3015-0.80929-2.2891-1.7644 0.89889-0.36433 1.216-0.99177 1.7208-1.3687 1.1011zm7.1482-0.05333c0-0.16133 0.14657-0.34219 0.32571-0.4019 0.17914-0.05971 0.813-1.4037 1.4086-2.9867 0.90556-2.4068 1.1965-2.8781 1.777-2.8781 0.58044 0 0.87129 0.47091 1.7755 2.8747 0.59474 1.5811 1.2325 2.9251 1.4173 2.9867 0.80731 0.2691 0.22688 0.69864-0.94408 0.69864-1.1726 0-1.751-0.42965-0.94169-0.69944 0.18607-0.06202 0.24267-0.36202 0.12576-0.66667-0.29893-0.779-2.9537-0.78968-3.2517-0.01309-0.11587 0.30194-0.04076 0.5964 0.17004 0.66667 0.7946 0.26486 0.32816 0.71252-0.74243 0.71252-0.616 0-1.12-0.132-1.12-0.29333zm4.2959-2.9867c-0.125-0.396-0.4044-1.224-0.62088-1.84l-0.3936-1.12-0.37841 1.38c-0.20812 0.75901-0.45784 1.587-0.55492 1.84-0.13375 0.34855 0.10834 0.45998 0.99929 0.45998 1.0734 0 1.156-0.06273 0.94852-0.72zm4.3441 2.96c0-0.176 0.216-0.32 0.48-0.32 0.86495 0 0.54771-1.8848-0.64874-3.8544-0.62081-1.022-1.3048-1.9294-1.52-2.0166-0.21519-0.08717 0.25674-0.15849 1.0487-0.15849s1.2621 0.07192 1.0448 0.15982c-0.3012 0.12179-0.27264 0.40132 0.11999 1.1747 0.97144 1.9135 1.1054 1.9483 1.9634 0.50943 0.64449-1.0808 0.70985-1.3792 0.3517-1.6061-0.29327-0.18576-0.01955-0.28027 0.82128-0.28353 1.0707-0.0042 1.1831 0.05552 0.74457 0.3951-0.88048 0.68176-2.4857 3.739-2.4857 4.7341 0 0.73258 0.14434 0.94592 0.64 0.94592 0.352 0 0.64 0.144 0.64 0.32s-0.72 0.32-1.6 0.32-1.6-0.144-1.6-0.32zm-58.503-22.757c-1.4988-3.8795-1.9009-5.4033-1.426-5.4033 0.39311 0 1.243 1.9376 1.7193 3.9198l0.36521 1.5198 1.091-0.95787c1.5748-1.3827 3.2596-2.1587 5.5888-2.5743 1.7993-0.32105 2.285-0.28834 4.0527 0.27294 2.1478 0.68199 4.1229 2.0338 5.6667 3.8784 0.8795 1.0509 0.83328 1.0313-0.58395-0.24749-4.392-3.9629-9.5861-4.0978-14.291-0.37115-1.1712 0.9276-1.2113 1.0209-0.90919 2.1151 0.62239 2.2541 0.06521 1.3124-1.2732-2.152z" fill="#070303"/>
 </g>
</svg>
